<?xml version="1.0" encoding="utf-8" standalone="no"?>
<!DOCTYPE svg PUBLIC "-//W3C//DTD SVG 1.1//EN"
  "http://www.w3.org/Graphics/SVG/1.1/DTD/svg11.dtd">
<svg xmlns:xlink="http://www.w3.org/1999/xlink" width="864pt" height="288pt" viewBox="0 0 864 288" xmlns="http://www.w3.org/2000/svg" version="1.1">
 <metadata>
  <rdf:RDF xmlns:dc="http://purl.org/dc/elements/1.1/" xmlns:cc="http://creativecommons.org/ns#" xmlns:rdf="http://www.w3.org/1999/02/22-rdf-syntax-ns#">
   <cc:Work>
    <dc:type rdf:resource="http://purl.org/dc/dcmitype/StillImage"/>
    <dc:date>2025-04-26T19:40:31.293717</dc:date>
    <dc:format>image/svg+xml</dc:format>
    <dc:creator>
     <cc:Agent>
      <dc:title>Matplotlib v3.9.2, https://matplotlib.org/</dc:title>
     </cc:Agent>
    </dc:creator>
   </cc:Work>
  </rdf:RDF>
 </metadata>
 <defs>
  <style type="text/css">*{stroke-linejoin: round; stroke-linecap: butt}</style>
 </defs>
 <g id="figure_1">
  <g id="patch_1">
   <path d="M 0 288 
L 864 288 
L 864 0 
L 0 0 
z
" style="fill: #ffffff"/>
  </g>
  <g id="axes_1">
   <g id="patch_2">
    <path d="M 108 256.32 
L 777.6 256.32 
L 777.6 34.56 
L 108 34.56 
z
" style="fill: #ffffff"/>
   </g>
   <g id="PolyCollection_1">
    <defs>
     <path id="mb7d11e9c3f" d="M 223.955765 -43.048392 
L 215.244235 -43.048392 
L 213.408927 -43.965468 
L 211.002882 -44.882543 
L 207.934649 -45.799618 
L 204.13027 -46.716693 
L 199.54601 -47.633768 
L 194.180997 -48.550843 
L 188.087857 -49.467918 
L 181.379203 -50.384994 
L 174.228153 -51.302069 
L 166.861639 -52.219144 
L 159.546364 -53.136219 
L 152.56845 -54.053294 
L 146.209034 -54.970369 
L 140.718962 -55.887444 
L 136.296093 -56.80452 
L 133.068482 -57.721595 
L 131.085794 -58.63867 
L 130.32 -59.555745 
L 130.674874 -60.47282 
L 132.002422 -61.389895 
L 134.123395 -62.30697 
L 136.848632 -63.224046 
L 139.998145 -64.141121 
L 143.41561 -65.058196 
L 146.976924 -65.975271 
L 150.592667 -66.892346 
L 154.205255 -67.809421 
L 157.782335 -68.726496 
L 161.308282 -69.643572 
L 164.775637 -70.560647 
L 168.177988 -71.477722 
L 171.505274 -72.394797 
L 174.741845 -73.311872 
L 177.86709 -74.228947 
L 180.857948 -75.146022 
L 183.692405 -76.063098 
L 186.353013 -76.980173 
L 188.829596 -77.897248 
L 191.120625 -78.814323 
L 193.233034 -79.731398 
L 195.180655 -80.648473 
L 196.981648 -81.565548 
L 198.655528 -82.482624 
L 200.220335 -83.399699 
L 201.690477 -84.316774 
L 203.075535 -85.233849 
L 204.380137 -86.150924 
L 205.604804 -87.067999 
L 206.747474 -87.985074 
L 207.805351 -88.90215 
L 208.776674 -89.819225 
L 209.662051 -90.7363 
L 210.465128 -91.653375 
L 211.192462 -92.57045 
L 211.852676 -93.487525 
L 212.455054 -94.4046 
L 213.007902 -95.321676 
L 213.51699 -96.238751 
L 213.984438 -97.155826 
L 214.408281 -98.072901 
L 214.782871 -98.989976 
L 215.100086 -99.907051 
L 215.351177 -100.824126 
L 215.528952 -101.741202 
L 215.62991 -102.658277 
L 215.655939 -103.575352 
L 215.615224 -104.492427 
L 215.522164 -105.409502 
L 215.396234 -106.326577 
L 215.259944 -107.243652 
L 215.136195 -108.160728 
L 215.04546 -109.077803 
L 215.003274 -109.994878 
L 215.018448 -110.911953 
L 215.092331 -111.829028 
L 215.219225 -112.746103 
L 215.387864 -113.663178 
L 215.583672 -114.580254 
L 215.791372 -115.497329 
L 215.997478 -116.414404 
L 216.192243 -117.331479 
L 216.370754 -118.248554 
L 216.533066 -119.165629 
L 216.683422 -120.082704 
L 216.828807 -120.99978 
L 216.977163 -121.916855 
L 217.135635 -122.83393 
L 217.309155 -123.751005 
L 217.499591 -124.66808 
L 217.705543 -125.585155 
L 217.922719 -126.50223 
L 218.144769 -127.419306 
L 218.364343 -128.336381 
L 218.574166 -129.253456 
L 218.767944 -130.170531 
L 218.940994 -131.087606 
L 219.090532 -132.004681 
L 219.215666 -132.921756 
L 219.317138 -133.838832 
L 219.882862 -133.838832 
L 219.882862 -133.838832 
L 219.984334 -132.921756 
L 220.109468 -132.004681 
L 220.259006 -131.087606 
L 220.432056 -130.170531 
L 220.625834 -129.253456 
L 220.835657 -128.336381 
L 221.055231 -127.419306 
L 221.277281 -126.50223 
L 221.494457 -125.585155 
L 221.700409 -124.66808 
L 221.890845 -123.751005 
L 222.064365 -122.83393 
L 222.222837 -121.916855 
L 222.371193 -120.99978 
L 222.516578 -120.082704 
L 222.666934 -119.165629 
L 222.829246 -118.248554 
L 223.007757 -117.331479 
L 223.202522 -116.414404 
L 223.408628 -115.497329 
L 223.616328 -114.580254 
L 223.812136 -113.663178 
L 223.980775 -112.746103 
L 224.107669 -111.829028 
L 224.181552 -110.911953 
L 224.196726 -109.994878 
L 224.15454 -109.077803 
L 224.063805 -108.160728 
L 223.940056 -107.243652 
L 223.803766 -106.326577 
L 223.677836 -105.409502 
L 223.584776 -104.492427 
L 223.544061 -103.575352 
L 223.57009 -102.658277 
L 223.671048 -101.741202 
L 223.848823 -100.824126 
L 224.099914 -99.907051 
L 224.417129 -98.989976 
L 224.791719 -98.072901 
L 225.215562 -97.155826 
L 225.68301 -96.238751 
L 226.192098 -95.321676 
L 226.744946 -94.4046 
L 227.347324 -93.487525 
L 228.007538 -92.57045 
L 228.734872 -91.653375 
L 229.537949 -90.7363 
L 230.423326 -89.819225 
L 231.394649 -88.90215 
L 232.452526 -87.985074 
L 233.595196 -87.067999 
L 234.819863 -86.150924 
L 236.124465 -85.233849 
L 237.509523 -84.316774 
L 238.979665 -83.399699 
L 240.544472 -82.482624 
L 242.218352 -81.565548 
L 244.019345 -80.648473 
L 245.966966 -79.731398 
L 248.079375 -78.814323 
L 250.370404 -77.897248 
L 252.846987 -76.980173 
L 255.507595 -76.063098 
L 258.342052 -75.146022 
L 261.33291 -74.228947 
L 264.458155 -73.311872 
L 267.694726 -72.394797 
L 271.022012 -71.477722 
L 274.424363 -70.560647 
L 277.891718 -69.643572 
L 281.417665 -68.726496 
L 284.994745 -67.809421 
L 288.607333 -66.892346 
L 292.223076 -65.975271 
L 295.78439 -65.058196 
L 299.201855 -64.141121 
L 302.351368 -63.224046 
L 305.076605 -62.30697 
L 307.197578 -61.389895 
L 308.525126 -60.47282 
L 308.88 -59.555745 
L 308.114206 -58.63867 
L 306.131518 -57.721595 
L 302.903907 -56.80452 
L 298.481038 -55.887444 
L 292.990966 -54.970369 
L 286.63155 -54.053294 
L 279.653636 -53.136219 
L 272.338361 -52.219144 
L 264.971847 -51.302069 
L 257.820797 -50.384994 
L 251.112143 -49.467918 
L 245.019003 -48.550843 
L 239.65399 -47.633768 
L 235.06973 -46.716693 
L 231.265351 -45.799618 
L 228.197118 -44.882543 
L 225.791073 -43.965468 
L 223.955765 -43.048392 
z
" style="stroke: #6a6a6a; stroke-width: 1.25"/>
    </defs>
    <g clip-path="url(#p9364025360)">
     <use xlink:href="#mb7d11e9c3f" x="0" y="288" style="fill: #96cac1; stroke: #6a6a6a; stroke-width: 1.25"/>
    </g>
   </g>
   <g id="PolyCollection_2">
    <defs>
     <path id="mee6362c55f" d="M 446.991783 -41.76 
L 438.608217 -41.76 
L 437.113948 -42.625625 
L 435.213711 -43.491249 
L 432.844104 -44.356874 
L 429.947367 -45.222499 
L 426.477168 -46.088124 
L 422.40496 -46.953748 
L 417.726413 -47.819373 
L 412.467225 -48.684998 
L 406.687579 -49.550623 
L 400.484509 -50.416247 
L 393.991538 -51.281872 
L 387.3752 -52.147497 
L 380.828353 -53.013121 
L 374.560549 -53.878746 
L 368.786123 -54.744371 
L 363.710966 -55.609996 
L 359.51919 -56.47562 
L 356.360935 -57.341245 
L 354.342539 -58.20687 
L 353.52 -59.072495 
L 353.896334 -59.938119 
L 355.422976 -60.803744 
L 358.004944 -61.669369 
L 361.509065 -62.534994 
L 365.774324 -63.400618 
L 370.623189 -64.266243 
L 375.872838 -65.131868 
L 381.345283 -65.997492 
L 386.875682 -66.863117 
L 392.318414 -67.728742 
L 397.55078 -68.594367 
L 402.474504 -69.459991 
L 407.015399 -70.325616 
L 411.121688 -71.191241 
L 414.761504 -72.056866 
L 417.920064 -72.92249 
L 420.596908 -73.788115 
L 422.803444 -74.65374 
L 424.560943 -75.519364 
L 425.898961 -76.384989 
L 426.854108 -77.250614 
L 427.46901 -78.116239 
L 427.791301 -78.981863 
L 427.872514 -79.847488 
L 427.766776 -80.713113 
L 427.529267 -81.578738 
L 427.214482 -82.444362 
L 426.874371 -83.309987 
L 426.556482 -84.175612 
L 426.302242 -85.041236 
L 426.145512 -85.906861 
L 426.111527 -86.772486 
L 426.216319 -87.638111 
L 426.466642 -88.503735 
L 426.860418 -89.36936 
L 427.38764 -90.234985 
L 428.031671 -91.10061 
L 428.770827 -91.966234 
L 429.580128 -92.831859 
L 430.433083 -93.697484 
L 431.303411 -94.563108 
L 432.166554 -95.428733 
L 433.000931 -96.294358 
L 433.788833 -97.159983 
L 434.516952 -98.025607 
L 435.17652 -98.891232 
L 435.763108 -99.756857 
L 436.276129 -100.622482 
L 436.718146 -101.488106 
L 437.094071 -102.353731 
L 437.410363 -103.219356 
L 437.67432 -104.084981 
L 437.893509 -104.950605 
L 438.075402 -105.81623 
L 438.227183 -106.681855 
L 438.355713 -107.547479 
L 438.467597 -108.413104 
L 438.569265 -109.278729 
L 438.667022 -110.144354 
L 438.767009 -111.009978 
L 438.875047 -111.875603 
L 438.996382 -112.741228 
L 439.135358 -113.606853 
L 439.295078 -114.472477 
L 439.477107 -115.338102 
L 439.681293 -116.203727 
L 439.905723 -117.069351 
L 440.146864 -117.934976 
L 440.399842 -118.800601 
L 440.658867 -119.666226 
L 440.917714 -120.53185 
L 441.170229 -121.397475 
L 441.410793 -122.2631 
L 441.634688 -123.128725 
L 441.838349 -123.994349 
L 442.019486 -124.859974 
L 442.177066 -125.725599 
L 442.311203 -126.591223 
L 442.422967 -127.456848 
L 443.177033 -127.456848 
L 443.177033 -127.456848 
L 443.288797 -126.591223 
L 443.422934 -125.725599 
L 443.580514 -124.859974 
L 443.761651 -123.994349 
L 443.965312 -123.128725 
L 444.189207 -122.2631 
L 444.429771 -121.397475 
L 444.682286 -120.53185 
L 444.941133 -119.666226 
L 445.200158 -118.800601 
L 445.453136 -117.934976 
L 445.694277 -117.069351 
L 445.918707 -116.203727 
L 446.122893 -115.338102 
L 446.304922 -114.472477 
L 446.464642 -113.606853 
L 446.603618 -112.741228 
L 446.724953 -111.875603 
L 446.832991 -111.009978 
L 446.932978 -110.144354 
L 447.030735 -109.278729 
L 447.132403 -108.413104 
L 447.244287 -107.547479 
L 447.372817 -106.681855 
L 447.524598 -105.81623 
L 447.706491 -104.950605 
L 447.92568 -104.084981 
L 448.189637 -103.219356 
L 448.505929 -102.353731 
L 448.881854 -101.488106 
L 449.323871 -100.622482 
L 449.836892 -99.756857 
L 450.42348 -98.891232 
L 451.083048 -98.025607 
L 451.811167 -97.159983 
L 452.599069 -96.294358 
L 453.433446 -95.428733 
L 454.296589 -94.563108 
L 455.166917 -93.697484 
L 456.019872 -92.831859 
L 456.829173 -91.966234 
L 457.568329 -91.10061 
L 458.21236 -90.234985 
L 458.739582 -89.36936 
L 459.133358 -88.503735 
L 459.383681 -87.638111 
L 459.488473 -86.772486 
L 459.454488 -85.906861 
L 459.297758 -85.041236 
L 459.043518 -84.175612 
L 458.725629 -83.309987 
L 458.385518 -82.444362 
L 458.070733 -81.578738 
L 457.833224 -80.713113 
L 457.727486 -79.847488 
L 457.808699 -78.981863 
L 458.13099 -78.116239 
L 458.745892 -77.250614 
L 459.701039 -76.384989 
L 461.039057 -75.519364 
L 462.796556 -74.65374 
L 465.003092 -73.788115 
L 467.679936 -72.92249 
L 470.838496 -72.056866 
L 474.478312 -71.191241 
L 478.584601 -70.325616 
L 483.125496 -69.459991 
L 488.04922 -68.594367 
L 493.281586 -67.728742 
L 498.724318 -66.863117 
L 504.254717 -65.997492 
L 509.727162 -65.131868 
L 514.976811 -64.266243 
L 519.825676 -63.400618 
L 524.090935 -62.534994 
L 527.595056 -61.669369 
L 530.177024 -60.803744 
L 531.703666 -59.938119 
L 532.08 -59.072495 
L 531.257461 -58.20687 
L 529.239065 -57.341245 
L 526.08081 -56.47562 
L 521.889034 -55.609996 
L 516.813877 -54.744371 
L 511.039451 -53.878746 
L 504.771647 -53.013121 
L 498.2248 -52.147497 
L 491.608462 -51.281872 
L 485.115491 -50.416247 
L 478.912421 -49.550623 
L 473.132775 -48.684998 
L 467.873587 -47.819373 
L 463.19504 -46.953748 
L 459.122832 -46.088124 
L 455.652633 -45.222499 
L 452.755896 -44.356874 
L 450.386289 -43.491249 
L 448.486052 -42.625625 
L 446.991783 -41.76 
z
" style="stroke: #6a6a6a; stroke-width: 1.25"/>
    </defs>
    <g clip-path="url(#p9364025360)">
     <use xlink:href="#mee6362c55f" x="0" y="288" style="fill: #f6f6bc; stroke: #6a6a6a; stroke-width: 1.25"/>
    </g>
   </g>
   <g id="PolyCollection_3">
    <defs>
     <path id="me92627bc77" d="M 668.940577 -41.995504 
L 663.059423 -41.995504 
L 659.727404 -44.029489 
L 653.915808 -46.063474 
L 644.933118 -48.097458 
L 632.680441 -50.131443 
L 618.033111 -52.165428 
L 602.879394 -54.199413 
L 589.658889 -56.233398 
L 580.550122 -58.267382 
L 576.72 -60.301367 
L 578.03501 -62.335352 
L 583.338274 -64.369337 
L 591.055779 -66.403322 
L 599.764512 -68.437307 
L 608.483784 -70.471291 
L 616.682031 -72.505276 
L 624.139219 -74.539261 
L 630.80512 -76.573246 
L 636.709596 -78.607231 
L 641.911293 -80.641215 
L 646.460874 -82.6752 
L 650.379463 -84.709185 
L 653.664794 -86.74317 
L 656.320719 -88.777155 
L 658.384257 -90.811139 
L 659.927186 -92.845124 
L 661.035053 -94.879109 
L 661.787794 -96.913094 
L 662.26071 -98.947079 
L 662.53959 -100.981063 
L 662.726253 -103.015048 
L 662.918949 -105.049033 
L 663.177453 -107.083018 
L 663.500222 -109.117003 
L 663.833781 -111.150987 
L 664.109486 -113.184972 
L 664.283244 -115.218957 
L 664.355215 -117.252942 
L 664.364083 -119.286927 
L 664.366126 -121.320912 
L 664.412338 -123.354896 
L 664.531076 -125.388881 
L 664.719045 -127.422866 
L 664.942661 -129.456851 
L 665.15065 -131.490836 
L 665.29427 -133.52482 
L 665.34675 -135.558805 
L 665.31335 -137.59279 
L 665.228069 -139.626775 
L 665.139158 -141.66076 
L 665.089728 -143.694744 
L 665.101181 -145.728729 
L 665.165963 -147.762714 
L 665.25258 -149.796699 
L 665.320783 -151.830684 
L 665.340173 -153.864668 
L 665.303762 -155.898653 
L 665.230531 -157.932638 
L 665.156505 -159.966623 
L 665.119229 -162.000608 
L 665.142893 -164.034592 
L 665.229971 -166.068577 
L 665.361679 -168.102562 
L 665.505777 -170.136547 
L 665.627839 -172.170532 
L 665.701776 -174.204517 
L 665.716833 -176.238501 
L 665.680116 -178.272486 
L 665.614419 -180.306471 
L 665.551209 -182.340456 
L 665.519796 -184.374441 
L 665.536452 -186.408425 
L 665.598952 -188.44241 
L 665.689713 -190.476395 
L 665.785479 -192.51038 
L 665.867503 -194.544365 
L 665.926897 -196.578349 
L 665.963972 -198.612334 
L 665.984138 -200.646319 
L 665.993756 -202.680304 
L 665.997777 -204.714289 
L 665.99918 -206.748273 
L 665.99932 -208.782258 
L 665.998349 -210.816243 
L 665.995281 -212.850228 
L 665.98764 -214.884213 
L 665.971029 -216.918197 
L 665.939333 -218.952182 
L 665.88652 -220.986167 
L 665.81039 -223.020152 
L 665.717005 -225.054137 
L 665.622716 -227.088122 
L 665.550704 -229.122106 
L 665.522064 -231.156091 
L 665.54587 -233.190076 
L 665.614553 -235.224061 
L 665.707772 -237.258046 
L 665.802097 -239.29203 
L 665.880283 -241.326015 
L 665.93531 -243.36 
L 666.06469 -243.36 
L 666.06469 -243.36 
L 666.119717 -241.326015 
L 666.197903 -239.29203 
L 666.292228 -237.258046 
L 666.385447 -235.224061 
L 666.45413 -233.190076 
L 666.477936 -231.156091 
L 666.449296 -229.122106 
L 666.377284 -227.088122 
L 666.282995 -225.054137 
L 666.18961 -223.020152 
L 666.11348 -220.986167 
L 666.060667 -218.952182 
L 666.028971 -216.918197 
L 666.01236 -214.884213 
L 666.004719 -212.850228 
L 666.001651 -210.816243 
L 666.00068 -208.782258 
L 666.00082 -206.748273 
L 666.002223 -204.714289 
L 666.006244 -202.680304 
L 666.015862 -200.646319 
L 666.036028 -198.612334 
L 666.073103 -196.578349 
L 666.132497 -194.544365 
L 666.214521 -192.51038 
L 666.310287 -190.476395 
L 666.401048 -188.44241 
L 666.463548 -186.408425 
L 666.480204 -184.374441 
L 666.448791 -182.340456 
L 666.385581 -180.306471 
L 666.319884 -178.272486 
L 666.283167 -176.238501 
L 666.298224 -174.204517 
L 666.372161 -172.170532 
L 666.494223 -170.136547 
L 666.638321 -168.102562 
L 666.770029 -166.068577 
L 666.857107 -164.034592 
L 666.880771 -162.000608 
L 666.843495 -159.966623 
L 666.769469 -157.932638 
L 666.696238 -155.898653 
L 666.659827 -153.864668 
L 666.679217 -151.830684 
L 666.74742 -149.796699 
L 666.834037 -147.762714 
L 666.898819 -145.728729 
L 666.910272 -143.694744 
L 666.860842 -141.66076 
L 666.771931 -139.626775 
L 666.68665 -137.59279 
L 666.65325 -135.558805 
L 666.70573 -133.52482 
L 666.84935 -131.490836 
L 667.057339 -129.456851 
L 667.280955 -127.422866 
L 667.468924 -125.388881 
L 667.587662 -123.354896 
L 667.633874 -121.320912 
L 667.635917 -119.286927 
L 667.644785 -117.252942 
L 667.716756 -115.218957 
L 667.890514 -113.184972 
L 668.166219 -111.150987 
L 668.499778 -109.117003 
L 668.822547 -107.083018 
L 669.081051 -105.049033 
L 669.273747 -103.015048 
L 669.46041 -100.981063 
L 669.73929 -98.947079 
L 670.212206 -96.913094 
L 670.964947 -94.879109 
L 672.072814 -92.845124 
L 673.615743 -90.811139 
L 675.679281 -88.777155 
L 678.335206 -86.74317 
L 681.620537 -84.709185 
L 685.539126 -82.6752 
L 690.088707 -80.641215 
L 695.290404 -78.607231 
L 701.19488 -76.573246 
L 707.860781 -74.539261 
L 715.317969 -72.505276 
L 723.516216 -70.471291 
L 732.235488 -68.437307 
L 740.944221 -66.403322 
L 748.661726 -64.369337 
L 753.96499 -62.335352 
L 755.28 -60.301367 
L 751.449878 -58.267382 
L 742.341111 -56.233398 
L 729.120606 -54.199413 
L 713.966889 -52.165428 
L 699.319559 -50.131443 
L 687.066882 -48.097458 
L 678.084192 -46.063474 
L 672.272596 -44.029489 
L 668.940577 -41.995504 
z
" style="stroke: #6a6a6a; stroke-width: 1.25"/>
    </defs>
    <g clip-path="url(#p9364025360)">
     <use xlink:href="#me92627bc77" x="0" y="288" style="fill: #c1bed6; stroke: #6a6a6a; stroke-width: 1.25"/>
    </g>
   </g>
   <g id="patch_3">
    <path d="M 219.6 234.029662 
L 219.6 234.029662 
L 219.6 234.029662 
L 219.6 234.029662 
z
" clip-path="url(#p9364025360)" style="fill: #96cac1; stroke: #6a6a6a; stroke-width: 1.25; stroke-linejoin: miter"/>
   </g>
   <g id="patch_4">
    <path d="M 219.6 234.029662 
L 219.6 234.029662 
L 219.6 234.029662 
L 219.6 234.029662 
z
" clip-path="url(#p9364025360)" style="fill: #f6f6bc; stroke: #6a6a6a; stroke-width: 1.25; stroke-linejoin: miter"/>
   </g>
   <g id="patch_5">
    <path d="M 219.6 234.029662 
L 219.6 234.029662 
L 219.6 234.029662 
L 219.6 234.029662 
z
" clip-path="url(#p9364025360)" style="fill: #c1bed6; stroke: #6a6a6a; stroke-width: 1.25; stroke-linejoin: miter"/>
   </g>
   <g id="matplotlib.axis_1">
    <g id="xtick_1">
     <g id="line2d_1">
      <defs>
       <path id="mee92f9bb2a" d="M 0 0 
L 0 3.5 
" style="stroke: #000000; stroke-width: 0.8"/>
      </defs>
      <g>
       <use xlink:href="#mee92f9bb2a" x="219.6" y="256.32" style="stroke: #000000; stroke-width: 0.8"/>
      </g>
     </g>
     <g id="text_1">
      <!-- 1 -->
      <g transform="translate(216.41875 270.918437) scale(0.1 -0.1)">
       <defs>
        <path id="DejaVuSans-31" d="M 794 531 
L 1825 531 
L 1825 4091 
L 703 3866 
L 703 4441 
L 1819 4666 
L 2450 4666 
L 2450 531 
L 3481 531 
L 3481 0 
L 794 0 
L 794 531 
z
" transform="scale(0.015625)"/>
       </defs>
       <use xlink:href="#DejaVuSans-31"/>
      </g>
     </g>
    </g>
    <g id="xtick_2">
     <g id="line2d_2">
      <g>
       <use xlink:href="#mee92f9bb2a" x="442.8" y="256.32" style="stroke: #000000; stroke-width: 0.8"/>
      </g>
     </g>
     <g id="text_2">
      <!-- 2 -->
      <g transform="translate(439.61875 270.918437) scale(0.1 -0.1)">
       <defs>
        <path id="DejaVuSans-32" d="M 1228 531 
L 3431 531 
L 3431 0 
L 469 0 
L 469 531 
Q 828 903 1448 1529 
Q 2069 2156 2228 2338 
Q 2531 2678 2651 2914 
Q 2772 3150 2772 3378 
Q 2772 3750 2511 3984 
Q 2250 4219 1831 4219 
Q 1534 4219 1204 4116 
Q 875 4013 500 3803 
L 500 4441 
Q 881 4594 1212 4672 
Q 1544 4750 1819 4750 
Q 2544 4750 2975 4387 
Q 3406 4025 3406 3419 
Q 3406 3131 3298 2873 
Q 3191 2616 2906 2266 
Q 2828 2175 2409 1742 
Q 1991 1309 1228 531 
z
" transform="scale(0.015625)"/>
       </defs>
       <use xlink:href="#DejaVuSans-32"/>
      </g>
     </g>
    </g>
    <g id="xtick_3">
     <g id="line2d_3">
      <g>
       <use xlink:href="#mee92f9bb2a" x="666" y="256.32" style="stroke: #000000; stroke-width: 0.8"/>
      </g>
     </g>
     <g id="text_3">
      <!-- 3 -->
      <g transform="translate(662.81875 270.918437) scale(0.1 -0.1)">
       <defs>
        <path id="DejaVuSans-33" d="M 2597 2516 
Q 3050 2419 3304 2112 
Q 3559 1806 3559 1356 
Q 3559 666 3084 287 
Q 2609 -91 1734 -91 
Q 1441 -91 1130 -33 
Q 819 25 488 141 
L 488 750 
Q 750 597 1062 519 
Q 1375 441 1716 441 
Q 2309 441 2620 675 
Q 2931 909 2931 1356 
Q 2931 1769 2642 2001 
Q 2353 2234 1838 2234 
L 1294 2234 
L 1294 2753 
L 1863 2753 
Q 2328 2753 2575 2939 
Q 2822 3125 2822 3475 
Q 2822 3834 2567 4026 
Q 2313 4219 1838 4219 
Q 1578 4219 1281 4162 
Q 984 4106 628 3988 
L 628 4550 
Q 988 4650 1302 4700 
Q 1616 4750 1894 4750 
Q 2613 4750 3031 4423 
Q 3450 4097 3450 3541 
Q 3450 3153 3228 2886 
Q 3006 2619 2597 2516 
z
" transform="scale(0.015625)"/>
       </defs>
       <use xlink:href="#DejaVuSans-33"/>
      </g>
     </g>
    </g>
    <g id="text_4">
     <!-- Region -->
     <g transform="translate(425.682813 284.596563) scale(0.1 -0.1)">
      <defs>
       <path id="DejaVuSans-52" d="M 2841 2188 
Q 3044 2119 3236 1894 
Q 3428 1669 3622 1275 
L 4263 0 
L 3584 0 
L 2988 1197 
Q 2756 1666 2539 1819 
Q 2322 1972 1947 1972 
L 1259 1972 
L 1259 0 
L 628 0 
L 628 4666 
L 2053 4666 
Q 2853 4666 3247 4331 
Q 3641 3997 3641 3322 
Q 3641 2881 3436 2590 
Q 3231 2300 2841 2188 
z
M 1259 4147 
L 1259 2491 
L 2053 2491 
Q 2509 2491 2742 2702 
Q 2975 2913 2975 3322 
Q 2975 3731 2742 3939 
Q 2509 4147 2053 4147 
L 1259 4147 
z
" transform="scale(0.015625)"/>
       <path id="DejaVuSans-65" d="M 3597 1894 
L 3597 1613 
L 953 1613 
Q 991 1019 1311 708 
Q 1631 397 2203 397 
Q 2534 397 2845 478 
Q 3156 559 3463 722 
L 3463 178 
Q 3153 47 2828 -22 
Q 2503 -91 2169 -91 
Q 1331 -91 842 396 
Q 353 884 353 1716 
Q 353 2575 817 3079 
Q 1281 3584 2069 3584 
Q 2775 3584 3186 3129 
Q 3597 2675 3597 1894 
z
M 3022 2063 
Q 3016 2534 2758 2815 
Q 2500 3097 2075 3097 
Q 1594 3097 1305 2825 
Q 1016 2553 972 2059 
L 3022 2063 
z
" transform="scale(0.015625)"/>
       <path id="DejaVuSans-67" d="M 2906 1791 
Q 2906 2416 2648 2759 
Q 2391 3103 1925 3103 
Q 1463 3103 1205 2759 
Q 947 2416 947 1791 
Q 947 1169 1205 825 
Q 1463 481 1925 481 
Q 2391 481 2648 825 
Q 2906 1169 2906 1791 
z
M 3481 434 
Q 3481 -459 3084 -895 
Q 2688 -1331 1869 -1331 
Q 1566 -1331 1297 -1286 
Q 1028 -1241 775 -1147 
L 775 -588 
Q 1028 -725 1275 -790 
Q 1522 -856 1778 -856 
Q 2344 -856 2625 -561 
Q 2906 -266 2906 331 
L 2906 616 
Q 2728 306 2450 153 
Q 2172 0 1784 0 
Q 1141 0 747 490 
Q 353 981 353 1791 
Q 353 2603 747 3093 
Q 1141 3584 1784 3584 
Q 2172 3584 2450 3431 
Q 2728 3278 2906 2969 
L 2906 3500 
L 3481 3500 
L 3481 434 
z
" transform="scale(0.015625)"/>
       <path id="DejaVuSans-69" d="M 603 3500 
L 1178 3500 
L 1178 0 
L 603 0 
L 603 3500 
z
M 603 4863 
L 1178 4863 
L 1178 4134 
L 603 4134 
L 603 4863 
z
" transform="scale(0.015625)"/>
       <path id="DejaVuSans-6f" d="M 1959 3097 
Q 1497 3097 1228 2736 
Q 959 2375 959 1747 
Q 959 1119 1226 758 
Q 1494 397 1959 397 
Q 2419 397 2687 759 
Q 2956 1122 2956 1747 
Q 2956 2369 2687 2733 
Q 2419 3097 1959 3097 
z
M 1959 3584 
Q 2709 3584 3137 3096 
Q 3566 2609 3566 1747 
Q 3566 888 3137 398 
Q 2709 -91 1959 -91 
Q 1206 -91 779 398 
Q 353 888 353 1747 
Q 353 2609 779 3096 
Q 1206 3584 1959 3584 
z
" transform="scale(0.015625)"/>
       <path id="DejaVuSans-6e" d="M 3513 2113 
L 3513 0 
L 2938 0 
L 2938 2094 
Q 2938 2591 2744 2837 
Q 2550 3084 2163 3084 
Q 1697 3084 1428 2787 
Q 1159 2491 1159 1978 
L 1159 0 
L 581 0 
L 581 3500 
L 1159 3500 
L 1159 2956 
Q 1366 3272 1645 3428 
Q 1925 3584 2291 3584 
Q 2894 3584 3203 3211 
Q 3513 2838 3513 2113 
z
" transform="scale(0.015625)"/>
      </defs>
      <use xlink:href="#DejaVuSans-52"/>
      <use xlink:href="#DejaVuSans-65" x="64.982422"/>
      <use xlink:href="#DejaVuSans-67" x="126.505859"/>
      <use xlink:href="#DejaVuSans-69" x="189.982422"/>
      <use xlink:href="#DejaVuSans-6f" x="217.765625"/>
      <use xlink:href="#DejaVuSans-6e" x="278.947266"/>
     </g>
    </g>
   </g>
   <g id="matplotlib.axis_2">
    <g id="ytick_1">
     <g id="line2d_4">
      <defs>
       <path id="ma90918a658" d="M 0 0 
L -3.5 0 
" style="stroke: #000000; stroke-width: 0.8"/>
      </defs>
      <g>
       <use xlink:href="#ma90918a658" x="108" y="234.029662" style="stroke: #000000; stroke-width: 0.8"/>
      </g>
     </g>
     <g id="text_5">
      <!-- 0 -->
      <g transform="translate(94.6375 237.828881) scale(0.1 -0.1)">
       <defs>
        <path id="DejaVuSans-30" d="M 2034 4250 
Q 1547 4250 1301 3770 
Q 1056 3291 1056 2328 
Q 1056 1369 1301 889 
Q 1547 409 2034 409 
Q 2525 409 2770 889 
Q 3016 1369 3016 2328 
Q 3016 3291 2770 3770 
Q 2525 4250 2034 4250 
z
M 2034 4750 
Q 2819 4750 3233 4129 
Q 3647 3509 3647 2328 
Q 3647 1150 3233 529 
Q 2819 -91 2034 -91 
Q 1250 -91 836 529 
Q 422 1150 422 2328 
Q 422 3509 836 4129 
Q 1250 4750 2034 4750 
z
" transform="scale(0.015625)"/>
       </defs>
       <use xlink:href="#DejaVuSans-30"/>
      </g>
     </g>
    </g>
    <g id="ytick_2">
     <g id="line2d_5">
      <g>
       <use xlink:href="#ma90918a658" x="108" y="185.788305" style="stroke: #000000; stroke-width: 0.8"/>
      </g>
     </g>
     <g id="text_6">
      <!-- 20000 -->
      <g transform="translate(69.1875 189.587523) scale(0.1 -0.1)">
       <use xlink:href="#DejaVuSans-32"/>
       <use xlink:href="#DejaVuSans-30" x="63.623047"/>
       <use xlink:href="#DejaVuSans-30" x="127.246094"/>
       <use xlink:href="#DejaVuSans-30" x="190.869141"/>
       <use xlink:href="#DejaVuSans-30" x="254.492188"/>
      </g>
     </g>
    </g>
    <g id="ytick_3">
     <g id="line2d_6">
      <g>
       <use xlink:href="#ma90918a658" x="108" y="137.546947" style="stroke: #000000; stroke-width: 0.8"/>
      </g>
     </g>
     <g id="text_7">
      <!-- 40000 -->
      <g transform="translate(69.1875 141.346166) scale(0.1 -0.1)">
       <defs>
        <path id="DejaVuSans-34" d="M 2419 4116 
L 825 1625 
L 2419 1625 
L 2419 4116 
z
M 2253 4666 
L 3047 4666 
L 3047 1625 
L 3713 1625 
L 3713 1100 
L 3047 1100 
L 3047 0 
L 2419 0 
L 2419 1100 
L 313 1100 
L 313 1709 
L 2253 4666 
z
" transform="scale(0.015625)"/>
       </defs>
       <use xlink:href="#DejaVuSans-34"/>
       <use xlink:href="#DejaVuSans-30" x="63.623047"/>
       <use xlink:href="#DejaVuSans-30" x="127.246094"/>
       <use xlink:href="#DejaVuSans-30" x="190.869141"/>
       <use xlink:href="#DejaVuSans-30" x="254.492188"/>
      </g>
     </g>
    </g>
    <g id="ytick_4">
     <g id="line2d_7">
      <g>
       <use xlink:href="#ma90918a658" x="108" y="89.30559" style="stroke: #000000; stroke-width: 0.8"/>
      </g>
     </g>
     <g id="text_8">
      <!-- 60000 -->
      <g transform="translate(69.1875 93.104809) scale(0.1 -0.1)">
       <defs>
        <path id="DejaVuSans-36" d="M 2113 2584 
Q 1688 2584 1439 2293 
Q 1191 2003 1191 1497 
Q 1191 994 1439 701 
Q 1688 409 2113 409 
Q 2538 409 2786 701 
Q 3034 994 3034 1497 
Q 3034 2003 2786 2293 
Q 2538 2584 2113 2584 
z
M 3366 4563 
L 3366 3988 
Q 3128 4100 2886 4159 
Q 2644 4219 2406 4219 
Q 1781 4219 1451 3797 
Q 1122 3375 1075 2522 
Q 1259 2794 1537 2939 
Q 1816 3084 2150 3084 
Q 2853 3084 3261 2657 
Q 3669 2231 3669 1497 
Q 3669 778 3244 343 
Q 2819 -91 2113 -91 
Q 1303 -91 875 529 
Q 447 1150 447 2328 
Q 447 3434 972 4092 
Q 1497 4750 2381 4750 
Q 2619 4750 2861 4703 
Q 3103 4656 3366 4563 
z
" transform="scale(0.015625)"/>
       </defs>
       <use xlink:href="#DejaVuSans-36"/>
       <use xlink:href="#DejaVuSans-30" x="63.623047"/>
       <use xlink:href="#DejaVuSans-30" x="127.246094"/>
       <use xlink:href="#DejaVuSans-30" x="190.869141"/>
       <use xlink:href="#DejaVuSans-30" x="254.492188"/>
      </g>
     </g>
    </g>
    <g id="ytick_5">
     <g id="line2d_8">
      <g>
       <use xlink:href="#ma90918a658" x="108" y="41.064232" style="stroke: #000000; stroke-width: 0.8"/>
      </g>
     </g>
     <g id="text_9">
      <!-- 80000 -->
      <g transform="translate(69.1875 44.863451) scale(0.1 -0.1)">
       <defs>
        <path id="DejaVuSans-38" d="M 2034 2216 
Q 1584 2216 1326 1975 
Q 1069 1734 1069 1313 
Q 1069 891 1326 650 
Q 1584 409 2034 409 
Q 2484 409 2743 651 
Q 3003 894 3003 1313 
Q 3003 1734 2745 1975 
Q 2488 2216 2034 2216 
z
M 1403 2484 
Q 997 2584 770 2862 
Q 544 3141 544 3541 
Q 544 4100 942 4425 
Q 1341 4750 2034 4750 
Q 2731 4750 3128 4425 
Q 3525 4100 3525 3541 
Q 3525 3141 3298 2862 
Q 3072 2584 2669 2484 
Q 3125 2378 3379 2068 
Q 3634 1759 3634 1313 
Q 3634 634 3220 271 
Q 2806 -91 2034 -91 
Q 1263 -91 848 271 
Q 434 634 434 1313 
Q 434 1759 690 2068 
Q 947 2378 1403 2484 
z
M 1172 3481 
Q 1172 3119 1398 2916 
Q 1625 2713 2034 2713 
Q 2441 2713 2670 2916 
Q 2900 3119 2900 3481 
Q 2900 3844 2670 4047 
Q 2441 4250 2034 4250 
Q 1625 4250 1398 4047 
Q 1172 3844 1172 3481 
z
" transform="scale(0.015625)"/>
       </defs>
       <use xlink:href="#DejaVuSans-38"/>
       <use xlink:href="#DejaVuSans-30" x="63.623047"/>
       <use xlink:href="#DejaVuSans-30" x="127.246094"/>
       <use xlink:href="#DejaVuSans-30" x="190.869141"/>
       <use xlink:href="#DejaVuSans-30" x="254.492188"/>
      </g>
     </g>
    </g>
    <g id="text_10">
     <!-- Milk -->
     <g transform="translate(63.107813 155.4275) rotate(-90) scale(0.1 -0.1)">
      <defs>
       <path id="DejaVuSans-4d" d="M 628 4666 
L 1569 4666 
L 2759 1491 
L 3956 4666 
L 4897 4666 
L 4897 0 
L 4281 0 
L 4281 4097 
L 3078 897 
L 2444 897 
L 1241 4097 
L 1241 0 
L 628 0 
L 628 4666 
z
" transform="scale(0.015625)"/>
       <path id="DejaVuSans-6c" d="M 603 4863 
L 1178 4863 
L 1178 0 
L 603 0 
L 603 4863 
z
" transform="scale(0.015625)"/>
       <path id="DejaVuSans-6b" d="M 581 4863 
L 1159 4863 
L 1159 1991 
L 2875 3500 
L 3609 3500 
L 1753 1863 
L 3688 0 
L 2938 0 
L 1159 1709 
L 1159 0 
L 581 0 
L 581 4863 
z
" transform="scale(0.015625)"/>
      </defs>
      <use xlink:href="#DejaVuSans-4d"/>
      <use xlink:href="#DejaVuSans-69" x="86.279297"/>
      <use xlink:href="#DejaVuSans-6c" x="114.0625"/>
      <use xlink:href="#DejaVuSans-6b" x="141.845703"/>
     </g>
    </g>
   </g>
   <g id="line2d_9">
    <path d="M 219.6 233.407348 
L 219.6 193.991747 
" clip-path="url(#p9364025360)" style="fill: none; stroke: #6a6a6a; stroke-width: 1.875; stroke-linecap: square"/>
   </g>
   <g id="line2d_10">
    <path d="M 219.6 230.720305 
L 219.6 215.931917 
" clip-path="url(#p9364025360)" style="fill: none; stroke: #6a6a6a; stroke-width: 5.625; stroke-linecap: square"/>
   </g>
   <g id="line2d_11">
    <path d="M 219.6 224.989232 
" clip-path="url(#p9364025360)" style="fill: none; stroke: #6a6a6a; stroke-width: 1.5; stroke-linecap: square"/>
    <defs>
     <path id="m74b9a79d0e" d="M 2.34375 0 
L -2.34375 -0 
" style="stroke: #ffffff; stroke-width: 1.125"/>
    </defs>
    <g clip-path="url(#p9364025360)">
     <use xlink:href="#m74b9a79d0e" x="219.6" y="224.989232" style="fill: #ffffff; stroke: #ffffff; stroke-width: 1.125"/>
    </g>
   </g>
   <g id="line2d_12">
    <path d="M 442.8 233.226443 
L 442.8 207.248472 
" clip-path="url(#p9364025360)" style="fill: none; stroke: #6a6a6a; stroke-width: 1.875; stroke-linecap: square"/>
   </g>
   <g id="line2d_13">
    <path d="M 442.8 230.579199 
L 442.8 220.106 
" clip-path="url(#p9364025360)" style="fill: none; stroke: #6a6a6a; stroke-width: 5.625; stroke-linecap: square"/>
   </g>
   <g id="line2d_14">
    <path d="M 442.8 228.303413 
" clip-path="url(#p9364025360)" style="fill: none; stroke: #6a6a6a; stroke-width: 1.5; stroke-linecap: square"/>
    <g clip-path="url(#p9364025360)">
     <use xlink:href="#m74b9a79d0e" x="442.8" y="228.303413" style="fill: #ffffff; stroke: #ffffff; stroke-width: 1.125"/>
    </g>
   </g>
   <g id="line2d_15">
    <path d="M 666 233.896998 
L 666 196.671555 
" clip-path="url(#p9364025360)" style="fill: none; stroke: #6a6a6a; stroke-width: 1.875; stroke-linecap: square"/>
   </g>
   <g id="line2d_16">
    <path d="M 666 230.088343 
L 666 216.665788 
" clip-path="url(#p9364025360)" style="fill: none; stroke: #6a6a6a; stroke-width: 5.625; stroke-linecap: square"/>
   </g>
   <g id="line2d_17">
    <path d="M 666 225.142398 
" clip-path="url(#p9364025360)" style="fill: none; stroke: #6a6a6a; stroke-width: 1.5; stroke-linecap: square"/>
    <g clip-path="url(#p9364025360)">
     <use xlink:href="#m74b9a79d0e" x="666" y="225.142398" style="fill: #ffffff; stroke: #ffffff; stroke-width: 1.125"/>
    </g>
   </g>
   <g id="patch_6">
    <path d="M 108 256.32 
L 108 34.56 
" style="fill: none; stroke: #000000; stroke-width: 0.8; stroke-linejoin: miter; stroke-linecap: square"/>
   </g>
   <g id="patch_7">
    <path d="M 777.6 256.32 
L 777.6 34.56 
" style="fill: none; stroke: #000000; stroke-width: 0.8; stroke-linejoin: miter; stroke-linecap: square"/>
   </g>
   <g id="patch_8">
    <path d="M 108 256.32 
L 777.6 256.32 
" style="fill: none; stroke: #000000; stroke-width: 0.8; stroke-linejoin: miter; stroke-linecap: square"/>
   </g>
   <g id="patch_9">
    <path d="M 108 34.56 
L 777.6 34.56 
" style="fill: none; stroke: #000000; stroke-width: 0.8; stroke-linejoin: miter; stroke-linecap: square"/>
   </g>
   <g id="text_11">
    <!-- Milk Spending Distribution by Region -->
    <g transform="translate(332.084063 28.56) scale(0.12 -0.12)">
     <defs>
      <path id="DejaVuSans-20" transform="scale(0.015625)"/>
      <path id="DejaVuSans-53" d="M 3425 4513 
L 3425 3897 
Q 3066 4069 2747 4153 
Q 2428 4238 2131 4238 
Q 1616 4238 1336 4038 
Q 1056 3838 1056 3469 
Q 1056 3159 1242 3001 
Q 1428 2844 1947 2747 
L 2328 2669 
Q 3034 2534 3370 2195 
Q 3706 1856 3706 1288 
Q 3706 609 3251 259 
Q 2797 -91 1919 -91 
Q 1588 -91 1214 -16 
Q 841 59 441 206 
L 441 856 
Q 825 641 1194 531 
Q 1563 422 1919 422 
Q 2459 422 2753 634 
Q 3047 847 3047 1241 
Q 3047 1584 2836 1778 
Q 2625 1972 2144 2069 
L 1759 2144 
Q 1053 2284 737 2584 
Q 422 2884 422 3419 
Q 422 4038 858 4394 
Q 1294 4750 2059 4750 
Q 2388 4750 2728 4690 
Q 3069 4631 3425 4513 
z
" transform="scale(0.015625)"/>
      <path id="DejaVuSans-70" d="M 1159 525 
L 1159 -1331 
L 581 -1331 
L 581 3500 
L 1159 3500 
L 1159 2969 
Q 1341 3281 1617 3432 
Q 1894 3584 2278 3584 
Q 2916 3584 3314 3078 
Q 3713 2572 3713 1747 
Q 3713 922 3314 415 
Q 2916 -91 2278 -91 
Q 1894 -91 1617 61 
Q 1341 213 1159 525 
z
M 3116 1747 
Q 3116 2381 2855 2742 
Q 2594 3103 2138 3103 
Q 1681 3103 1420 2742 
Q 1159 2381 1159 1747 
Q 1159 1113 1420 752 
Q 1681 391 2138 391 
Q 2594 391 2855 752 
Q 3116 1113 3116 1747 
z
" transform="scale(0.015625)"/>
      <path id="DejaVuSans-64" d="M 2906 2969 
L 2906 4863 
L 3481 4863 
L 3481 0 
L 2906 0 
L 2906 525 
Q 2725 213 2448 61 
Q 2172 -91 1784 -91 
Q 1150 -91 751 415 
Q 353 922 353 1747 
Q 353 2572 751 3078 
Q 1150 3584 1784 3584 
Q 2172 3584 2448 3432 
Q 2725 3281 2906 2969 
z
M 947 1747 
Q 947 1113 1208 752 
Q 1469 391 1925 391 
Q 2381 391 2643 752 
Q 2906 1113 2906 1747 
Q 2906 2381 2643 2742 
Q 2381 3103 1925 3103 
Q 1469 3103 1208 2742 
Q 947 2381 947 1747 
z
" transform="scale(0.015625)"/>
      <path id="DejaVuSans-44" d="M 1259 4147 
L 1259 519 
L 2022 519 
Q 2988 519 3436 956 
Q 3884 1394 3884 2338 
Q 3884 3275 3436 3711 
Q 2988 4147 2022 4147 
L 1259 4147 
z
M 628 4666 
L 1925 4666 
Q 3281 4666 3915 4102 
Q 4550 3538 4550 2338 
Q 4550 1131 3912 565 
Q 3275 0 1925 0 
L 628 0 
L 628 4666 
z
" transform="scale(0.015625)"/>
      <path id="DejaVuSans-73" d="M 2834 3397 
L 2834 2853 
Q 2591 2978 2328 3040 
Q 2066 3103 1784 3103 
Q 1356 3103 1142 2972 
Q 928 2841 928 2578 
Q 928 2378 1081 2264 
Q 1234 2150 1697 2047 
L 1894 2003 
Q 2506 1872 2764 1633 
Q 3022 1394 3022 966 
Q 3022 478 2636 193 
Q 2250 -91 1575 -91 
Q 1294 -91 989 -36 
Q 684 19 347 128 
L 347 722 
Q 666 556 975 473 
Q 1284 391 1588 391 
Q 1994 391 2212 530 
Q 2431 669 2431 922 
Q 2431 1156 2273 1281 
Q 2116 1406 1581 1522 
L 1381 1569 
Q 847 1681 609 1914 
Q 372 2147 372 2553 
Q 372 3047 722 3315 
Q 1072 3584 1716 3584 
Q 2034 3584 2315 3537 
Q 2597 3491 2834 3397 
z
" transform="scale(0.015625)"/>
      <path id="DejaVuSans-74" d="M 1172 4494 
L 1172 3500 
L 2356 3500 
L 2356 3053 
L 1172 3053 
L 1172 1153 
Q 1172 725 1289 603 
Q 1406 481 1766 481 
L 2356 481 
L 2356 0 
L 1766 0 
Q 1100 0 847 248 
Q 594 497 594 1153 
L 594 3053 
L 172 3053 
L 172 3500 
L 594 3500 
L 594 4494 
L 1172 4494 
z
" transform="scale(0.015625)"/>
      <path id="DejaVuSans-72" d="M 2631 2963 
Q 2534 3019 2420 3045 
Q 2306 3072 2169 3072 
Q 1681 3072 1420 2755 
Q 1159 2438 1159 1844 
L 1159 0 
L 581 0 
L 581 3500 
L 1159 3500 
L 1159 2956 
Q 1341 3275 1631 3429 
Q 1922 3584 2338 3584 
Q 2397 3584 2469 3576 
Q 2541 3569 2628 3553 
L 2631 2963 
z
" transform="scale(0.015625)"/>
      <path id="DejaVuSans-62" d="M 3116 1747 
Q 3116 2381 2855 2742 
Q 2594 3103 2138 3103 
Q 1681 3103 1420 2742 
Q 1159 2381 1159 1747 
Q 1159 1113 1420 752 
Q 1681 391 2138 391 
Q 2594 391 2855 752 
Q 3116 1113 3116 1747 
z
M 1159 2969 
Q 1341 3281 1617 3432 
Q 1894 3584 2278 3584 
Q 2916 3584 3314 3078 
Q 3713 2572 3713 1747 
Q 3713 922 3314 415 
Q 2916 -91 2278 -91 
Q 1894 -91 1617 61 
Q 1341 213 1159 525 
L 1159 0 
L 581 0 
L 581 4863 
L 1159 4863 
L 1159 2969 
z
" transform="scale(0.015625)"/>
      <path id="DejaVuSans-75" d="M 544 1381 
L 544 3500 
L 1119 3500 
L 1119 1403 
Q 1119 906 1312 657 
Q 1506 409 1894 409 
Q 2359 409 2629 706 
Q 2900 1003 2900 1516 
L 2900 3500 
L 3475 3500 
L 3475 0 
L 2900 0 
L 2900 538 
Q 2691 219 2414 64 
Q 2138 -91 1772 -91 
Q 1169 -91 856 284 
Q 544 659 544 1381 
z
M 1991 3584 
L 1991 3584 
z
" transform="scale(0.015625)"/>
      <path id="DejaVuSans-79" d="M 2059 -325 
Q 1816 -950 1584 -1140 
Q 1353 -1331 966 -1331 
L 506 -1331 
L 506 -850 
L 844 -850 
Q 1081 -850 1212 -737 
Q 1344 -625 1503 -206 
L 1606 56 
L 191 3500 
L 800 3500 
L 1894 763 
L 2988 3500 
L 3597 3500 
L 2059 -325 
z
" transform="scale(0.015625)"/>
     </defs>
     <use xlink:href="#DejaVuSans-4d"/>
     <use xlink:href="#DejaVuSans-69" x="86.279297"/>
     <use xlink:href="#DejaVuSans-6c" x="114.0625"/>
     <use xlink:href="#DejaVuSans-6b" x="141.845703"/>
     <use xlink:href="#DejaVuSans-20" x="199.755859"/>
     <use xlink:href="#DejaVuSans-53" x="231.542969"/>
     <use xlink:href="#DejaVuSans-70" x="295.019531"/>
     <use xlink:href="#DejaVuSans-65" x="358.496094"/>
     <use xlink:href="#DejaVuSans-6e" x="420.019531"/>
     <use xlink:href="#DejaVuSans-64" x="483.398438"/>
     <use xlink:href="#DejaVuSans-69" x="546.875"/>
     <use xlink:href="#DejaVuSans-6e" x="574.658203"/>
     <use xlink:href="#DejaVuSans-67" x="638.037109"/>
     <use xlink:href="#DejaVuSans-20" x="701.513672"/>
     <use xlink:href="#DejaVuSans-44" x="733.300781"/>
     <use xlink:href="#DejaVuSans-69" x="810.302734"/>
     <use xlink:href="#DejaVuSans-73" x="838.085938"/>
     <use xlink:href="#DejaVuSans-74" x="890.185547"/>
     <use xlink:href="#DejaVuSans-72" x="929.394531"/>
     <use xlink:href="#DejaVuSans-69" x="970.507812"/>
     <use xlink:href="#DejaVuSans-62" x="998.291016"/>
     <use xlink:href="#DejaVuSans-75" x="1061.767578"/>
     <use xlink:href="#DejaVuSans-74" x="1125.146484"/>
     <use xlink:href="#DejaVuSans-69" x="1164.355469"/>
     <use xlink:href="#DejaVuSans-6f" x="1192.138672"/>
     <use xlink:href="#DejaVuSans-6e" x="1253.320312"/>
     <use xlink:href="#DejaVuSans-20" x="1316.699219"/>
     <use xlink:href="#DejaVuSans-62" x="1348.486328"/>
     <use xlink:href="#DejaVuSans-79" x="1411.962891"/>
     <use xlink:href="#DejaVuSans-20" x="1471.142578"/>
     <use xlink:href="#DejaVuSans-52" x="1502.929688"/>
     <use xlink:href="#DejaVuSans-65" x="1567.912109"/>
     <use xlink:href="#DejaVuSans-67" x="1629.435547"/>
     <use xlink:href="#DejaVuSans-69" x="1692.912109"/>
     <use xlink:href="#DejaVuSans-6f" x="1720.695312"/>
     <use xlink:href="#DejaVuSans-6e" x="1781.876953"/>
    </g>
   </g>
   <g id="legend_1">
    <g id="patch_10">
     <path d="M 732.2375 101.2725 
L 770.6 101.2725 
Q 772.6 101.2725 772.6 99.2725 
L 772.6 41.56 
Q 772.6 39.56 770.6 39.56 
L 732.2375 39.56 
Q 730.2375 39.56 730.2375 41.56 
L 730.2375 99.2725 
Q 730.2375 101.2725 732.2375 101.2725 
z
" style="fill: #ffffff; opacity: 0.8; stroke: #cccccc; stroke-linejoin: miter"/>
    </g>
    <g id="text_12">
     <!-- Region -->
     <g transform="translate(734.301563 51.158438) scale(0.1 -0.1)">
      <use xlink:href="#DejaVuSans-52"/>
      <use xlink:href="#DejaVuSans-65" x="64.982422"/>
      <use xlink:href="#DejaVuSans-67" x="126.505859"/>
      <use xlink:href="#DejaVuSans-69" x="189.982422"/>
      <use xlink:href="#DejaVuSans-6f" x="217.765625"/>
      <use xlink:href="#DejaVuSans-6e" x="278.947266"/>
     </g>
    </g>
    <g id="patch_11">
     <path d="M 734.2375 65.836563 
L 754.2375 65.836563 
L 754.2375 58.836563 
L 734.2375 58.836563 
z
" style="fill: #96cac1; stroke: #6a6a6a; stroke-width: 1.25; stroke-linejoin: miter"/>
    </g>
    <g id="text_13">
     <!-- 1 -->
     <g transform="translate(762.2375 65.836563) scale(0.1 -0.1)">
      <use xlink:href="#DejaVuSans-31"/>
     </g>
    </g>
    <g id="patch_12">
     <path d="M 734.2375 80.514688 
L 754.2375 80.514688 
L 754.2375 73.514688 
L 734.2375 73.514688 
z
" style="fill: #f6f6bc; stroke: #6a6a6a; stroke-width: 1.25; stroke-linejoin: miter"/>
    </g>
    <g id="text_14">
     <!-- 2 -->
     <g transform="translate(762.2375 80.514688) scale(0.1 -0.1)">
      <use xlink:href="#DejaVuSans-32"/>
     </g>
    </g>
    <g id="patch_13">
     <path d="M 734.2375 95.192813 
L 754.2375 95.192813 
L 754.2375 88.192813 
L 734.2375 88.192813 
z
" style="fill: #c1bed6; stroke: #6a6a6a; stroke-width: 1.25; stroke-linejoin: miter"/>
    </g>
    <g id="text_15">
     <!-- 3 -->
     <g transform="translate(762.2375 95.192813) scale(0.1 -0.1)">
      <use xlink:href="#DejaVuSans-33"/>
     </g>
    </g>
   </g>
  </g>
 </g>
 <defs>
  <clipPath id="p9364025360">
   <rect x="108" y="34.56" width="669.6" height="221.76"/>
  </clipPath>
 </defs>
</svg>
