<?xml version="1.0" encoding="utf-8" standalone="no"?>
<!DOCTYPE svg PUBLIC "-//W3C//DTD SVG 1.1//EN"
  "http://www.w3.org/Graphics/SVG/1.1/DTD/svg11.dtd">
<svg xmlns:xlink="http://www.w3.org/1999/xlink" width="720pt" height="432pt" viewBox="0 0 720 432" xmlns="http://www.w3.org/2000/svg" version="1.1">
 <metadata>
  <rdf:RDF xmlns:dc="http://purl.org/dc/elements/1.1/" xmlns:cc="http://creativecommons.org/ns#" xmlns:rdf="http://www.w3.org/1999/02/22-rdf-syntax-ns#">
   <cc:Work>
    <dc:type rdf:resource="http://purl.org/dc/dcmitype/StillImage"/>
    <dc:date>2025-04-27T13:32:59.466595</dc:date>
    <dc:format>image/svg+xml</dc:format>
    <dc:creator>
     <cc:Agent>
      <dc:title>Matplotlib v3.9.2, https://matplotlib.org/</dc:title>
     </cc:Agent>
    </dc:creator>
   </cc:Work>
  </rdf:RDF>
 </metadata>
 <defs>
  <style type="text/css">*{stroke-linejoin: round; stroke-linecap: butt}</style>
 </defs>
 <g id="figure_1">
  <g id="patch_1">
   <path d="M 0 432 
L 720 432 
L 720 0 
L 0 0 
z
" style="fill: #ffffff"/>
  </g>
  <g id="axes_1">
   <g id="patch_2">
    <path d="M 90 384.48 
L 648 384.48 
L 648 51.84 
L 90 51.84 
z
" style="fill: #ffffff"/>
   </g>
   <g id="patch_3">
    <path d="M 95.072727 384.48 
L 135.654545 384.48 
L 135.654545 312.56987 
L 95.072727 312.56987 
z
" clip-path="url(#p400893d6b1)" style="fill: #72b6a1"/>
   </g>
   <g id="patch_4">
    <path d="M 145.8 384.48 
L 186.381818 384.48 
L 186.381818 296.901646 
L 145.8 296.901646 
z
" clip-path="url(#p400893d6b1)" style="fill: #e99675"/>
   </g>
   <g id="patch_5">
    <path d="M 196.527273 384.48 
L 237.109091 384.48 
L 237.109091 335.727802 
L 196.527273 335.727802 
z
" clip-path="url(#p400893d6b1)" style="fill: #95a3c3"/>
   </g>
   <g id="patch_6">
    <path d="M 247.254545 384.48 
L 287.836364 384.48 
L 287.836364 310.837223 
L 247.254545 310.837223 
z
" clip-path="url(#p400893d6b1)" style="fill: #db96c0"/>
   </g>
   <g id="patch_7">
    <path d="M 297.981818 384.48 
L 338.563636 384.48 
L 338.563636 142.983141 
L 297.981818 142.983141 
z
" clip-path="url(#p400893d6b1)" style="fill: #a2c865"/>
   </g>
   <g id="patch_8">
    <path d="M 348.709091 384.48 
L 389.290909 384.48 
L 389.290909 363.733266 
L 348.709091 363.733266 
z
" clip-path="url(#p400893d6b1)" style="fill: #e5c849"/>
   </g>
   <g id="patch_9">
    <path d="M 399.436364 384.48 
L 440.018182 384.48 
L 440.018182 306.956663 
L 399.436364 306.956663 
z
" clip-path="url(#p400893d6b1)" style="fill: #dbc29e"/>
   </g>
   <g id="patch_10">
    <path d="M 450.163636 384.48 
L 490.745455 384.48 
L 490.745455 348.764104 
L 450.163636 348.764104 
z
" clip-path="url(#p400893d6b1)" style="fill: #b3b3b3"/>
   </g>
   <g id="patch_11">
    <path d="M 500.890909 384.48 
L 541.472727 384.48 
L 541.472727 291.116415 
L 500.890909 291.116415 
z
" clip-path="url(#p400893d6b1)" style="fill: #72b6a1"/>
   </g>
   <g id="patch_12">
    <path d="M 551.618182 384.48 
L 592.2 384.48 
L 592.2 151.433777 
L 551.618182 151.433777 
z
" clip-path="url(#p400893d6b1)" style="fill: #e99675"/>
   </g>
   <g id="patch_13">
    <path d="M 602.345455 384.48 
L 642.927273 384.48 
L 642.927273 283.582593 
L 602.345455 283.582593 
z
" clip-path="url(#p400893d6b1)" style="fill: #95a3c3"/>
   </g>
   <g id="matplotlib.axis_1">
    <g id="xtick_1">
     <g id="line2d_1">
      <defs>
       <path id="m32d81bde94" d="M 0 0 
L 0 3.5 
" style="stroke: #000000; stroke-width: 0.8"/>
      </defs>
      <g>
       <use xlink:href="#m32d81bde94" x="115.363636" y="384.48" style="stroke: #000000; stroke-width: 0.8"/>
      </g>
     </g>
     <g id="text_1">
      <!-- ASIA (EX. NEAR EAST)          -->
      <g transform="translate(118.123011 529.951875) rotate(-90) scale(0.1 -0.1)">
       <defs>
        <path id="DejaVuSans-41" d="M 2188 4044 
L 1331 1722 
L 3047 1722 
L 2188 4044 
z
M 1831 4666 
L 2547 4666 
L 4325 0 
L 3669 0 
L 3244 1197 
L 1141 1197 
L 716 0 
L 50 0 
L 1831 4666 
z
" transform="scale(0.015625)"/>
        <path id="DejaVuSans-53" d="M 3425 4513 
L 3425 3897 
Q 3066 4069 2747 4153 
Q 2428 4238 2131 4238 
Q 1616 4238 1336 4038 
Q 1056 3838 1056 3469 
Q 1056 3159 1242 3001 
Q 1428 2844 1947 2747 
L 2328 2669 
Q 3034 2534 3370 2195 
Q 3706 1856 3706 1288 
Q 3706 609 3251 259 
Q 2797 -91 1919 -91 
Q 1588 -91 1214 -16 
Q 841 59 441 206 
L 441 856 
Q 825 641 1194 531 
Q 1563 422 1919 422 
Q 2459 422 2753 634 
Q 3047 847 3047 1241 
Q 3047 1584 2836 1778 
Q 2625 1972 2144 2069 
L 1759 2144 
Q 1053 2284 737 2584 
Q 422 2884 422 3419 
Q 422 4038 858 4394 
Q 1294 4750 2059 4750 
Q 2388 4750 2728 4690 
Q 3069 4631 3425 4513 
z
" transform="scale(0.015625)"/>
        <path id="DejaVuSans-49" d="M 628 4666 
L 1259 4666 
L 1259 0 
L 628 0 
L 628 4666 
z
" transform="scale(0.015625)"/>
        <path id="DejaVuSans-20" transform="scale(0.015625)"/>
        <path id="DejaVuSans-28" d="M 1984 4856 
Q 1566 4138 1362 3434 
Q 1159 2731 1159 2009 
Q 1159 1288 1364 580 
Q 1569 -128 1984 -844 
L 1484 -844 
Q 1016 -109 783 600 
Q 550 1309 550 2009 
Q 550 2706 781 3412 
Q 1013 4119 1484 4856 
L 1984 4856 
z
" transform="scale(0.015625)"/>
        <path id="DejaVuSans-45" d="M 628 4666 
L 3578 4666 
L 3578 4134 
L 1259 4134 
L 1259 2753 
L 3481 2753 
L 3481 2222 
L 1259 2222 
L 1259 531 
L 3634 531 
L 3634 0 
L 628 0 
L 628 4666 
z
" transform="scale(0.015625)"/>
        <path id="DejaVuSans-58" d="M 403 4666 
L 1081 4666 
L 2241 2931 
L 3406 4666 
L 4084 4666 
L 2584 2425 
L 4184 0 
L 3506 0 
L 2194 1984 
L 872 0 
L 191 0 
L 1856 2491 
L 403 4666 
z
" transform="scale(0.015625)"/>
        <path id="DejaVuSans-2e" d="M 684 794 
L 1344 794 
L 1344 0 
L 684 0 
L 684 794 
z
" transform="scale(0.015625)"/>
        <path id="DejaVuSans-4e" d="M 628 4666 
L 1478 4666 
L 3547 763 
L 3547 4666 
L 4159 4666 
L 4159 0 
L 3309 0 
L 1241 3903 
L 1241 0 
L 628 0 
L 628 4666 
z
" transform="scale(0.015625)"/>
        <path id="DejaVuSans-52" d="M 2841 2188 
Q 3044 2119 3236 1894 
Q 3428 1669 3622 1275 
L 4263 0 
L 3584 0 
L 2988 1197 
Q 2756 1666 2539 1819 
Q 2322 1972 1947 1972 
L 1259 1972 
L 1259 0 
L 628 0 
L 628 4666 
L 2053 4666 
Q 2853 4666 3247 4331 
Q 3641 3997 3641 3322 
Q 3641 2881 3436 2590 
Q 3231 2300 2841 2188 
z
M 1259 4147 
L 1259 2491 
L 2053 2491 
Q 2509 2491 2742 2702 
Q 2975 2913 2975 3322 
Q 2975 3731 2742 3939 
Q 2509 4147 2053 4147 
L 1259 4147 
z
" transform="scale(0.015625)"/>
        <path id="DejaVuSans-54" d="M -19 4666 
L 3928 4666 
L 3928 4134 
L 2272 4134 
L 2272 0 
L 1638 0 
L 1638 4134 
L -19 4134 
L -19 4666 
z
" transform="scale(0.015625)"/>
        <path id="DejaVuSans-29" d="M 513 4856 
L 1013 4856 
Q 1481 4119 1714 3412 
Q 1947 2706 1947 2009 
Q 1947 1309 1714 600 
Q 1481 -109 1013 -844 
L 513 -844 
Q 928 -128 1133 580 
Q 1338 1288 1338 2009 
Q 1338 2731 1133 3434 
Q 928 4138 513 4856 
z
" transform="scale(0.015625)"/>
       </defs>
       <use xlink:href="#DejaVuSans-41"/>
       <use xlink:href="#DejaVuSans-53" x="68.408203"/>
       <use xlink:href="#DejaVuSans-49" x="131.884766"/>
       <use xlink:href="#DejaVuSans-41" x="161.376953"/>
       <use xlink:href="#DejaVuSans-20" x="229.785156"/>
       <use xlink:href="#DejaVuSans-28" x="261.572266"/>
       <use xlink:href="#DejaVuSans-45" x="300.585938"/>
       <use xlink:href="#DejaVuSans-58" x="363.769531"/>
       <use xlink:href="#DejaVuSans-2e" x="432.275391"/>
       <use xlink:href="#DejaVuSans-20" x="464.0625"/>
       <use xlink:href="#DejaVuSans-4e" x="495.849609"/>
       <use xlink:href="#DejaVuSans-45" x="570.654297"/>
       <use xlink:href="#DejaVuSans-41" x="633.837891"/>
       <use xlink:href="#DejaVuSans-52" x="702.246094"/>
       <use xlink:href="#DejaVuSans-20" x="771.728516"/>
       <use xlink:href="#DejaVuSans-45" x="803.515625"/>
       <use xlink:href="#DejaVuSans-41" x="866.699219"/>
       <use xlink:href="#DejaVuSans-53" x="935.107422"/>
       <use xlink:href="#DejaVuSans-54" x="998.583984"/>
       <use xlink:href="#DejaVuSans-29" x="1059.667969"/>
       <use xlink:href="#DejaVuSans-20" x="1098.681641"/>
       <use xlink:href="#DejaVuSans-20" x="1130.46875"/>
       <use xlink:href="#DejaVuSans-20" x="1162.255859"/>
       <use xlink:href="#DejaVuSans-20" x="1194.042969"/>
       <use xlink:href="#DejaVuSans-20" x="1225.830078"/>
       <use xlink:href="#DejaVuSans-20" x="1257.617188"/>
       <use xlink:href="#DejaVuSans-20" x="1289.404297"/>
       <use xlink:href="#DejaVuSans-20" x="1321.191406"/>
       <use xlink:href="#DejaVuSans-20" x="1352.978516"/>
      </g>
     </g>
    </g>
    <g id="xtick_2">
     <g id="line2d_2">
      <g>
       <use xlink:href="#m32d81bde94" x="166.090909" y="384.48" style="stroke: #000000; stroke-width: 0.8"/>
      </g>
     </g>
     <g id="text_2">
      <!-- EASTERN EUROPE                      -->
      <g transform="translate(168.850284 548.569062) rotate(-90) scale(0.1 -0.1)">
       <defs>
        <path id="DejaVuSans-55" d="M 556 4666 
L 1191 4666 
L 1191 1831 
Q 1191 1081 1462 751 
Q 1734 422 2344 422 
Q 2950 422 3222 751 
Q 3494 1081 3494 1831 
L 3494 4666 
L 4128 4666 
L 4128 1753 
Q 4128 841 3676 375 
Q 3225 -91 2344 -91 
Q 1459 -91 1007 375 
Q 556 841 556 1753 
L 556 4666 
z
" transform="scale(0.015625)"/>
        <path id="DejaVuSans-4f" d="M 2522 4238 
Q 1834 4238 1429 3725 
Q 1025 3213 1025 2328 
Q 1025 1447 1429 934 
Q 1834 422 2522 422 
Q 3209 422 3611 934 
Q 4013 1447 4013 2328 
Q 4013 3213 3611 3725 
Q 3209 4238 2522 4238 
z
M 2522 4750 
Q 3503 4750 4090 4092 
Q 4678 3434 4678 2328 
Q 4678 1225 4090 567 
Q 3503 -91 2522 -91 
Q 1538 -91 948 565 
Q 359 1222 359 2328 
Q 359 3434 948 4092 
Q 1538 4750 2522 4750 
z
" transform="scale(0.015625)"/>
        <path id="DejaVuSans-50" d="M 1259 4147 
L 1259 2394 
L 2053 2394 
Q 2494 2394 2734 2622 
Q 2975 2850 2975 3272 
Q 2975 3691 2734 3919 
Q 2494 4147 2053 4147 
L 1259 4147 
z
M 628 4666 
L 2053 4666 
Q 2838 4666 3239 4311 
Q 3641 3956 3641 3272 
Q 3641 2581 3239 2228 
Q 2838 1875 2053 1875 
L 1259 1875 
L 1259 0 
L 628 0 
L 628 4666 
z
" transform="scale(0.015625)"/>
       </defs>
       <use xlink:href="#DejaVuSans-45"/>
       <use xlink:href="#DejaVuSans-41" x="63.183594"/>
       <use xlink:href="#DejaVuSans-53" x="131.591797"/>
       <use xlink:href="#DejaVuSans-54" x="195.068359"/>
       <use xlink:href="#DejaVuSans-45" x="256.152344"/>
       <use xlink:href="#DejaVuSans-52" x="319.335938"/>
       <use xlink:href="#DejaVuSans-4e" x="388.818359"/>
       <use xlink:href="#DejaVuSans-20" x="463.623047"/>
       <use xlink:href="#DejaVuSans-45" x="495.410156"/>
       <use xlink:href="#DejaVuSans-55" x="558.59375"/>
       <use xlink:href="#DejaVuSans-52" x="631.787109"/>
       <use xlink:href="#DejaVuSans-4f" x="701.269531"/>
       <use xlink:href="#DejaVuSans-50" x="779.980469"/>
       <use xlink:href="#DejaVuSans-45" x="840.283203"/>
       <use xlink:href="#DejaVuSans-20" x="903.466797"/>
       <use xlink:href="#DejaVuSans-20" x="935.253906"/>
       <use xlink:href="#DejaVuSans-20" x="967.041016"/>
       <use xlink:href="#DejaVuSans-20" x="998.828125"/>
       <use xlink:href="#DejaVuSans-20" x="1030.615234"/>
       <use xlink:href="#DejaVuSans-20" x="1062.402344"/>
       <use xlink:href="#DejaVuSans-20" x="1094.189453"/>
       <use xlink:href="#DejaVuSans-20" x="1125.976562"/>
       <use xlink:href="#DejaVuSans-20" x="1157.763672"/>
       <use xlink:href="#DejaVuSans-20" x="1189.550781"/>
       <use xlink:href="#DejaVuSans-20" x="1221.337891"/>
       <use xlink:href="#DejaVuSans-20" x="1253.125"/>
       <use xlink:href="#DejaVuSans-20" x="1284.912109"/>
       <use xlink:href="#DejaVuSans-20" x="1316.699219"/>
       <use xlink:href="#DejaVuSans-20" x="1348.486328"/>
       <use xlink:href="#DejaVuSans-20" x="1380.273438"/>
       <use xlink:href="#DejaVuSans-20" x="1412.060547"/>
       <use xlink:href="#DejaVuSans-20" x="1443.847656"/>
       <use xlink:href="#DejaVuSans-20" x="1475.634766"/>
       <use xlink:href="#DejaVuSans-20" x="1507.421875"/>
       <use xlink:href="#DejaVuSans-20" x="1539.208984"/>
      </g>
     </g>
    </g>
    <g id="xtick_3">
     <g id="line2d_3">
      <g>
       <use xlink:href="#m32d81bde94" x="216.818182" y="384.48" style="stroke: #000000; stroke-width: 0.8"/>
      </g>
     </g>
     <g id="text_3">
      <!-- NORTHERN AFRICA                     -->
      <g transform="translate(219.577557 550.487813) rotate(-90) scale(0.1 -0.1)">
       <defs>
        <path id="DejaVuSans-48" d="M 628 4666 
L 1259 4666 
L 1259 2753 
L 3553 2753 
L 3553 4666 
L 4184 4666 
L 4184 0 
L 3553 0 
L 3553 2222 
L 1259 2222 
L 1259 0 
L 628 0 
L 628 4666 
z
" transform="scale(0.015625)"/>
        <path id="DejaVuSans-46" d="M 628 4666 
L 3309 4666 
L 3309 4134 
L 1259 4134 
L 1259 2759 
L 3109 2759 
L 3109 2228 
L 1259 2228 
L 1259 0 
L 628 0 
L 628 4666 
z
" transform="scale(0.015625)"/>
        <path id="DejaVuSans-43" d="M 4122 4306 
L 4122 3641 
Q 3803 3938 3442 4084 
Q 3081 4231 2675 4231 
Q 1875 4231 1450 3742 
Q 1025 3253 1025 2328 
Q 1025 1406 1450 917 
Q 1875 428 2675 428 
Q 3081 428 3442 575 
Q 3803 722 4122 1019 
L 4122 359 
Q 3791 134 3420 21 
Q 3050 -91 2638 -91 
Q 1578 -91 968 557 
Q 359 1206 359 2328 
Q 359 3453 968 4101 
Q 1578 4750 2638 4750 
Q 3056 4750 3426 4639 
Q 3797 4528 4122 4306 
z
" transform="scale(0.015625)"/>
       </defs>
       <use xlink:href="#DejaVuSans-4e"/>
       <use xlink:href="#DejaVuSans-4f" x="74.804688"/>
       <use xlink:href="#DejaVuSans-52" x="153.515625"/>
       <use xlink:href="#DejaVuSans-54" x="215.748047"/>
       <use xlink:href="#DejaVuSans-48" x="276.832031"/>
       <use xlink:href="#DejaVuSans-45" x="352.027344"/>
       <use xlink:href="#DejaVuSans-52" x="415.210938"/>
       <use xlink:href="#DejaVuSans-4e" x="484.693359"/>
       <use xlink:href="#DejaVuSans-20" x="559.498047"/>
       <use xlink:href="#DejaVuSans-41" x="591.285156"/>
       <use xlink:href="#DejaVuSans-46" x="659.693359"/>
       <use xlink:href="#DejaVuSans-52" x="717.212891"/>
       <use xlink:href="#DejaVuSans-49" x="786.695312"/>
       <use xlink:href="#DejaVuSans-43" x="816.1875"/>
       <use xlink:href="#DejaVuSans-41" x="886.011719"/>
       <use xlink:href="#DejaVuSans-20" x="954.419922"/>
       <use xlink:href="#DejaVuSans-20" x="986.207031"/>
       <use xlink:href="#DejaVuSans-20" x="1017.994141"/>
       <use xlink:href="#DejaVuSans-20" x="1049.78125"/>
       <use xlink:href="#DejaVuSans-20" x="1081.568359"/>
       <use xlink:href="#DejaVuSans-20" x="1113.355469"/>
       <use xlink:href="#DejaVuSans-20" x="1145.142578"/>
       <use xlink:href="#DejaVuSans-20" x="1176.929688"/>
       <use xlink:href="#DejaVuSans-20" x="1208.716797"/>
       <use xlink:href="#DejaVuSans-20" x="1240.503906"/>
       <use xlink:href="#DejaVuSans-20" x="1272.291016"/>
       <use xlink:href="#DejaVuSans-20" x="1304.078125"/>
       <use xlink:href="#DejaVuSans-20" x="1335.865234"/>
       <use xlink:href="#DejaVuSans-20" x="1367.652344"/>
       <use xlink:href="#DejaVuSans-20" x="1399.439453"/>
       <use xlink:href="#DejaVuSans-20" x="1431.226562"/>
       <use xlink:href="#DejaVuSans-20" x="1463.013672"/>
       <use xlink:href="#DejaVuSans-20" x="1494.800781"/>
       <use xlink:href="#DejaVuSans-20" x="1526.587891"/>
       <use xlink:href="#DejaVuSans-20" x="1558.375"/>
      </g>
     </g>
    </g>
    <g id="xtick_4">
     <g id="line2d_4">
      <g>
       <use xlink:href="#m32d81bde94" x="267.545455" y="384.48" style="stroke: #000000; stroke-width: 0.8"/>
      </g>
     </g>
     <g id="text_4">
      <!-- OCEANIA                             -->
      <g transform="translate(270.30483 525.753438) rotate(-90) scale(0.1 -0.1)">
       <use xlink:href="#DejaVuSans-4f"/>
       <use xlink:href="#DejaVuSans-43" x="78.710938"/>
       <use xlink:href="#DejaVuSans-45" x="148.535156"/>
       <use xlink:href="#DejaVuSans-41" x="211.71875"/>
       <use xlink:href="#DejaVuSans-4e" x="280.126953"/>
       <use xlink:href="#DejaVuSans-49" x="354.931641"/>
       <use xlink:href="#DejaVuSans-41" x="384.423828"/>
       <use xlink:href="#DejaVuSans-20" x="452.832031"/>
       <use xlink:href="#DejaVuSans-20" x="484.619141"/>
       <use xlink:href="#DejaVuSans-20" x="516.40625"/>
       <use xlink:href="#DejaVuSans-20" x="548.193359"/>
       <use xlink:href="#DejaVuSans-20" x="579.980469"/>
       <use xlink:href="#DejaVuSans-20" x="611.767578"/>
       <use xlink:href="#DejaVuSans-20" x="643.554688"/>
       <use xlink:href="#DejaVuSans-20" x="675.341797"/>
       <use xlink:href="#DejaVuSans-20" x="707.128906"/>
       <use xlink:href="#DejaVuSans-20" x="738.916016"/>
       <use xlink:href="#DejaVuSans-20" x="770.703125"/>
       <use xlink:href="#DejaVuSans-20" x="802.490234"/>
       <use xlink:href="#DejaVuSans-20" x="834.277344"/>
       <use xlink:href="#DejaVuSans-20" x="866.064453"/>
       <use xlink:href="#DejaVuSans-20" x="897.851562"/>
       <use xlink:href="#DejaVuSans-20" x="929.638672"/>
       <use xlink:href="#DejaVuSans-20" x="961.425781"/>
       <use xlink:href="#DejaVuSans-20" x="993.212891"/>
       <use xlink:href="#DejaVuSans-20" x="1025"/>
       <use xlink:href="#DejaVuSans-20" x="1056.787109"/>
       <use xlink:href="#DejaVuSans-20" x="1088.574219"/>
       <use xlink:href="#DejaVuSans-20" x="1120.361328"/>
       <use xlink:href="#DejaVuSans-20" x="1152.148438"/>
       <use xlink:href="#DejaVuSans-20" x="1183.935547"/>
       <use xlink:href="#DejaVuSans-20" x="1215.722656"/>
       <use xlink:href="#DejaVuSans-20" x="1247.509766"/>
       <use xlink:href="#DejaVuSans-20" x="1279.296875"/>
       <use xlink:href="#DejaVuSans-20" x="1311.083984"/>
      </g>
     </g>
    </g>
    <g id="xtick_5">
     <g id="line2d_5">
      <g>
       <use xlink:href="#m32d81bde94" x="318.272727" y="384.48" style="stroke: #000000; stroke-width: 0.8"/>
      </g>
     </g>
     <g id="text_5">
      <!-- WESTERN EUROPE                      -->
      <g transform="translate(321.032102 551.615937) rotate(-90) scale(0.1 -0.1)">
       <defs>
        <path id="DejaVuSans-57" d="M 213 4666 
L 850 4666 
L 1831 722 
L 2809 4666 
L 3519 4666 
L 4500 722 
L 5478 4666 
L 6119 4666 
L 4947 0 
L 4153 0 
L 3169 4050 
L 2175 0 
L 1381 0 
L 213 4666 
z
" transform="scale(0.015625)"/>
       </defs>
       <use xlink:href="#DejaVuSans-57"/>
       <use xlink:href="#DejaVuSans-45" x="98.876953"/>
       <use xlink:href="#DejaVuSans-53" x="162.060547"/>
       <use xlink:href="#DejaVuSans-54" x="225.537109"/>
       <use xlink:href="#DejaVuSans-45" x="286.621094"/>
       <use xlink:href="#DejaVuSans-52" x="349.804688"/>
       <use xlink:href="#DejaVuSans-4e" x="419.287109"/>
       <use xlink:href="#DejaVuSans-20" x="494.091797"/>
       <use xlink:href="#DejaVuSans-45" x="525.878906"/>
       <use xlink:href="#DejaVuSans-55" x="589.0625"/>
       <use xlink:href="#DejaVuSans-52" x="662.255859"/>
       <use xlink:href="#DejaVuSans-4f" x="731.738281"/>
       <use xlink:href="#DejaVuSans-50" x="810.449219"/>
       <use xlink:href="#DejaVuSans-45" x="870.751953"/>
       <use xlink:href="#DejaVuSans-20" x="933.935547"/>
       <use xlink:href="#DejaVuSans-20" x="965.722656"/>
       <use xlink:href="#DejaVuSans-20" x="997.509766"/>
       <use xlink:href="#DejaVuSans-20" x="1029.296875"/>
       <use xlink:href="#DejaVuSans-20" x="1061.083984"/>
       <use xlink:href="#DejaVuSans-20" x="1092.871094"/>
       <use xlink:href="#DejaVuSans-20" x="1124.658203"/>
       <use xlink:href="#DejaVuSans-20" x="1156.445312"/>
       <use xlink:href="#DejaVuSans-20" x="1188.232422"/>
       <use xlink:href="#DejaVuSans-20" x="1220.019531"/>
       <use xlink:href="#DejaVuSans-20" x="1251.806641"/>
       <use xlink:href="#DejaVuSans-20" x="1283.59375"/>
       <use xlink:href="#DejaVuSans-20" x="1315.380859"/>
       <use xlink:href="#DejaVuSans-20" x="1347.167969"/>
       <use xlink:href="#DejaVuSans-20" x="1378.955078"/>
       <use xlink:href="#DejaVuSans-20" x="1410.742188"/>
       <use xlink:href="#DejaVuSans-20" x="1442.529297"/>
       <use xlink:href="#DejaVuSans-20" x="1474.316406"/>
       <use xlink:href="#DejaVuSans-20" x="1506.103516"/>
       <use xlink:href="#DejaVuSans-20" x="1537.890625"/>
       <use xlink:href="#DejaVuSans-20" x="1569.677734"/>
      </g>
     </g>
    </g>
    <g id="xtick_6">
     <g id="line2d_6">
      <g>
       <use xlink:href="#m32d81bde94" x="369" y="384.48" style="stroke: #000000; stroke-width: 0.8"/>
      </g>
     </g>
     <g id="text_6">
      <!-- SUB-SAHARAN AFRICA                  -->
      <g transform="translate(371.759375 557.744063) rotate(-90) scale(0.1 -0.1)">
       <defs>
        <path id="DejaVuSans-42" d="M 1259 2228 
L 1259 519 
L 2272 519 
Q 2781 519 3026 730 
Q 3272 941 3272 1375 
Q 3272 1813 3026 2020 
Q 2781 2228 2272 2228 
L 1259 2228 
z
M 1259 4147 
L 1259 2741 
L 2194 2741 
Q 2656 2741 2882 2914 
Q 3109 3088 3109 3444 
Q 3109 3797 2882 3972 
Q 2656 4147 2194 4147 
L 1259 4147 
z
M 628 4666 
L 2241 4666 
Q 2963 4666 3353 4366 
Q 3744 4066 3744 3513 
Q 3744 3084 3544 2831 
Q 3344 2578 2956 2516 
Q 3422 2416 3680 2098 
Q 3938 1781 3938 1306 
Q 3938 681 3513 340 
Q 3088 0 2303 0 
L 628 0 
L 628 4666 
z
" transform="scale(0.015625)"/>
        <path id="DejaVuSans-2d" d="M 313 2009 
L 1997 2009 
L 1997 1497 
L 313 1497 
L 313 2009 
z
" transform="scale(0.015625)"/>
       </defs>
       <use xlink:href="#DejaVuSans-53"/>
       <use xlink:href="#DejaVuSans-55" x="63.476562"/>
       <use xlink:href="#DejaVuSans-42" x="136.669922"/>
       <use xlink:href="#DejaVuSans-2d" x="205.273438"/>
       <use xlink:href="#DejaVuSans-53" x="241.357422"/>
       <use xlink:href="#DejaVuSans-41" x="306.708984"/>
       <use xlink:href="#DejaVuSans-48" x="375.117188"/>
       <use xlink:href="#DejaVuSans-41" x="450.3125"/>
       <use xlink:href="#DejaVuSans-52" x="518.720703"/>
       <use xlink:href="#DejaVuSans-41" x="584.203125"/>
       <use xlink:href="#DejaVuSans-4e" x="652.611328"/>
       <use xlink:href="#DejaVuSans-20" x="727.416016"/>
       <use xlink:href="#DejaVuSans-41" x="759.203125"/>
       <use xlink:href="#DejaVuSans-46" x="827.611328"/>
       <use xlink:href="#DejaVuSans-52" x="885.130859"/>
       <use xlink:href="#DejaVuSans-49" x="954.613281"/>
       <use xlink:href="#DejaVuSans-43" x="984.105469"/>
       <use xlink:href="#DejaVuSans-41" x="1053.929688"/>
       <use xlink:href="#DejaVuSans-20" x="1122.337891"/>
       <use xlink:href="#DejaVuSans-20" x="1154.125"/>
       <use xlink:href="#DejaVuSans-20" x="1185.912109"/>
       <use xlink:href="#DejaVuSans-20" x="1217.699219"/>
       <use xlink:href="#DejaVuSans-20" x="1249.486328"/>
       <use xlink:href="#DejaVuSans-20" x="1281.273438"/>
       <use xlink:href="#DejaVuSans-20" x="1313.060547"/>
       <use xlink:href="#DejaVuSans-20" x="1344.847656"/>
       <use xlink:href="#DejaVuSans-20" x="1376.634766"/>
       <use xlink:href="#DejaVuSans-20" x="1408.421875"/>
       <use xlink:href="#DejaVuSans-20" x="1440.208984"/>
       <use xlink:href="#DejaVuSans-20" x="1471.996094"/>
       <use xlink:href="#DejaVuSans-20" x="1503.783203"/>
       <use xlink:href="#DejaVuSans-20" x="1535.570312"/>
       <use xlink:href="#DejaVuSans-20" x="1567.357422"/>
       <use xlink:href="#DejaVuSans-20" x="1599.144531"/>
       <use xlink:href="#DejaVuSans-20" x="1630.931641"/>
      </g>
     </g>
    </g>
    <g id="xtick_7">
     <g id="line2d_7">
      <g>
       <use xlink:href="#m32d81bde94" x="419.727273" y="384.48" style="stroke: #000000; stroke-width: 0.8"/>
      </g>
     </g>
     <g id="text_7">
      <!-- LATIN AMER. &amp; CARIB     -->
      <g transform="translate(422.486648 512.06125) rotate(-90) scale(0.1 -0.1)">
       <defs>
        <path id="DejaVuSans-4c" d="M 628 4666 
L 1259 4666 
L 1259 531 
L 3531 531 
L 3531 0 
L 628 0 
L 628 4666 
z
" transform="scale(0.015625)"/>
        <path id="DejaVuSans-4d" d="M 628 4666 
L 1569 4666 
L 2759 1491 
L 3956 4666 
L 4897 4666 
L 4897 0 
L 4281 0 
L 4281 4097 
L 3078 897 
L 2444 897 
L 1241 4097 
L 1241 0 
L 628 0 
L 628 4666 
z
" transform="scale(0.015625)"/>
        <path id="DejaVuSans-26" d="M 1556 2509 
Q 1272 2256 1139 2004 
Q 1006 1753 1006 1478 
Q 1006 1022 1337 719 
Q 1669 416 2169 416 
Q 2466 416 2725 514 
Q 2984 613 3213 813 
L 1556 2509 
z
M 1997 2859 
L 3584 1234 
Q 3769 1513 3872 1830 
Q 3975 2147 3994 2503 
L 4575 2503 
Q 4538 2091 4375 1687 
Q 4213 1284 3922 891 
L 4794 0 
L 4006 0 
L 3559 459 
Q 3234 181 2878 45 
Q 2522 -91 2113 -91 
Q 1359 -91 881 339 
Q 403 769 403 1441 
Q 403 1841 612 2192 
Q 822 2544 1241 2853 
Q 1091 3050 1012 3245 
Q 934 3441 934 3628 
Q 934 4134 1281 4442 
Q 1628 4750 2203 4750 
Q 2463 4750 2720 4694 
Q 2978 4638 3244 4525 
L 3244 3956 
Q 2972 4103 2725 4179 
Q 2478 4256 2266 4256 
Q 1938 4256 1733 4082 
Q 1528 3909 1528 3634 
Q 1528 3475 1620 3314 
Q 1713 3153 1997 2859 
z
" transform="scale(0.015625)"/>
       </defs>
       <use xlink:href="#DejaVuSans-4c"/>
       <use xlink:href="#DejaVuSans-41" x="57.962891"/>
       <use xlink:href="#DejaVuSans-54" x="118.621094"/>
       <use xlink:href="#DejaVuSans-49" x="179.705078"/>
       <use xlink:href="#DejaVuSans-4e" x="209.197266"/>
       <use xlink:href="#DejaVuSans-20" x="284.001953"/>
       <use xlink:href="#DejaVuSans-41" x="315.789062"/>
       <use xlink:href="#DejaVuSans-4d" x="384.197266"/>
       <use xlink:href="#DejaVuSans-45" x="470.476562"/>
       <use xlink:href="#DejaVuSans-52" x="533.660156"/>
       <use xlink:href="#DejaVuSans-2e" x="599.517578"/>
       <use xlink:href="#DejaVuSans-20" x="631.304688"/>
       <use xlink:href="#DejaVuSans-26" x="663.091797"/>
       <use xlink:href="#DejaVuSans-20" x="741.070312"/>
       <use xlink:href="#DejaVuSans-43" x="772.857422"/>
       <use xlink:href="#DejaVuSans-41" x="842.681641"/>
       <use xlink:href="#DejaVuSans-52" x="911.089844"/>
       <use xlink:href="#DejaVuSans-49" x="980.572266"/>
       <use xlink:href="#DejaVuSans-42" x="1010.064453"/>
       <use xlink:href="#DejaVuSans-20" x="1078.667969"/>
       <use xlink:href="#DejaVuSans-20" x="1110.455078"/>
       <use xlink:href="#DejaVuSans-20" x="1142.242188"/>
       <use xlink:href="#DejaVuSans-20" x="1174.029297"/>
      </g>
     </g>
    </g>
    <g id="xtick_8">
     <g id="line2d_8">
      <g>
       <use xlink:href="#m32d81bde94" x="470.454545" y="384.48" style="stroke: #000000; stroke-width: 0.8"/>
      </g>
     </g>
     <g id="text_8">
      <!-- C.W. OF IND. STATES  -->
      <g transform="translate(473.21392 497.72375) rotate(-90) scale(0.1 -0.1)">
       <defs>
        <path id="DejaVuSans-44" d="M 1259 4147 
L 1259 519 
L 2022 519 
Q 2988 519 3436 956 
Q 3884 1394 3884 2338 
Q 3884 3275 3436 3711 
Q 2988 4147 2022 4147 
L 1259 4147 
z
M 628 4666 
L 1925 4666 
Q 3281 4666 3915 4102 
Q 4550 3538 4550 2338 
Q 4550 1131 3912 565 
Q 3275 0 1925 0 
L 628 0 
L 628 4666 
z
" transform="scale(0.015625)"/>
       </defs>
       <use xlink:href="#DejaVuSans-43"/>
       <use xlink:href="#DejaVuSans-2e" x="69.824219"/>
       <use xlink:href="#DejaVuSans-57" x="101.611328"/>
       <use xlink:href="#DejaVuSans-2e" x="188.988281"/>
       <use xlink:href="#DejaVuSans-20" x="220.775391"/>
       <use xlink:href="#DejaVuSans-4f" x="252.5625"/>
       <use xlink:href="#DejaVuSans-46" x="331.273438"/>
       <use xlink:href="#DejaVuSans-20" x="388.792969"/>
       <use xlink:href="#DejaVuSans-49" x="420.580078"/>
       <use xlink:href="#DejaVuSans-4e" x="450.072266"/>
       <use xlink:href="#DejaVuSans-44" x="524.876953"/>
       <use xlink:href="#DejaVuSans-2e" x="601.878906"/>
       <use xlink:href="#DejaVuSans-20" x="633.666016"/>
       <use xlink:href="#DejaVuSans-53" x="665.453125"/>
       <use xlink:href="#DejaVuSans-54" x="728.929688"/>
       <use xlink:href="#DejaVuSans-41" x="782.263672"/>
       <use xlink:href="#DejaVuSans-54" x="842.921875"/>
       <use xlink:href="#DejaVuSans-45" x="904.005859"/>
       <use xlink:href="#DejaVuSans-53" x="967.189453"/>
       <use xlink:href="#DejaVuSans-20" x="1030.666016"/>
      </g>
     </g>
    </g>
    <g id="xtick_9">
     <g id="line2d_9">
      <g>
       <use xlink:href="#m32d81bde94" x="521.181818" y="384.48" style="stroke: #000000; stroke-width: 0.8"/>
      </g>
     </g>
     <g id="text_9">
      <!-- NEAR EAST                           -->
      <g transform="translate(523.941193 530.494063) rotate(-90) scale(0.1 -0.1)">
       <use xlink:href="#DejaVuSans-4e"/>
       <use xlink:href="#DejaVuSans-45" x="74.804688"/>
       <use xlink:href="#DejaVuSans-41" x="137.988281"/>
       <use xlink:href="#DejaVuSans-52" x="206.396484"/>
       <use xlink:href="#DejaVuSans-20" x="275.878906"/>
       <use xlink:href="#DejaVuSans-45" x="307.666016"/>
       <use xlink:href="#DejaVuSans-41" x="370.849609"/>
       <use xlink:href="#DejaVuSans-53" x="439.257812"/>
       <use xlink:href="#DejaVuSans-54" x="502.734375"/>
       <use xlink:href="#DejaVuSans-20" x="563.818359"/>
       <use xlink:href="#DejaVuSans-20" x="595.605469"/>
       <use xlink:href="#DejaVuSans-20" x="627.392578"/>
       <use xlink:href="#DejaVuSans-20" x="659.179688"/>
       <use xlink:href="#DejaVuSans-20" x="690.966797"/>
       <use xlink:href="#DejaVuSans-20" x="722.753906"/>
       <use xlink:href="#DejaVuSans-20" x="754.541016"/>
       <use xlink:href="#DejaVuSans-20" x="786.328125"/>
       <use xlink:href="#DejaVuSans-20" x="818.115234"/>
       <use xlink:href="#DejaVuSans-20" x="849.902344"/>
       <use xlink:href="#DejaVuSans-20" x="881.689453"/>
       <use xlink:href="#DejaVuSans-20" x="913.476562"/>
       <use xlink:href="#DejaVuSans-20" x="945.263672"/>
       <use xlink:href="#DejaVuSans-20" x="977.050781"/>
       <use xlink:href="#DejaVuSans-20" x="1008.837891"/>
       <use xlink:href="#DejaVuSans-20" x="1040.625"/>
       <use xlink:href="#DejaVuSans-20" x="1072.412109"/>
       <use xlink:href="#DejaVuSans-20" x="1104.199219"/>
       <use xlink:href="#DejaVuSans-20" x="1135.986328"/>
       <use xlink:href="#DejaVuSans-20" x="1167.773438"/>
       <use xlink:href="#DejaVuSans-20" x="1199.560547"/>
       <use xlink:href="#DejaVuSans-20" x="1231.347656"/>
       <use xlink:href="#DejaVuSans-20" x="1263.134766"/>
       <use xlink:href="#DejaVuSans-20" x="1294.921875"/>
       <use xlink:href="#DejaVuSans-20" x="1326.708984"/>
       <use xlink:href="#DejaVuSans-20" x="1358.496094"/>
      </g>
     </g>
    </g>
    <g id="xtick_10">
     <g id="line2d_10">
      <g>
       <use xlink:href="#m32d81bde94" x="571.909091" y="384.48" style="stroke: #000000; stroke-width: 0.8"/>
      </g>
     </g>
     <g id="text_10">
      <!-- NORTHERN AMERICA                    -->
      <g transform="translate(574.668466 556.505) rotate(-90) scale(0.1 -0.1)">
       <use xlink:href="#DejaVuSans-4e"/>
       <use xlink:href="#DejaVuSans-4f" x="74.804688"/>
       <use xlink:href="#DejaVuSans-52" x="153.515625"/>
       <use xlink:href="#DejaVuSans-54" x="215.748047"/>
       <use xlink:href="#DejaVuSans-48" x="276.832031"/>
       <use xlink:href="#DejaVuSans-45" x="352.027344"/>
       <use xlink:href="#DejaVuSans-52" x="415.210938"/>
       <use xlink:href="#DejaVuSans-4e" x="484.693359"/>
       <use xlink:href="#DejaVuSans-20" x="559.498047"/>
       <use xlink:href="#DejaVuSans-41" x="591.285156"/>
       <use xlink:href="#DejaVuSans-4d" x="659.693359"/>
       <use xlink:href="#DejaVuSans-45" x="745.972656"/>
       <use xlink:href="#DejaVuSans-52" x="809.15625"/>
       <use xlink:href="#DejaVuSans-49" x="878.638672"/>
       <use xlink:href="#DejaVuSans-43" x="908.130859"/>
       <use xlink:href="#DejaVuSans-41" x="977.955078"/>
       <use xlink:href="#DejaVuSans-20" x="1046.363281"/>
       <use xlink:href="#DejaVuSans-20" x="1078.150391"/>
       <use xlink:href="#DejaVuSans-20" x="1109.9375"/>
       <use xlink:href="#DejaVuSans-20" x="1141.724609"/>
       <use xlink:href="#DejaVuSans-20" x="1173.511719"/>
       <use xlink:href="#DejaVuSans-20" x="1205.298828"/>
       <use xlink:href="#DejaVuSans-20" x="1237.085938"/>
       <use xlink:href="#DejaVuSans-20" x="1268.873047"/>
       <use xlink:href="#DejaVuSans-20" x="1300.660156"/>
       <use xlink:href="#DejaVuSans-20" x="1332.447266"/>
       <use xlink:href="#DejaVuSans-20" x="1364.234375"/>
       <use xlink:href="#DejaVuSans-20" x="1396.021484"/>
       <use xlink:href="#DejaVuSans-20" x="1427.808594"/>
       <use xlink:href="#DejaVuSans-20" x="1459.595703"/>
       <use xlink:href="#DejaVuSans-20" x="1491.382812"/>
       <use xlink:href="#DejaVuSans-20" x="1523.169922"/>
       <use xlink:href="#DejaVuSans-20" x="1554.957031"/>
       <use xlink:href="#DejaVuSans-20" x="1586.744141"/>
       <use xlink:href="#DejaVuSans-20" x="1618.53125"/>
      </g>
     </g>
    </g>
    <g id="xtick_11">
     <g id="line2d_11">
      <g>
       <use xlink:href="#m32d81bde94" x="622.636364" y="384.48" style="stroke: #000000; stroke-width: 0.8"/>
      </g>
     </g>
     <g id="text_11">
      <!-- BALTICS                             -->
      <g transform="translate(625.395739 520.755) rotate(-90) scale(0.1 -0.1)">
       <use xlink:href="#DejaVuSans-42"/>
       <use xlink:href="#DejaVuSans-41" x="68.603516"/>
       <use xlink:href="#DejaVuSans-4c" x="137.011719"/>
       <use xlink:href="#DejaVuSans-54" x="178.974609"/>
       <use xlink:href="#DejaVuSans-49" x="240.058594"/>
       <use xlink:href="#DejaVuSans-43" x="269.550781"/>
       <use xlink:href="#DejaVuSans-53" x="339.375"/>
       <use xlink:href="#DejaVuSans-20" x="402.851562"/>
       <use xlink:href="#DejaVuSans-20" x="434.638672"/>
       <use xlink:href="#DejaVuSans-20" x="466.425781"/>
       <use xlink:href="#DejaVuSans-20" x="498.212891"/>
       <use xlink:href="#DejaVuSans-20" x="530"/>
       <use xlink:href="#DejaVuSans-20" x="561.787109"/>
       <use xlink:href="#DejaVuSans-20" x="593.574219"/>
       <use xlink:href="#DejaVuSans-20" x="625.361328"/>
       <use xlink:href="#DejaVuSans-20" x="657.148438"/>
       <use xlink:href="#DejaVuSans-20" x="688.935547"/>
       <use xlink:href="#DejaVuSans-20" x="720.722656"/>
       <use xlink:href="#DejaVuSans-20" x="752.509766"/>
       <use xlink:href="#DejaVuSans-20" x="784.296875"/>
       <use xlink:href="#DejaVuSans-20" x="816.083984"/>
       <use xlink:href="#DejaVuSans-20" x="847.871094"/>
       <use xlink:href="#DejaVuSans-20" x="879.658203"/>
       <use xlink:href="#DejaVuSans-20" x="911.445312"/>
       <use xlink:href="#DejaVuSans-20" x="943.232422"/>
       <use xlink:href="#DejaVuSans-20" x="975.019531"/>
       <use xlink:href="#DejaVuSans-20" x="1006.806641"/>
       <use xlink:href="#DejaVuSans-20" x="1038.59375"/>
       <use xlink:href="#DejaVuSans-20" x="1070.380859"/>
       <use xlink:href="#DejaVuSans-20" x="1102.167969"/>
       <use xlink:href="#DejaVuSans-20" x="1133.955078"/>
       <use xlink:href="#DejaVuSans-20" x="1165.742188"/>
       <use xlink:href="#DejaVuSans-20" x="1197.529297"/>
       <use xlink:href="#DejaVuSans-20" x="1229.316406"/>
       <use xlink:href="#DejaVuSans-20" x="1261.103516"/>
      </g>
     </g>
    </g>
    <g id="text_12">
     <!-- Region -->
     <g transform="translate(351.882812 569.3425) scale(0.1 -0.1)">
      <defs>
       <path id="DejaVuSans-65" d="M 3597 1894 
L 3597 1613 
L 953 1613 
Q 991 1019 1311 708 
Q 1631 397 2203 397 
Q 2534 397 2845 478 
Q 3156 559 3463 722 
L 3463 178 
Q 3153 47 2828 -22 
Q 2503 -91 2169 -91 
Q 1331 -91 842 396 
Q 353 884 353 1716 
Q 353 2575 817 3079 
Q 1281 3584 2069 3584 
Q 2775 3584 3186 3129 
Q 3597 2675 3597 1894 
z
M 3022 2063 
Q 3016 2534 2758 2815 
Q 2500 3097 2075 3097 
Q 1594 3097 1305 2825 
Q 1016 2553 972 2059 
L 3022 2063 
z
" transform="scale(0.015625)"/>
       <path id="DejaVuSans-67" d="M 2906 1791 
Q 2906 2416 2648 2759 
Q 2391 3103 1925 3103 
Q 1463 3103 1205 2759 
Q 947 2416 947 1791 
Q 947 1169 1205 825 
Q 1463 481 1925 481 
Q 2391 481 2648 825 
Q 2906 1169 2906 1791 
z
M 3481 434 
Q 3481 -459 3084 -895 
Q 2688 -1331 1869 -1331 
Q 1566 -1331 1297 -1286 
Q 1028 -1241 775 -1147 
L 775 -588 
Q 1028 -725 1275 -790 
Q 1522 -856 1778 -856 
Q 2344 -856 2625 -561 
Q 2906 -266 2906 331 
L 2906 616 
Q 2728 306 2450 153 
Q 2172 0 1784 0 
Q 1141 0 747 490 
Q 353 981 353 1791 
Q 353 2603 747 3093 
Q 1141 3584 1784 3584 
Q 2172 3584 2450 3431 
Q 2728 3278 2906 2969 
L 2906 3500 
L 3481 3500 
L 3481 434 
z
" transform="scale(0.015625)"/>
       <path id="DejaVuSans-69" d="M 603 3500 
L 1178 3500 
L 1178 0 
L 603 0 
L 603 3500 
z
M 603 4863 
L 1178 4863 
L 1178 4134 
L 603 4134 
L 603 4863 
z
" transform="scale(0.015625)"/>
       <path id="DejaVuSans-6f" d="M 1959 3097 
Q 1497 3097 1228 2736 
Q 959 2375 959 1747 
Q 959 1119 1226 758 
Q 1494 397 1959 397 
Q 2419 397 2687 759 
Q 2956 1122 2956 1747 
Q 2956 2369 2687 2733 
Q 2419 3097 1959 3097 
z
M 1959 3584 
Q 2709 3584 3137 3096 
Q 3566 2609 3566 1747 
Q 3566 888 3137 398 
Q 2709 -91 1959 -91 
Q 1206 -91 779 398 
Q 353 888 353 1747 
Q 353 2609 779 3096 
Q 1206 3584 1959 3584 
z
" transform="scale(0.015625)"/>
       <path id="DejaVuSans-6e" d="M 3513 2113 
L 3513 0 
L 2938 0 
L 2938 2094 
Q 2938 2591 2744 2837 
Q 2550 3084 2163 3084 
Q 1697 3084 1428 2787 
Q 1159 2491 1159 1978 
L 1159 0 
L 581 0 
L 581 3500 
L 1159 3500 
L 1159 2956 
Q 1366 3272 1645 3428 
Q 1925 3584 2291 3584 
Q 2894 3584 3203 3211 
Q 3513 2838 3513 2113 
z
" transform="scale(0.015625)"/>
      </defs>
      <use xlink:href="#DejaVuSans-52"/>
      <use xlink:href="#DejaVuSans-65" x="64.982422"/>
      <use xlink:href="#DejaVuSans-67" x="126.505859"/>
      <use xlink:href="#DejaVuSans-69" x="189.982422"/>
      <use xlink:href="#DejaVuSans-6f" x="217.765625"/>
      <use xlink:href="#DejaVuSans-6e" x="278.947266"/>
     </g>
    </g>
   </g>
   <g id="matplotlib.axis_2">
    <g id="ytick_1">
     <g id="line2d_12">
      <defs>
       <path id="mf04ce32079" d="M 0 0 
L -3.5 0 
" style="stroke: #000000; stroke-width: 0.8"/>
      </defs>
      <g>
       <use xlink:href="#mf04ce32079" x="90" y="384.48" style="stroke: #000000; stroke-width: 0.8"/>
      </g>
     </g>
     <g id="text_13">
      <!-- 0 -->
      <g transform="translate(76.6375 388.279219) scale(0.1 -0.1)">
       <defs>
        <path id="DejaVuSans-30" d="M 2034 4250 
Q 1547 4250 1301 3770 
Q 1056 3291 1056 2328 
Q 1056 1369 1301 889 
Q 1547 409 2034 409 
Q 2525 409 2770 889 
Q 3016 1369 3016 2328 
Q 3016 3291 2770 3770 
Q 2525 4250 2034 4250 
z
M 2034 4750 
Q 2819 4750 3233 4129 
Q 3647 3509 3647 2328 
Q 3647 1150 3233 529 
Q 2819 -91 2034 -91 
Q 1250 -91 836 529 
Q 422 1150 422 2328 
Q 422 3509 836 4129 
Q 1250 4750 2034 4750 
z
" transform="scale(0.015625)"/>
       </defs>
       <use xlink:href="#DejaVuSans-30"/>
      </g>
     </g>
    </g>
    <g id="ytick_2">
     <g id="line2d_13">
      <g>
       <use xlink:href="#mf04ce32079" x="90" y="339.83513" style="stroke: #000000; stroke-width: 0.8"/>
      </g>
     </g>
     <g id="text_14">
      <!-- 5000 -->
      <g transform="translate(57.55 343.634348) scale(0.1 -0.1)">
       <defs>
        <path id="DejaVuSans-35" d="M 691 4666 
L 3169 4666 
L 3169 4134 
L 1269 4134 
L 1269 2991 
Q 1406 3038 1543 3061 
Q 1681 3084 1819 3084 
Q 2600 3084 3056 2656 
Q 3513 2228 3513 1497 
Q 3513 744 3044 326 
Q 2575 -91 1722 -91 
Q 1428 -91 1123 -41 
Q 819 9 494 109 
L 494 744 
Q 775 591 1075 516 
Q 1375 441 1709 441 
Q 2250 441 2565 725 
Q 2881 1009 2881 1497 
Q 2881 1984 2565 2268 
Q 2250 2553 1709 2553 
Q 1456 2553 1204 2497 
Q 953 2441 691 2322 
L 691 4666 
z
" transform="scale(0.015625)"/>
       </defs>
       <use xlink:href="#DejaVuSans-35"/>
       <use xlink:href="#DejaVuSans-30" x="63.623047"/>
       <use xlink:href="#DejaVuSans-30" x="127.246094"/>
       <use xlink:href="#DejaVuSans-30" x="190.869141"/>
      </g>
     </g>
    </g>
    <g id="ytick_3">
     <g id="line2d_14">
      <g>
       <use xlink:href="#mf04ce32079" x="90" y="295.190259" style="stroke: #000000; stroke-width: 0.8"/>
      </g>
     </g>
     <g id="text_15">
      <!-- 10000 -->
      <g transform="translate(51.1875 298.989478) scale(0.1 -0.1)">
       <defs>
        <path id="DejaVuSans-31" d="M 794 531 
L 1825 531 
L 1825 4091 
L 703 3866 
L 703 4441 
L 1819 4666 
L 2450 4666 
L 2450 531 
L 3481 531 
L 3481 0 
L 794 0 
L 794 531 
z
" transform="scale(0.015625)"/>
       </defs>
       <use xlink:href="#DejaVuSans-31"/>
       <use xlink:href="#DejaVuSans-30" x="63.623047"/>
       <use xlink:href="#DejaVuSans-30" x="127.246094"/>
       <use xlink:href="#DejaVuSans-30" x="190.869141"/>
       <use xlink:href="#DejaVuSans-30" x="254.492188"/>
      </g>
     </g>
    </g>
    <g id="ytick_4">
     <g id="line2d_15">
      <g>
       <use xlink:href="#mf04ce32079" x="90" y="250.545389" style="stroke: #000000; stroke-width: 0.8"/>
      </g>
     </g>
     <g id="text_16">
      <!-- 15000 -->
      <g transform="translate(51.1875 254.344608) scale(0.1 -0.1)">
       <use xlink:href="#DejaVuSans-31"/>
       <use xlink:href="#DejaVuSans-35" x="63.623047"/>
       <use xlink:href="#DejaVuSans-30" x="127.246094"/>
       <use xlink:href="#DejaVuSans-30" x="190.869141"/>
       <use xlink:href="#DejaVuSans-30" x="254.492188"/>
      </g>
     </g>
    </g>
    <g id="ytick_5">
     <g id="line2d_16">
      <g>
       <use xlink:href="#mf04ce32079" x="90" y="205.900519" style="stroke: #000000; stroke-width: 0.8"/>
      </g>
     </g>
     <g id="text_17">
      <!-- 20000 -->
      <g transform="translate(51.1875 209.699737) scale(0.1 -0.1)">
       <defs>
        <path id="DejaVuSans-32" d="M 1228 531 
L 3431 531 
L 3431 0 
L 469 0 
L 469 531 
Q 828 903 1448 1529 
Q 2069 2156 2228 2338 
Q 2531 2678 2651 2914 
Q 2772 3150 2772 3378 
Q 2772 3750 2511 3984 
Q 2250 4219 1831 4219 
Q 1534 4219 1204 4116 
Q 875 4013 500 3803 
L 500 4441 
Q 881 4594 1212 4672 
Q 1544 4750 1819 4750 
Q 2544 4750 2975 4387 
Q 3406 4025 3406 3419 
Q 3406 3131 3298 2873 
Q 3191 2616 2906 2266 
Q 2828 2175 2409 1742 
Q 1991 1309 1228 531 
z
" transform="scale(0.015625)"/>
       </defs>
       <use xlink:href="#DejaVuSans-32"/>
       <use xlink:href="#DejaVuSans-30" x="63.623047"/>
       <use xlink:href="#DejaVuSans-30" x="127.246094"/>
       <use xlink:href="#DejaVuSans-30" x="190.869141"/>
       <use xlink:href="#DejaVuSans-30" x="254.492188"/>
      </g>
     </g>
    </g>
    <g id="ytick_6">
     <g id="line2d_17">
      <g>
       <use xlink:href="#mf04ce32079" x="90" y="161.255648" style="stroke: #000000; stroke-width: 0.8"/>
      </g>
     </g>
     <g id="text_18">
      <!-- 25000 -->
      <g transform="translate(51.1875 165.054867) scale(0.1 -0.1)">
       <use xlink:href="#DejaVuSans-32"/>
       <use xlink:href="#DejaVuSans-35" x="63.623047"/>
       <use xlink:href="#DejaVuSans-30" x="127.246094"/>
       <use xlink:href="#DejaVuSans-30" x="190.869141"/>
       <use xlink:href="#DejaVuSans-30" x="254.492188"/>
      </g>
     </g>
    </g>
    <g id="ytick_7">
     <g id="line2d_18">
      <g>
       <use xlink:href="#mf04ce32079" x="90" y="116.610778" style="stroke: #000000; stroke-width: 0.8"/>
      </g>
     </g>
     <g id="text_19">
      <!-- 30000 -->
      <g transform="translate(51.1875 120.409997) scale(0.1 -0.1)">
       <defs>
        <path id="DejaVuSans-33" d="M 2597 2516 
Q 3050 2419 3304 2112 
Q 3559 1806 3559 1356 
Q 3559 666 3084 287 
Q 2609 -91 1734 -91 
Q 1441 -91 1130 -33 
Q 819 25 488 141 
L 488 750 
Q 750 597 1062 519 
Q 1375 441 1716 441 
Q 2309 441 2620 675 
Q 2931 909 2931 1356 
Q 2931 1769 2642 2001 
Q 2353 2234 1838 2234 
L 1294 2234 
L 1294 2753 
L 1863 2753 
Q 2328 2753 2575 2939 
Q 2822 3125 2822 3475 
Q 2822 3834 2567 4026 
Q 2313 4219 1838 4219 
Q 1578 4219 1281 4162 
Q 984 4106 628 3988 
L 628 4550 
Q 988 4650 1302 4700 
Q 1616 4750 1894 4750 
Q 2613 4750 3031 4423 
Q 3450 4097 3450 3541 
Q 3450 3153 3228 2886 
Q 3006 2619 2597 2516 
z
" transform="scale(0.015625)"/>
       </defs>
       <use xlink:href="#DejaVuSans-33"/>
       <use xlink:href="#DejaVuSans-30" x="63.623047"/>
       <use xlink:href="#DejaVuSans-30" x="127.246094"/>
       <use xlink:href="#DejaVuSans-30" x="190.869141"/>
       <use xlink:href="#DejaVuSans-30" x="254.492188"/>
      </g>
     </g>
    </g>
    <g id="ytick_8">
     <g id="line2d_19">
      <g>
       <use xlink:href="#mf04ce32079" x="90" y="71.965908" style="stroke: #000000; stroke-width: 0.8"/>
      </g>
     </g>
     <g id="text_20">
      <!-- 35000 -->
      <g transform="translate(51.1875 75.765126) scale(0.1 -0.1)">
       <use xlink:href="#DejaVuSans-33"/>
       <use xlink:href="#DejaVuSans-35" x="63.623047"/>
       <use xlink:href="#DejaVuSans-30" x="127.246094"/>
       <use xlink:href="#DejaVuSans-30" x="190.869141"/>
       <use xlink:href="#DejaVuSans-30" x="254.492188"/>
      </g>
     </g>
    </g>
    <g id="text_21">
     <!-- GDP ($ per capita) -->
     <g transform="translate(45.107812 264.456094) rotate(-90) scale(0.1 -0.1)">
      <defs>
       <path id="DejaVuSans-47" d="M 3809 666 
L 3809 1919 
L 2778 1919 
L 2778 2438 
L 4434 2438 
L 4434 434 
Q 4069 175 3628 42 
Q 3188 -91 2688 -91 
Q 1594 -91 976 548 
Q 359 1188 359 2328 
Q 359 3472 976 4111 
Q 1594 4750 2688 4750 
Q 3144 4750 3555 4637 
Q 3966 4525 4313 4306 
L 4313 3634 
Q 3963 3931 3569 4081 
Q 3175 4231 2741 4231 
Q 1884 4231 1454 3753 
Q 1025 3275 1025 2328 
Q 1025 1384 1454 906 
Q 1884 428 2741 428 
Q 3075 428 3337 486 
Q 3600 544 3809 666 
z
" transform="scale(0.015625)"/>
       <path id="DejaVuSans-24" d="M 2163 -941 
L 1850 -941 
L 1847 0 
Q 1519 6 1191 76 
Q 863 147 531 288 
L 531 850 
Q 850 650 1176 548 
Q 1503 447 1850 444 
L 1850 1869 
Q 1159 1981 845 2250 
Q 531 2519 531 2988 
Q 531 3497 872 3790 
Q 1213 4084 1850 4128 
L 1850 4863 
L 2163 4863 
L 2163 4138 
Q 2453 4125 2725 4076 
Q 2997 4028 3256 3944 
L 3256 3397 
Q 2997 3528 2723 3600 
Q 2450 3672 2163 3684 
L 2163 2350 
Q 2872 2241 3206 1959 
Q 3541 1678 3541 1191 
Q 3541 663 3186 358 
Q 2831 53 2163 6 
L 2163 -941 
z
M 1850 2406 
L 1850 3688 
Q 1488 3647 1297 3481 
Q 1106 3316 1106 3041 
Q 1106 2772 1282 2622 
Q 1459 2472 1850 2406 
z
M 2163 1806 
L 2163 453 
Q 2559 506 2761 678 
Q 2963 850 2963 1131 
Q 2963 1406 2770 1568 
Q 2578 1731 2163 1806 
z
" transform="scale(0.015625)"/>
       <path id="DejaVuSans-70" d="M 1159 525 
L 1159 -1331 
L 581 -1331 
L 581 3500 
L 1159 3500 
L 1159 2969 
Q 1341 3281 1617 3432 
Q 1894 3584 2278 3584 
Q 2916 3584 3314 3078 
Q 3713 2572 3713 1747 
Q 3713 922 3314 415 
Q 2916 -91 2278 -91 
Q 1894 -91 1617 61 
Q 1341 213 1159 525 
z
M 3116 1747 
Q 3116 2381 2855 2742 
Q 2594 3103 2138 3103 
Q 1681 3103 1420 2742 
Q 1159 2381 1159 1747 
Q 1159 1113 1420 752 
Q 1681 391 2138 391 
Q 2594 391 2855 752 
Q 3116 1113 3116 1747 
z
" transform="scale(0.015625)"/>
       <path id="DejaVuSans-72" d="M 2631 2963 
Q 2534 3019 2420 3045 
Q 2306 3072 2169 3072 
Q 1681 3072 1420 2755 
Q 1159 2438 1159 1844 
L 1159 0 
L 581 0 
L 581 3500 
L 1159 3500 
L 1159 2956 
Q 1341 3275 1631 3429 
Q 1922 3584 2338 3584 
Q 2397 3584 2469 3576 
Q 2541 3569 2628 3553 
L 2631 2963 
z
" transform="scale(0.015625)"/>
       <path id="DejaVuSans-63" d="M 3122 3366 
L 3122 2828 
Q 2878 2963 2633 3030 
Q 2388 3097 2138 3097 
Q 1578 3097 1268 2742 
Q 959 2388 959 1747 
Q 959 1106 1268 751 
Q 1578 397 2138 397 
Q 2388 397 2633 464 
Q 2878 531 3122 666 
L 3122 134 
Q 2881 22 2623 -34 
Q 2366 -91 2075 -91 
Q 1284 -91 818 406 
Q 353 903 353 1747 
Q 353 2603 823 3093 
Q 1294 3584 2113 3584 
Q 2378 3584 2631 3529 
Q 2884 3475 3122 3366 
z
" transform="scale(0.015625)"/>
       <path id="DejaVuSans-61" d="M 2194 1759 
Q 1497 1759 1228 1600 
Q 959 1441 959 1056 
Q 959 750 1161 570 
Q 1363 391 1709 391 
Q 2188 391 2477 730 
Q 2766 1069 2766 1631 
L 2766 1759 
L 2194 1759 
z
M 3341 1997 
L 3341 0 
L 2766 0 
L 2766 531 
Q 2569 213 2275 61 
Q 1981 -91 1556 -91 
Q 1019 -91 701 211 
Q 384 513 384 1019 
Q 384 1609 779 1909 
Q 1175 2209 1959 2209 
L 2766 2209 
L 2766 2266 
Q 2766 2663 2505 2880 
Q 2244 3097 1772 3097 
Q 1472 3097 1187 3025 
Q 903 2953 641 2809 
L 641 3341 
Q 956 3463 1253 3523 
Q 1550 3584 1831 3584 
Q 2591 3584 2966 3190 
Q 3341 2797 3341 1997 
z
" transform="scale(0.015625)"/>
       <path id="DejaVuSans-74" d="M 1172 4494 
L 1172 3500 
L 2356 3500 
L 2356 3053 
L 1172 3053 
L 1172 1153 
Q 1172 725 1289 603 
Q 1406 481 1766 481 
L 2356 481 
L 2356 0 
L 1766 0 
Q 1100 0 847 248 
Q 594 497 594 1153 
L 594 3053 
L 172 3053 
L 172 3500 
L 594 3500 
L 594 4494 
L 1172 4494 
z
" transform="scale(0.015625)"/>
      </defs>
      <use xlink:href="#DejaVuSans-47"/>
      <use xlink:href="#DejaVuSans-44" x="77.490234"/>
      <use xlink:href="#DejaVuSans-50" x="154.492188"/>
      <use xlink:href="#DejaVuSans-20" x="214.794922"/>
      <use xlink:href="#DejaVuSans-28" x="246.582031"/>
      <use xlink:href="#DejaVuSans-24" x="285.595703"/>
      <use xlink:href="#DejaVuSans-20" x="349.21875"/>
      <use xlink:href="#DejaVuSans-70" x="381.005859"/>
      <use xlink:href="#DejaVuSans-65" x="444.482422"/>
      <use xlink:href="#DejaVuSans-72" x="506.005859"/>
      <use xlink:href="#DejaVuSans-20" x="547.119141"/>
      <use xlink:href="#DejaVuSans-63" x="578.90625"/>
      <use xlink:href="#DejaVuSans-61" x="633.886719"/>
      <use xlink:href="#DejaVuSans-70" x="695.166016"/>
      <use xlink:href="#DejaVuSans-69" x="758.642578"/>
      <use xlink:href="#DejaVuSans-74" x="786.425781"/>
      <use xlink:href="#DejaVuSans-61" x="825.634766"/>
      <use xlink:href="#DejaVuSans-29" x="886.914062"/>
     </g>
    </g>
   </g>
   <g id="line2d_20">
    <path d="M 115.363636 340.094229 
L 115.363636 283.319507 
" clip-path="url(#p400893d6b1)" style="fill: none; stroke: #424242; stroke-width: 2.25; stroke-linecap: square"/>
   </g>
   <g id="line2d_21">
    <path d="M 166.090909 318.928309 
L 166.090909 272.043754 
" clip-path="url(#p400893d6b1)" style="fill: none; stroke: #424242; stroke-width: 2.25; stroke-linecap: square"/>
   </g>
   <g id="line2d_22">
    <path d="M 216.818182 345.192514 
L 216.818182 326.959549 
" clip-path="url(#p400893d6b1)" style="fill: none; stroke: #424242; stroke-width: 2.25; stroke-linecap: square"/>
   </g>
   <g id="line2d_23">
    <path d="M 267.545455 339.434389 
L 267.545455 276.349061 
" clip-path="url(#p400893d6b1)" style="fill: none; stroke: #424242; stroke-width: 2.25; stroke-linecap: square"/>
   </g>
   <g id="line2d_24">
    <path d="M 318.272727 165.343046 
L 318.272727 116.831611 
" clip-path="url(#p400893d6b1)" style="fill: none; stroke: #424242; stroke-width: 2.25; stroke-linecap: square"/>
   </g>
   <g id="line2d_25">
    <path d="M 369 369.949845 
L 369 357.341171 
" clip-path="url(#p400893d6b1)" style="fill: none; stroke: #424242; stroke-width: 2.25; stroke-linecap: square"/>
   </g>
   <g id="line2d_26">
    <path d="M 419.727273 322.058038 
L 419.727273 288.989583 
" clip-path="url(#p400893d6b1)" style="fill: none; stroke: #424242; stroke-width: 2.25; stroke-linecap: square"/>
   </g>
   <g id="line2d_27">
    <path d="M 470.454545 360.673123 
L 470.454545 336.185411 
" clip-path="url(#p400893d6b1)" style="fill: none; stroke: #424242; stroke-width: 2.25; stroke-linecap: square"/>
   </g>
   <g id="line2d_28">
    <path d="M 521.181818 326.166824 
L 521.181818 255.005691 
" clip-path="url(#p400893d6b1)" style="fill: none; stroke: #424242; stroke-width: 2.25; stroke-linecap: square"/>
   </g>
   <g id="line2d_29">
    <path d="M 571.909091 244.295107 
L 571.909091 67.68 
" clip-path="url(#p400893d6b1)" style="fill: none; stroke: #424242; stroke-width: 2.25; stroke-linecap: square"/>
   </g>
   <g id="line2d_30">
    <path d="M 622.636364 293.404464 
L 622.636364 274.653619 
" clip-path="url(#p400893d6b1)" style="fill: none; stroke: #424242; stroke-width: 2.25; stroke-linecap: square"/>
   </g>
   <g id="patch_14">
    <path d="M 90 384.48 
L 90 51.84 
" style="fill: none; stroke: #000000; stroke-width: 0.8; stroke-linejoin: miter; stroke-linecap: square"/>
   </g>
   <g id="patch_15">
    <path d="M 648 384.48 
L 648 51.84 
" style="fill: none; stroke: #000000; stroke-width: 0.8; stroke-linejoin: miter; stroke-linecap: square"/>
   </g>
   <g id="patch_16">
    <path d="M 90 384.48 
L 648 384.48 
" style="fill: none; stroke: #000000; stroke-width: 0.8; stroke-linejoin: miter; stroke-linecap: square"/>
   </g>
   <g id="patch_17">
    <path d="M 90 51.84 
L 648 51.84 
" style="fill: none; stroke: #000000; stroke-width: 0.8; stroke-linejoin: miter; stroke-linecap: square"/>
   </g>
   <g id="text_22">
    <!-- Mean GDP per Capita by Region -->
    <g transform="translate(272.990625 45.84) scale(0.12 -0.12)">
     <defs>
      <path id="DejaVuSans-62" d="M 3116 1747 
Q 3116 2381 2855 2742 
Q 2594 3103 2138 3103 
Q 1681 3103 1420 2742 
Q 1159 2381 1159 1747 
Q 1159 1113 1420 752 
Q 1681 391 2138 391 
Q 2594 391 2855 752 
Q 3116 1113 3116 1747 
z
M 1159 2969 
Q 1341 3281 1617 3432 
Q 1894 3584 2278 3584 
Q 2916 3584 3314 3078 
Q 3713 2572 3713 1747 
Q 3713 922 3314 415 
Q 2916 -91 2278 -91 
Q 1894 -91 1617 61 
Q 1341 213 1159 525 
L 1159 0 
L 581 0 
L 581 4863 
L 1159 4863 
L 1159 2969 
z
" transform="scale(0.015625)"/>
      <path id="DejaVuSans-79" d="M 2059 -325 
Q 1816 -950 1584 -1140 
Q 1353 -1331 966 -1331 
L 506 -1331 
L 506 -850 
L 844 -850 
Q 1081 -850 1212 -737 
Q 1344 -625 1503 -206 
L 1606 56 
L 191 3500 
L 800 3500 
L 1894 763 
L 2988 3500 
L 3597 3500 
L 2059 -325 
z
" transform="scale(0.015625)"/>
     </defs>
     <use xlink:href="#DejaVuSans-4d"/>
     <use xlink:href="#DejaVuSans-65" x="86.279297"/>
     <use xlink:href="#DejaVuSans-61" x="147.802734"/>
     <use xlink:href="#DejaVuSans-6e" x="209.082031"/>
     <use xlink:href="#DejaVuSans-20" x="272.460938"/>
     <use xlink:href="#DejaVuSans-47" x="304.248047"/>
     <use xlink:href="#DejaVuSans-44" x="381.738281"/>
     <use xlink:href="#DejaVuSans-50" x="458.740234"/>
     <use xlink:href="#DejaVuSans-20" x="519.042969"/>
     <use xlink:href="#DejaVuSans-70" x="550.830078"/>
     <use xlink:href="#DejaVuSans-65" x="614.306641"/>
     <use xlink:href="#DejaVuSans-72" x="675.830078"/>
     <use xlink:href="#DejaVuSans-20" x="716.943359"/>
     <use xlink:href="#DejaVuSans-43" x="748.730469"/>
     <use xlink:href="#DejaVuSans-61" x="818.554688"/>
     <use xlink:href="#DejaVuSans-70" x="879.833984"/>
     <use xlink:href="#DejaVuSans-69" x="943.310547"/>
     <use xlink:href="#DejaVuSans-74" x="971.09375"/>
     <use xlink:href="#DejaVuSans-61" x="1010.302734"/>
     <use xlink:href="#DejaVuSans-20" x="1071.582031"/>
     <use xlink:href="#DejaVuSans-62" x="1103.369141"/>
     <use xlink:href="#DejaVuSans-79" x="1166.845703"/>
     <use xlink:href="#DejaVuSans-20" x="1226.025391"/>
     <use xlink:href="#DejaVuSans-52" x="1257.8125"/>
     <use xlink:href="#DejaVuSans-65" x="1322.794922"/>
     <use xlink:href="#DejaVuSans-67" x="1384.318359"/>
     <use xlink:href="#DejaVuSans-69" x="1447.794922"/>
     <use xlink:href="#DejaVuSans-6f" x="1475.578125"/>
     <use xlink:href="#DejaVuSans-6e" x="1536.759766"/>
    </g>
   </g>
  </g>
 </g>
 <defs>
  <clipPath id="p400893d6b1">
   <rect x="90" y="51.84" width="558" height="332.64"/>
  </clipPath>
 </defs>
</svg>
