<?xml version="1.0" encoding="utf-8" standalone="no"?>
<!DOCTYPE svg PUBLIC "-//W3C//DTD SVG 1.1//EN"
  "http://www.w3.org/Graphics/SVG/1.1/DTD/svg11.dtd">
<svg xmlns:xlink="http://www.w3.org/1999/xlink" width="864pt" height="288pt" viewBox="0 0 864 288" xmlns="http://www.w3.org/2000/svg" version="1.1">
 <metadata>
  <rdf:RDF xmlns:dc="http://purl.org/dc/elements/1.1/" xmlns:cc="http://creativecommons.org/ns#" xmlns:rdf="http://www.w3.org/1999/02/22-rdf-syntax-ns#">
   <cc:Work>
    <dc:type rdf:resource="http://purl.org/dc/dcmitype/StillImage"/>
    <dc:date>2025-04-27T01:53:20.954923</dc:date>
    <dc:format>image/svg+xml</dc:format>
    <dc:creator>
     <cc:Agent>
      <dc:title>Matplotlib v3.9.2, https://matplotlib.org/</dc:title>
     </cc:Agent>
    </dc:creator>
   </cc:Work>
  </rdf:RDF>
 </metadata>
 <defs>
  <style type="text/css">*{stroke-linejoin: round; stroke-linecap: butt}</style>
 </defs>
 <g id="figure_1">
  <g id="patch_1">
   <path d="M 0 288 
L 864 288 
L 864 0 
L 0 0 
z
" style="fill: #ffffff"/>
  </g>
  <g id="axes_1">
   <g id="patch_2">
    <path d="M 108 256.32 
L 777.6 256.32 
L 777.6 34.56 
L 108 34.56 
z
" style="fill: #ffffff"/>
   </g>
   <g id="PolyCollection_1">
    <defs>
     <path id="m0d71f9dcac" d="M 138.436364 -31.702059 
L 138.436364 -31.68 
L 140.098555 -31.68 
L 141.760747 -31.68 
L 143.422939 -31.68 
L 145.085131 -31.68 
L 146.747322 -31.68 
L 148.409514 -31.68 
L 150.071706 -31.68 
L 151.733898 -31.68 
L 153.39609 -31.68 
L 155.058281 -31.68 
L 156.720473 -31.68 
L 158.382665 -31.68 
L 160.044857 -31.68 
L 161.707048 -31.68 
L 163.36924 -31.68 
L 165.031432 -31.68 
L 166.693624 -31.68 
L 168.355815 -31.68 
L 170.018007 -31.68 
L 171.680199 -31.68 
L 173.342391 -31.68 
L 175.004583 -31.68 
L 176.666774 -31.68 
L 178.328966 -31.68 
L 179.991158 -31.68 
L 181.65335 -31.68 
L 183.315541 -31.68 
L 184.977733 -31.68 
L 186.639925 -31.68 
L 188.302117 -31.68 
L 189.964308 -31.68 
L 191.6265 -31.68 
L 193.288692 -31.68 
L 194.950884 -31.68 
L 196.613075 -31.68 
L 198.275267 -31.68 
L 199.937459 -31.68 
L 201.599651 -31.68 
L 203.261843 -31.68 
L 204.924034 -31.68 
L 206.586226 -31.68 
L 208.248418 -31.68 
L 209.91061 -31.68 
L 211.572801 -31.68 
L 213.234993 -31.68 
L 214.897185 -31.68 
L 216.559377 -31.68 
L 218.221568 -31.68 
L 219.88376 -31.68 
L 221.545952 -31.68 
L 223.208144 -31.68 
L 224.870336 -31.68 
L 226.532527 -31.68 
L 228.194719 -31.68 
L 229.856911 -31.68 
L 231.519103 -31.68 
L 233.181294 -31.68 
L 234.843486 -31.68 
L 236.505678 -31.68 
L 238.16787 -31.68 
L 239.830061 -31.68 
L 241.492253 -31.68 
L 243.154445 -31.68 
L 244.816637 -31.68 
L 246.478828 -31.68 
L 248.14102 -31.68 
L 249.803212 -31.68 
L 251.465404 -31.68 
L 253.127596 -31.68 
L 254.789787 -31.68 
L 256.451979 -31.68 
L 258.114171 -31.68 
L 259.776363 -31.68 
L 261.438554 -31.68 
L 263.100746 -31.68 
L 264.762938 -31.68 
L 266.42513 -31.68 
L 268.087321 -31.68 
L 269.749513 -31.68 
L 271.411705 -31.68 
L 273.073897 -31.68 
L 274.736089 -31.68 
L 276.39828 -31.68 
L 278.060472 -31.68 
L 279.722664 -31.68 
L 281.384856 -31.68 
L 283.047047 -31.68 
L 284.709239 -31.68 
L 286.371431 -31.68 
L 288.033623 -31.68 
L 289.695814 -31.68 
L 291.358006 -31.68 
L 293.020198 -31.68 
L 294.68239 -31.68 
L 296.344582 -31.68 
L 298.006773 -31.68 
L 299.668965 -31.68 
L 301.331157 -31.68 
L 302.993349 -31.68 
L 304.65554 -31.68 
L 306.317732 -31.68 
L 307.979924 -31.68 
L 309.642116 -31.68 
L 311.304307 -31.68 
L 312.966499 -31.68 
L 314.628691 -31.68 
L 316.290883 -31.68 
L 317.953074 -31.68 
L 319.615266 -31.68 
L 321.277458 -31.68 
L 322.93965 -31.68 
L 324.601842 -31.68 
L 326.264033 -31.68 
L 327.926225 -31.68 
L 329.588417 -31.68 
L 331.250609 -31.68 
L 332.9128 -31.68 
L 334.574992 -31.68 
L 336.237184 -31.68 
L 337.899376 -31.68 
L 339.561567 -31.68 
L 341.223759 -31.68 
L 342.885951 -31.68 
L 344.548143 -31.68 
L 346.210335 -31.68 
L 347.872526 -31.68 
L 349.534718 -31.68 
L 351.19691 -31.68 
L 352.859102 -31.68 
L 354.521293 -31.68 
L 356.183485 -31.68 
L 357.845677 -31.68 
L 359.507869 -31.68 
L 361.17006 -31.68 
L 362.832252 -31.68 
L 364.494444 -31.68 
L 366.156636 -31.68 
L 367.818827 -31.68 
L 369.481019 -31.68 
L 371.143211 -31.68 
L 372.805403 -31.68 
L 374.467595 -31.68 
L 376.129786 -31.68 
L 377.791978 -31.68 
L 379.45417 -31.68 
L 381.116362 -31.68 
L 382.778553 -31.68 
L 384.440745 -31.68 
L 386.102937 -31.68 
L 387.765129 -31.68 
L 389.42732 -31.68 
L 391.089512 -31.68 
L 392.751704 -31.68 
L 394.413896 -31.68 
L 396.076088 -31.68 
L 397.738279 -31.68 
L 399.400471 -31.68 
L 401.062663 -31.68 
L 402.724855 -31.68 
L 404.387046 -31.68 
L 406.049238 -31.68 
L 407.71143 -31.68 
L 409.373622 -31.68 
L 411.035813 -31.68 
L 412.698005 -31.68 
L 414.360197 -31.68 
L 416.022389 -31.68 
L 417.68458 -31.68 
L 419.346772 -31.68 
L 421.008964 -31.68 
L 422.671156 -31.68 
L 424.333348 -31.68 
L 425.995539 -31.68 
L 427.657731 -31.68 
L 429.319923 -31.68 
L 430.982115 -31.68 
L 432.644306 -31.68 
L 434.306498 -31.68 
L 435.96869 -31.68 
L 437.630882 -31.68 
L 439.293073 -31.68 
L 440.955265 -31.68 
L 442.617457 -31.68 
L 444.279649 -31.68 
L 445.941841 -31.68 
L 447.604032 -31.68 
L 449.266224 -31.68 
L 450.928416 -31.68 
L 452.590608 -31.68 
L 454.252799 -31.68 
L 455.914991 -31.68 
L 457.577183 -31.68 
L 459.239375 -31.68 
L 460.901566 -31.68 
L 462.563758 -31.68 
L 464.22595 -31.68 
L 465.888142 -31.68 
L 467.550334 -31.68 
L 469.212525 -31.68 
L 469.212525 -31.70162 
L 469.212525 -31.70162 
L 467.550334 -31.711628 
L 465.888142 -31.725502 
L 464.22595 -31.744378 
L 462.563758 -31.769577 
L 460.901566 -31.802581 
L 459.239375 -31.84498 
L 457.577183 -31.898395 
L 455.914991 -31.964366 
L 454.252799 -32.044228 
L 452.590608 -32.138955 
L 450.928416 -32.249014 
L 449.266224 -32.374226 
L 447.604032 -32.513674 
L 445.941841 -32.665654 
L 444.279649 -32.827722 
L 442.617457 -32.99682 
L 440.955265 -33.169504 
L 439.293073 -33.342259 
L 437.630882 -33.511877 
L 435.96869 -33.675877 
L 434.306498 -33.832909 
L 432.644306 -33.983102 
L 430.982115 -34.128312 
L 429.319923 -34.272221 
L 427.657731 -34.42027 
L 425.995539 -34.579412 
L 424.333348 -34.757697 
L 422.671156 -34.963718 
L 421.008964 -35.205968 
L 419.346772 -35.492162 
L 417.68458 -35.828588 
L 416.022389 -36.219555 
L 414.360197 -36.666987 
L 412.698005 -37.170222 
L 411.035813 -37.726035 
L 409.373622 -38.328915 
L 407.71143 -38.971595 
L 406.049238 -39.645818 
L 404.387046 -40.343324 
L 402.724855 -41.056993 
L 401.062663 -41.782097 
L 399.400471 -42.517575 
L 397.738279 -43.267234 
L 396.076088 -44.040776 
L 394.413896 -44.854518 
L 392.751704 -45.731714 
L 391.089512 -46.702352 
L 389.42732 -47.802373 
L 387.765129 -49.07225 
L 386.102937 -50.554969 
L 384.440745 -52.293469 
L 382.778553 -54.327699 
L 381.116362 -56.691496 
L 379.45417 -59.409541 
L 377.791978 -62.494693 
L 376.129786 -65.945991 
L 374.467595 -69.747586 
L 372.805403 -73.868815 
L 371.143211 -78.265495 
L 369.481019 -82.882444 
L 367.818827 -87.657057 
L 366.156636 -92.523667 
L 364.494444 -97.418309 
L 362.832252 -102.28342 
L 361.17006 -107.072029 
L 359.507869 -111.750981 
L 357.845677 -116.302872 
L 356.183485 -120.726483 
L 354.521293 -125.035684 
L 352.859102 -129.256932 
L 351.19691 -133.425667 
L 349.534718 -137.582022 
L 347.872526 -141.766315 
L 346.210335 -146.014818 
L 344.548143 -150.356217 
L 342.885951 -154.809077 
L 341.223759 -159.380475 
L 339.561567 -164.065806 
L 337.899376 -168.84962 
L 336.237184 -173.707248 
L 334.574992 -178.606918 
L 332.9128 -183.512047 
L 331.250609 -188.383462 
L 329.588417 -193.18136 
L 327.926225 -197.866927 
L 326.264033 -202.403621 
L 324.601842 -206.758164 
L 322.93965 -210.901349 
L 321.277458 -214.808714 
L 319.615266 -218.461127 
L 317.953074 -221.845251 
L 316.290883 -224.953825 
L 314.628691 -227.785633 
L 312.966499 -230.345074 
L 311.304307 -232.641231 
L 309.642116 -234.686419 
L 307.979924 -236.49427 
L 306.317732 -238.077453 
L 304.65554 -239.445251 
L 302.993349 -240.601202 
L 301.331157 -241.541071 
L 299.668965 -242.251383 
L 298.006773 -242.708735 
L 296.344582 -242.88 
L 294.68239 -242.723529 
L 293.020198 -242.19131 
L 291.358006 -241.232004 
L 289.695814 -239.79468 
L 288.033623 -237.833004 
L 286.371431 -235.309564 
L 284.709239 -232.200003 
L 283.047047 -228.496588 
L 281.384856 -224.210888 
L 279.722664 -219.375271 
L 278.060472 -214.043035 
L 276.39828 -208.28708 
L 274.736089 -202.197172 
L 273.073897 -195.875979 
L 271.411705 -189.434157 
L 269.749513 -182.984866 
L 268.087321 -176.638122 
L 266.42513 -170.495414 
L 264.762938 -164.64494 
L 263.100746 -159.157784 
L 261.438554 -154.085215 
L 259.776363 -149.45723 
L 258.114171 -145.282336 
L 256.451979 -141.548494 
L 254.789787 -138.225111 
L 253.127596 -135.265877 
L 251.465404 -132.612277 
L 249.803212 -130.197537 
L 248.14102 -127.950796 
L 246.478828 -125.801269 
L 244.816637 -123.682157 
L 243.154445 -121.53409 
L 241.492253 -119.307878 
L 239.830061 -116.966415 
L 238.16787 -114.48561 
L 236.505678 -111.854334 
L 234.843486 -109.073426 
L 233.181294 -106.15393 
L 231.519103 -103.114771 
L 229.856911 -99.980177 
L 228.194719 -96.777121 
L 226.532527 -93.533055 
L 224.870336 -90.274152 
L 223.208144 -87.024152 
L 221.545952 -83.803839 
L 219.88376 -80.631072 
L 218.221568 -77.521201 
L 216.559377 -74.487686 
L 214.897185 -71.54273 
L 213.234993 -68.69774 
L 211.572801 -65.963531 
L 209.91061 -63.350239 
L 208.248418 -60.86696 
L 206.586226 -58.521234 
L 204.924034 -56.318488 
L 203.261843 -54.26156 
L 201.599651 -52.350419 
L 199.937459 -50.582147 
L 198.275267 -48.951193 
L 196.613075 -47.449857 
L 194.950884 -46.06894 
L 193.288692 -44.798463 
L 191.6265 -43.628344 
L 189.964308 -42.548969 
L 188.302117 -41.551593 
L 186.639925 -40.628561 
L 184.977733 -39.773349 
L 183.315541 -38.980489 
L 181.65335 -38.2454 
L 179.991158 -37.564197 
L 178.328966 -36.933521 
L 176.666774 -36.350401 
L 175.004583 -35.812178 
L 173.342391 -35.316463 
L 171.680199 -34.86113 
L 170.018007 -34.444315 
L 168.355815 -34.064395 
L 166.693624 -33.719956 
L 165.031432 -33.409722 
L 163.36924 -33.132471 
L 161.707048 -32.886941 
L 160.044857 -32.671744 
L 158.382665 -32.485295 
L 156.720473 -32.325777 
L 155.058281 -32.191136 
L 153.39609 -32.079114 
L 151.733898 -31.987304 
L 150.071706 -31.913227 
L 148.409514 -31.854413 
L 146.747322 -31.808481 
L 145.085131 -31.773205 
L 143.422939 -31.746573 
L 141.760747 -31.726807 
L 140.098555 -31.712392 
L 138.436364 -31.702059 
z
" style="stroke: #377eb8"/>
    </defs>
    <g clip-path="url(#pdefc11f3f8)">
     <use xlink:href="#m0d71f9dcac" x="0" y="288" style="fill: #377eb8; fill-opacity: 0.4; stroke: #377eb8"/>
    </g>
   </g>
   <g id="PolyCollection_2">
    <defs>
     <path id="m797cf5a287" d="M 192.724723 -31.703779 
L 192.724723 -31.68 
L 195.510848 -31.68 
L 198.296973 -31.68 
L 201.083098 -31.68 
L 203.869224 -31.68 
L 206.655349 -31.68 
L 209.441474 -31.68 
L 212.227599 -31.68 
L 215.013724 -31.68 
L 217.799849 -31.68 
L 220.585975 -31.68 
L 223.3721 -31.68 
L 226.158225 -31.68 
L 228.94435 -31.68 
L 231.730475 -31.68 
L 234.516601 -31.68 
L 237.302726 -31.68 
L 240.088851 -31.68 
L 242.874976 -31.68 
L 245.661101 -31.68 
L 248.447227 -31.68 
L 251.233352 -31.68 
L 254.019477 -31.68 
L 256.805602 -31.68 
L 259.591727 -31.68 
L 262.377853 -31.68 
L 265.163978 -31.68 
L 267.950103 -31.68 
L 270.736228 -31.68 
L 273.522353 -31.68 
L 276.308479 -31.68 
L 279.094604 -31.68 
L 281.880729 -31.68 
L 284.666854 -31.68 
L 287.452979 -31.68 
L 290.239105 -31.68 
L 293.02523 -31.68 
L 295.811355 -31.68 
L 298.59748 -31.68 
L 301.383605 -31.68 
L 304.169731 -31.68 
L 306.955856 -31.68 
L 309.741981 -31.68 
L 312.528106 -31.68 
L 315.314231 -31.68 
L 318.100356 -31.68 
L 320.886482 -31.68 
L 323.672607 -31.68 
L 326.458732 -31.68 
L 329.244857 -31.68 
L 332.030982 -31.68 
L 334.817108 -31.68 
L 337.603233 -31.68 
L 340.389358 -31.68 
L 343.175483 -31.68 
L 345.961608 -31.68 
L 348.747734 -31.68 
L 351.533859 -31.68 
L 354.319984 -31.68 
L 357.106109 -31.68 
L 359.892234 -31.68 
L 362.67836 -31.68 
L 365.464485 -31.68 
L 368.25061 -31.68 
L 371.036735 -31.68 
L 373.82286 -31.68 
L 376.608986 -31.68 
L 379.395111 -31.68 
L 382.181236 -31.68 
L 384.967361 -31.68 
L 387.753486 -31.68 
L 390.539612 -31.68 
L 393.325737 -31.68 
L 396.111862 -31.68 
L 398.897987 -31.68 
L 401.684112 -31.68 
L 404.470237 -31.68 
L 407.256363 -31.68 
L 410.042488 -31.68 
L 412.828613 -31.68 
L 415.614738 -31.68 
L 418.400863 -31.68 
L 421.186989 -31.68 
L 423.973114 -31.68 
L 426.759239 -31.68 
L 429.545364 -31.68 
L 432.331489 -31.68 
L 435.117615 -31.68 
L 437.90374 -31.68 
L 440.689865 -31.68 
L 443.47599 -31.68 
L 446.262115 -31.68 
L 449.048241 -31.68 
L 451.834366 -31.68 
L 454.620491 -31.68 
L 457.406616 -31.68 
L 460.192741 -31.68 
L 462.978867 -31.68 
L 465.764992 -31.68 
L 468.551117 -31.68 
L 471.337242 -31.68 
L 474.123367 -31.68 
L 476.909493 -31.68 
L 479.695618 -31.68 
L 482.481743 -31.68 
L 485.267868 -31.68 
L 488.053993 -31.68 
L 490.840119 -31.68 
L 493.626244 -31.68 
L 496.412369 -31.68 
L 499.198494 -31.68 
L 501.984619 -31.68 
L 504.770744 -31.68 
L 507.55687 -31.68 
L 510.342995 -31.68 
L 513.12912 -31.68 
L 515.915245 -31.68 
L 518.70137 -31.68 
L 521.487496 -31.68 
L 524.273621 -31.68 
L 527.059746 -31.68 
L 529.845871 -31.68 
L 532.631996 -31.68 
L 535.418122 -31.68 
L 538.204247 -31.68 
L 540.990372 -31.68 
L 543.776497 -31.68 
L 546.562622 -31.68 
L 549.348748 -31.68 
L 552.134873 -31.68 
L 554.920998 -31.68 
L 557.707123 -31.68 
L 560.493248 -31.68 
L 563.279374 -31.68 
L 566.065499 -31.68 
L 568.851624 -31.68 
L 571.637749 -31.68 
L 574.423874 -31.68 
L 577.21 -31.68 
L 579.996125 -31.68 
L 582.78225 -31.68 
L 585.568375 -31.68 
L 588.3545 -31.68 
L 591.140625 -31.68 
L 593.926751 -31.68 
L 596.712876 -31.68 
L 599.499001 -31.68 
L 602.285126 -31.68 
L 605.071251 -31.68 
L 607.857377 -31.68 
L 610.643502 -31.68 
L 613.429627 -31.68 
L 616.215752 -31.68 
L 619.001877 -31.68 
L 621.788003 -31.68 
L 624.574128 -31.68 
L 627.360253 -31.68 
L 630.146378 -31.68 
L 632.932503 -31.68 
L 635.718629 -31.68 
L 638.504754 -31.68 
L 641.290879 -31.68 
L 644.077004 -31.68 
L 646.863129 -31.68 
L 649.649255 -31.68 
L 652.43538 -31.68 
L 655.221505 -31.68 
L 658.00763 -31.68 
L 660.793755 -31.68 
L 663.579881 -31.68 
L 666.366006 -31.68 
L 669.152131 -31.68 
L 671.938256 -31.68 
L 674.724381 -31.68 
L 677.510507 -31.68 
L 680.296632 -31.68 
L 683.082757 -31.68 
L 685.868882 -31.68 
L 688.655007 -31.68 
L 691.441132 -31.68 
L 694.227258 -31.68 
L 697.013383 -31.68 
L 699.799508 -31.68 
L 702.585633 -31.68 
L 705.371758 -31.68 
L 708.157884 -31.68 
L 710.944009 -31.68 
L 713.730134 -31.68 
L 716.516259 -31.68 
L 719.302384 -31.68 
L 722.08851 -31.68 
L 724.874635 -31.68 
L 727.66076 -31.68 
L 730.446885 -31.68 
L 733.23301 -31.68 
L 736.019136 -31.68 
L 738.805261 -31.68 
L 741.591386 -31.68 
L 744.377511 -31.68 
L 747.163636 -31.68 
L 747.163636 -31.692849 
L 747.163636 -31.692849 
L 744.377511 -31.697917 
L 741.591386 -31.704712 
L 738.805261 -31.713711 
L 736.019136 -31.725489 
L 733.23301 -31.740718 
L 730.446885 -31.760173 
L 727.66076 -31.784727 
L 724.874635 -31.815344 
L 722.08851 -31.853055 
L 719.302384 -31.898938 
L 716.516259 -31.954077 
L 713.730134 -32.019518 
L 710.944009 -32.096214 
L 708.157884 -32.184965 
L 705.371758 -32.286348 
L 702.585633 -32.400657 
L 699.799508 -32.527834 
L 697.013383 -32.66742 
L 694.227258 -32.818511 
L 691.441132 -32.979739 
L 688.655007 -33.149277 
L 685.868882 -33.324866 
L 683.082757 -33.503876 
L 680.296632 -33.683395 
L 677.510507 -33.860343 
L 674.724381 -34.03161 
L 671.938256 -34.194206 
L 669.152131 -34.34542 
L 666.366006 -34.482972 
L 663.579881 -34.605152 
L 660.793755 -34.71093 
L 658.00763 -34.800034 
L 655.221505 -34.87298 
L 652.43538 -34.931069 
L 649.649255 -34.976321 
L 646.863129 -35.011378 
L 644.077004 -35.039366 
L 641.290879 -35.063732 
L 638.504754 -35.088066 
L 635.718629 -35.115929 
L 632.932503 -35.150681 
L 630.146378 -35.195348 
L 627.360253 -35.252509 
L 624.574128 -35.324235 
L 621.788003 -35.412056 
L 619.001877 -35.516976 
L 616.215752 -35.639518 
L 613.429627 -35.77979 
L 610.643502 -35.93757 
L 607.857377 -36.112398 
L 605.071251 -36.303658 
L 602.285126 -36.510653 
L 599.499001 -36.732668 
L 596.712876 -36.969015 
L 593.926751 -37.219074 
L 591.140625 -37.482322 
L 588.3545 -37.758376 
L 585.568375 -38.047042 
L 582.78225 -38.348386 
L 579.996125 -38.662833 
L 577.21 -38.991296 
L 574.423874 -39.335316 
L 571.637749 -39.697237 
L 568.851624 -40.080362 
L 566.065499 -40.489109 
L 563.279374 -40.929131 
L 560.493248 -41.407376 
L 557.707123 -41.932081 
L 554.920998 -42.512683 
L 552.134873 -43.159629 
L 549.348748 -43.884094 
L 546.562622 -44.697607 
L 543.776497 -45.611593 
L 540.990372 -46.636855 
L 538.204247 -47.783025 
L 535.418122 -49.05799 
L 532.631996 -50.467354 
L 529.845871 -52.013937 
L 527.059746 -53.697362 
L 524.273621 -55.513738 
L 521.487496 -57.455475 
L 518.70137 -59.511235 
L 515.915245 -61.666037 
L 513.12912 -63.901511 
L 510.342995 -66.196299 
L 507.55687 -68.526594 
L 504.770744 -70.866793 
L 501.984619 -73.190231 
L 499.198494 -75.469987 
L 496.412369 -77.679703 
L 493.626244 -79.794389 
L 490.840119 -81.791183 
L 488.053993 -83.650023 
L 485.267868 -85.354204 
L 482.481743 -86.890794 
L 479.695618 -88.250898 
L 476.909493 -89.429753 
L 474.123367 -90.42667 
L 471.337242 -91.244812 
L 468.551117 -91.890848 
L 465.764992 -92.3745 
L 462.978867 -92.708011 
L 460.192741 -92.905567 
L 457.406616 -92.982723 
L 454.620491 -92.955847 
L 451.834366 -92.841619 
L 449.048241 -92.656607 
L 446.262115 -92.416935 
L 443.47599 -92.138043 
L 440.689865 -91.834535 
L 437.90374 -91.520106 
L 435.117615 -91.207513 
L 432.331489 -90.908584 
L 429.545364 -90.634213 
L 426.759239 -90.394335 
L 423.973114 -90.197847 
L 421.186989 -90.052464 
L 418.400863 -89.96451 
L 415.614738 -89.93865 
L 412.828613 -89.977583 
L 410.042488 -90.081724 
L 407.256363 -90.248918 
L 404.470237 -90.474208 
L 401.684112 -90.749718 
L 398.897987 -91.064662 
L 396.111862 -91.405508 
L 393.325737 -91.756306 
L 390.539612 -92.099172 
L 387.753486 -92.414902 
L 384.967361 -92.683681 
L 382.181236 -92.885854 
L 379.395111 -93.002681 
L 376.608986 -93.017057 
L 373.82286 -92.914124 
L 371.036735 -92.681746 
L 368.25061 -92.310822 
L 365.464485 -91.795433 
L 362.67836 -91.132814 
L 359.892234 -90.323179 
L 357.106109 -89.369432 
L 354.319984 -88.276794 
L 351.533859 -87.052397 
L 348.747734 -85.704873 
L 345.961608 -84.243976 
L 343.175483 -82.680264 
L 340.389358 -81.024849 
L 337.603233 -79.289214 
L 334.817108 -77.485098 
L 332.030982 -75.624423 
L 329.244857 -73.719244 
L 326.458732 -71.781708 
L 323.672607 -69.823986 
L 320.886482 -67.858186 
L 318.100356 -65.896216 
L 315.314231 -63.949616 
L 312.528106 -62.029359 
L 309.741981 -60.145633 
L 306.955856 -58.307636 
L 304.169731 -56.523383 
L 301.383605 -54.799563 
L 298.59748 -53.141449 
L 295.811355 -51.552879 
L 293.02523 -50.036304 
L 290.239105 -48.5929 
L 287.452979 -47.22274 
L 284.666854 -45.925003 
L 281.880729 -44.698206 
L 279.094604 -43.54044 
L 276.308479 -42.449585 
L 273.522353 -41.423498 
L 270.736228 -40.460157 
L 267.950103 -39.557749 
L 265.163978 -38.71471 
L 262.377853 -37.929719 
L 259.591727 -37.201645 
L 256.805602 -36.529468 
L 254.019477 -35.912183 
L 251.233352 -35.348695 
L 248.447227 -34.83773 
L 245.661101 -34.377749 
L 242.874976 -33.966901 
L 240.088851 -33.602994 
L 237.302726 -33.283497 
L 234.516601 -33.005567 
L 231.730475 -32.766105 
L 228.94435 -32.561821 
L 226.158225 -32.389312 
L 223.3721 -32.245144 
L 220.585975 -32.125935 
L 217.799849 -32.028421 
L 215.013724 -31.949523 
L 212.227599 -31.886389 
L 209.441474 -31.836431 
L 206.655349 -31.797344 
L 203.869224 -31.767107 
L 201.083098 -31.743982 
L 198.296973 -31.726499 
L 195.510848 -31.713432 
L 192.724723 -31.703779 
z
" style="stroke: #e41a1c"/>
    </defs>
    <g clip-path="url(#pdefc11f3f8)">
     <use xlink:href="#m797cf5a287" x="0" y="288" style="fill: #e41a1c; fill-opacity: 0.4; stroke: #e41a1c"/>
    </g>
   </g>
   <g id="matplotlib.axis_1">
    <g id="xtick_1">
     <g id="line2d_1">
      <defs>
       <path id="me7a1a233f4" d="M 0 0 
L 0 3.5 
" style="stroke: #000000; stroke-width: 0.8"/>
      </defs>
      <g>
       <use xlink:href="#me7a1a233f4" x="130.676522" y="256.32" style="stroke: #000000; stroke-width: 0.8"/>
      </g>
     </g>
     <g id="text_1">
      <!-- 5 -->
      <g transform="translate(127.495272 270.918437) scale(0.1 -0.1)">
       <defs>
        <path id="DejaVuSans-35" d="M 691 4666 
L 3169 4666 
L 3169 4134 
L 1269 4134 
L 1269 2991 
Q 1406 3038 1543 3061 
Q 1681 3084 1819 3084 
Q 2600 3084 3056 2656 
Q 3513 2228 3513 1497 
Q 3513 744 3044 326 
Q 2575 -91 1722 -91 
Q 1428 -91 1123 -41 
Q 819 9 494 109 
L 494 744 
Q 775 591 1075 516 
Q 1375 441 1709 441 
Q 2250 441 2565 725 
Q 2881 1009 2881 1497 
Q 2881 1984 2565 2268 
Q 2250 2553 1709 2553 
Q 1456 2553 1204 2497 
Q 953 2441 691 2322 
L 691 4666 
z
" transform="scale(0.015625)"/>
       </defs>
       <use xlink:href="#DejaVuSans-35"/>
      </g>
     </g>
    </g>
    <g id="xtick_2">
     <g id="line2d_2">
      <g>
       <use xlink:href="#me7a1a233f4" x="247.423823" y="256.32" style="stroke: #000000; stroke-width: 0.8"/>
      </g>
     </g>
     <g id="text_2">
      <!-- 10 -->
      <g transform="translate(241.061323 270.918437) scale(0.1 -0.1)">
       <defs>
        <path id="DejaVuSans-31" d="M 794 531 
L 1825 531 
L 1825 4091 
L 703 3866 
L 703 4441 
L 1819 4666 
L 2450 4666 
L 2450 531 
L 3481 531 
L 3481 0 
L 794 0 
L 794 531 
z
" transform="scale(0.015625)"/>
        <path id="DejaVuSans-30" d="M 2034 4250 
Q 1547 4250 1301 3770 
Q 1056 3291 1056 2328 
Q 1056 1369 1301 889 
Q 1547 409 2034 409 
Q 2525 409 2770 889 
Q 3016 1369 3016 2328 
Q 3016 3291 2770 3770 
Q 2525 4250 2034 4250 
z
M 2034 4750 
Q 2819 4750 3233 4129 
Q 3647 3509 3647 2328 
Q 3647 1150 3233 529 
Q 2819 -91 2034 -91 
Q 1250 -91 836 529 
Q 422 1150 422 2328 
Q 422 3509 836 4129 
Q 1250 4750 2034 4750 
z
" transform="scale(0.015625)"/>
       </defs>
       <use xlink:href="#DejaVuSans-31"/>
       <use xlink:href="#DejaVuSans-30" x="63.623047"/>
      </g>
     </g>
    </g>
    <g id="xtick_3">
     <g id="line2d_3">
      <g>
       <use xlink:href="#me7a1a233f4" x="364.171125" y="256.32" style="stroke: #000000; stroke-width: 0.8"/>
      </g>
     </g>
     <g id="text_3">
      <!-- 15 -->
      <g transform="translate(357.808625 270.918437) scale(0.1 -0.1)">
       <use xlink:href="#DejaVuSans-31"/>
       <use xlink:href="#DejaVuSans-35" x="63.623047"/>
      </g>
     </g>
    </g>
    <g id="xtick_4">
     <g id="line2d_4">
      <g>
       <use xlink:href="#me7a1a233f4" x="480.918426" y="256.32" style="stroke: #000000; stroke-width: 0.8"/>
      </g>
     </g>
     <g id="text_4">
      <!-- 20 -->
      <g transform="translate(474.555926 270.918437) scale(0.1 -0.1)">
       <defs>
        <path id="DejaVuSans-32" d="M 1228 531 
L 3431 531 
L 3431 0 
L 469 0 
L 469 531 
Q 828 903 1448 1529 
Q 2069 2156 2228 2338 
Q 2531 2678 2651 2914 
Q 2772 3150 2772 3378 
Q 2772 3750 2511 3984 
Q 2250 4219 1831 4219 
Q 1534 4219 1204 4116 
Q 875 4013 500 3803 
L 500 4441 
Q 881 4594 1212 4672 
Q 1544 4750 1819 4750 
Q 2544 4750 2975 4387 
Q 3406 4025 3406 3419 
Q 3406 3131 3298 2873 
Q 3191 2616 2906 2266 
Q 2828 2175 2409 1742 
Q 1991 1309 1228 531 
z
" transform="scale(0.015625)"/>
       </defs>
       <use xlink:href="#DejaVuSans-32"/>
       <use xlink:href="#DejaVuSans-30" x="63.623047"/>
      </g>
     </g>
    </g>
    <g id="xtick_5">
     <g id="line2d_5">
      <g>
       <use xlink:href="#me7a1a233f4" x="597.665727" y="256.32" style="stroke: #000000; stroke-width: 0.8"/>
      </g>
     </g>
     <g id="text_5">
      <!-- 25 -->
      <g transform="translate(591.303227 270.918437) scale(0.1 -0.1)">
       <use xlink:href="#DejaVuSans-32"/>
       <use xlink:href="#DejaVuSans-35" x="63.623047"/>
      </g>
     </g>
    </g>
    <g id="xtick_6">
     <g id="line2d_6">
      <g>
       <use xlink:href="#me7a1a233f4" x="714.413029" y="256.32" style="stroke: #000000; stroke-width: 0.8"/>
      </g>
     </g>
     <g id="text_6">
      <!-- 30 -->
      <g transform="translate(708.050529 270.918437) scale(0.1 -0.1)">
       <defs>
        <path id="DejaVuSans-33" d="M 2597 2516 
Q 3050 2419 3304 2112 
Q 3559 1806 3559 1356 
Q 3559 666 3084 287 
Q 2609 -91 1734 -91 
Q 1441 -91 1130 -33 
Q 819 25 488 141 
L 488 750 
Q 750 597 1062 519 
Q 1375 441 1716 441 
Q 2309 441 2620 675 
Q 2931 909 2931 1356 
Q 2931 1769 2642 2001 
Q 2353 2234 1838 2234 
L 1294 2234 
L 1294 2753 
L 1863 2753 
Q 2328 2753 2575 2939 
Q 2822 3125 2822 3475 
Q 2822 3834 2567 4026 
Q 2313 4219 1838 4219 
Q 1578 4219 1281 4162 
Q 984 4106 628 3988 
L 628 4550 
Q 988 4650 1302 4700 
Q 1616 4750 1894 4750 
Q 2613 4750 3031 4423 
Q 3450 4097 3450 3541 
Q 3450 3153 3228 2886 
Q 3006 2619 2597 2516 
z
" transform="scale(0.015625)"/>
       </defs>
       <use xlink:href="#DejaVuSans-33"/>
       <use xlink:href="#DejaVuSans-30" x="63.623047"/>
      </g>
     </g>
    </g>
    <g id="text_7">
     <!-- Mean Radius -->
     <g transform="translate(410.825 284.596563) scale(0.1 -0.1)">
      <defs>
       <path id="DejaVuSans-4d" d="M 628 4666 
L 1569 4666 
L 2759 1491 
L 3956 4666 
L 4897 4666 
L 4897 0 
L 4281 0 
L 4281 4097 
L 3078 897 
L 2444 897 
L 1241 4097 
L 1241 0 
L 628 0 
L 628 4666 
z
" transform="scale(0.015625)"/>
       <path id="DejaVuSans-65" d="M 3597 1894 
L 3597 1613 
L 953 1613 
Q 991 1019 1311 708 
Q 1631 397 2203 397 
Q 2534 397 2845 478 
Q 3156 559 3463 722 
L 3463 178 
Q 3153 47 2828 -22 
Q 2503 -91 2169 -91 
Q 1331 -91 842 396 
Q 353 884 353 1716 
Q 353 2575 817 3079 
Q 1281 3584 2069 3584 
Q 2775 3584 3186 3129 
Q 3597 2675 3597 1894 
z
M 3022 2063 
Q 3016 2534 2758 2815 
Q 2500 3097 2075 3097 
Q 1594 3097 1305 2825 
Q 1016 2553 972 2059 
L 3022 2063 
z
" transform="scale(0.015625)"/>
       <path id="DejaVuSans-61" d="M 2194 1759 
Q 1497 1759 1228 1600 
Q 959 1441 959 1056 
Q 959 750 1161 570 
Q 1363 391 1709 391 
Q 2188 391 2477 730 
Q 2766 1069 2766 1631 
L 2766 1759 
L 2194 1759 
z
M 3341 1997 
L 3341 0 
L 2766 0 
L 2766 531 
Q 2569 213 2275 61 
Q 1981 -91 1556 -91 
Q 1019 -91 701 211 
Q 384 513 384 1019 
Q 384 1609 779 1909 
Q 1175 2209 1959 2209 
L 2766 2209 
L 2766 2266 
Q 2766 2663 2505 2880 
Q 2244 3097 1772 3097 
Q 1472 3097 1187 3025 
Q 903 2953 641 2809 
L 641 3341 
Q 956 3463 1253 3523 
Q 1550 3584 1831 3584 
Q 2591 3584 2966 3190 
Q 3341 2797 3341 1997 
z
" transform="scale(0.015625)"/>
       <path id="DejaVuSans-6e" d="M 3513 2113 
L 3513 0 
L 2938 0 
L 2938 2094 
Q 2938 2591 2744 2837 
Q 2550 3084 2163 3084 
Q 1697 3084 1428 2787 
Q 1159 2491 1159 1978 
L 1159 0 
L 581 0 
L 581 3500 
L 1159 3500 
L 1159 2956 
Q 1366 3272 1645 3428 
Q 1925 3584 2291 3584 
Q 2894 3584 3203 3211 
Q 3513 2838 3513 2113 
z
" transform="scale(0.015625)"/>
       <path id="DejaVuSans-20" transform="scale(0.015625)"/>
       <path id="DejaVuSans-52" d="M 2841 2188 
Q 3044 2119 3236 1894 
Q 3428 1669 3622 1275 
L 4263 0 
L 3584 0 
L 2988 1197 
Q 2756 1666 2539 1819 
Q 2322 1972 1947 1972 
L 1259 1972 
L 1259 0 
L 628 0 
L 628 4666 
L 2053 4666 
Q 2853 4666 3247 4331 
Q 3641 3997 3641 3322 
Q 3641 2881 3436 2590 
Q 3231 2300 2841 2188 
z
M 1259 4147 
L 1259 2491 
L 2053 2491 
Q 2509 2491 2742 2702 
Q 2975 2913 2975 3322 
Q 2975 3731 2742 3939 
Q 2509 4147 2053 4147 
L 1259 4147 
z
" transform="scale(0.015625)"/>
       <path id="DejaVuSans-64" d="M 2906 2969 
L 2906 4863 
L 3481 4863 
L 3481 0 
L 2906 0 
L 2906 525 
Q 2725 213 2448 61 
Q 2172 -91 1784 -91 
Q 1150 -91 751 415 
Q 353 922 353 1747 
Q 353 2572 751 3078 
Q 1150 3584 1784 3584 
Q 2172 3584 2448 3432 
Q 2725 3281 2906 2969 
z
M 947 1747 
Q 947 1113 1208 752 
Q 1469 391 1925 391 
Q 2381 391 2643 752 
Q 2906 1113 2906 1747 
Q 2906 2381 2643 2742 
Q 2381 3103 1925 3103 
Q 1469 3103 1208 2742 
Q 947 2381 947 1747 
z
" transform="scale(0.015625)"/>
       <path id="DejaVuSans-69" d="M 603 3500 
L 1178 3500 
L 1178 0 
L 603 0 
L 603 3500 
z
M 603 4863 
L 1178 4863 
L 1178 4134 
L 603 4134 
L 603 4863 
z
" transform="scale(0.015625)"/>
       <path id="DejaVuSans-75" d="M 544 1381 
L 544 3500 
L 1119 3500 
L 1119 1403 
Q 1119 906 1312 657 
Q 1506 409 1894 409 
Q 2359 409 2629 706 
Q 2900 1003 2900 1516 
L 2900 3500 
L 3475 3500 
L 3475 0 
L 2900 0 
L 2900 538 
Q 2691 219 2414 64 
Q 2138 -91 1772 -91 
Q 1169 -91 856 284 
Q 544 659 544 1381 
z
M 1991 3584 
L 1991 3584 
z
" transform="scale(0.015625)"/>
       <path id="DejaVuSans-73" d="M 2834 3397 
L 2834 2853 
Q 2591 2978 2328 3040 
Q 2066 3103 1784 3103 
Q 1356 3103 1142 2972 
Q 928 2841 928 2578 
Q 928 2378 1081 2264 
Q 1234 2150 1697 2047 
L 1894 2003 
Q 2506 1872 2764 1633 
Q 3022 1394 3022 966 
Q 3022 478 2636 193 
Q 2250 -91 1575 -91 
Q 1294 -91 989 -36 
Q 684 19 347 128 
L 347 722 
Q 666 556 975 473 
Q 1284 391 1588 391 
Q 1994 391 2212 530 
Q 2431 669 2431 922 
Q 2431 1156 2273 1281 
Q 2116 1406 1581 1522 
L 1381 1569 
Q 847 1681 609 1914 
Q 372 2147 372 2553 
Q 372 3047 722 3315 
Q 1072 3584 1716 3584 
Q 2034 3584 2315 3537 
Q 2597 3491 2834 3397 
z
" transform="scale(0.015625)"/>
      </defs>
      <use xlink:href="#DejaVuSans-4d"/>
      <use xlink:href="#DejaVuSans-65" x="86.279297"/>
      <use xlink:href="#DejaVuSans-61" x="147.802734"/>
      <use xlink:href="#DejaVuSans-6e" x="209.082031"/>
      <use xlink:href="#DejaVuSans-20" x="272.460938"/>
      <use xlink:href="#DejaVuSans-52" x="304.248047"/>
      <use xlink:href="#DejaVuSans-61" x="371.480469"/>
      <use xlink:href="#DejaVuSans-64" x="432.759766"/>
      <use xlink:href="#DejaVuSans-69" x="496.236328"/>
      <use xlink:href="#DejaVuSans-75" x="524.019531"/>
      <use xlink:href="#DejaVuSans-73" x="587.398438"/>
     </g>
    </g>
   </g>
   <g id="matplotlib.axis_2">
    <g id="ytick_1">
     <g id="line2d_7">
      <defs>
       <path id="mfa84b3dfe6" d="M 0 0 
L -3.5 0 
" style="stroke: #000000; stroke-width: 0.8"/>
      </defs>
      <g>
       <use xlink:href="#mfa84b3dfe6" x="108" y="256.32" style="stroke: #000000; stroke-width: 0.8"/>
      </g>
     </g>
     <g id="text_8">
      <!-- 0.00 -->
      <g transform="translate(78.734375 260.119219) scale(0.1 -0.1)">
       <defs>
        <path id="DejaVuSans-2e" d="M 684 794 
L 1344 794 
L 1344 0 
L 684 0 
L 684 794 
z
" transform="scale(0.015625)"/>
       </defs>
       <use xlink:href="#DejaVuSans-30"/>
       <use xlink:href="#DejaVuSans-2e" x="63.623047"/>
       <use xlink:href="#DejaVuSans-30" x="95.410156"/>
       <use xlink:href="#DejaVuSans-30" x="159.033203"/>
      </g>
     </g>
    </g>
    <g id="ytick_2">
     <g id="line2d_8">
      <g>
       <use xlink:href="#mfa84b3dfe6" x="108" y="225.835094" style="stroke: #000000; stroke-width: 0.8"/>
      </g>
     </g>
     <g id="text_9">
      <!-- 0.02 -->
      <g transform="translate(78.734375 229.634313) scale(0.1 -0.1)">
       <use xlink:href="#DejaVuSans-30"/>
       <use xlink:href="#DejaVuSans-2e" x="63.623047"/>
       <use xlink:href="#DejaVuSans-30" x="95.410156"/>
       <use xlink:href="#DejaVuSans-32" x="159.033203"/>
      </g>
     </g>
    </g>
    <g id="ytick_3">
     <g id="line2d_9">
      <g>
       <use xlink:href="#mfa84b3dfe6" x="108" y="195.350188" style="stroke: #000000; stroke-width: 0.8"/>
      </g>
     </g>
     <g id="text_10">
      <!-- 0.04 -->
      <g transform="translate(78.734375 199.149406) scale(0.1 -0.1)">
       <defs>
        <path id="DejaVuSans-34" d="M 2419 4116 
L 825 1625 
L 2419 1625 
L 2419 4116 
z
M 2253 4666 
L 3047 4666 
L 3047 1625 
L 3713 1625 
L 3713 1100 
L 3047 1100 
L 3047 0 
L 2419 0 
L 2419 1100 
L 313 1100 
L 313 1709 
L 2253 4666 
z
" transform="scale(0.015625)"/>
       </defs>
       <use xlink:href="#DejaVuSans-30"/>
       <use xlink:href="#DejaVuSans-2e" x="63.623047"/>
       <use xlink:href="#DejaVuSans-30" x="95.410156"/>
       <use xlink:href="#DejaVuSans-34" x="159.033203"/>
      </g>
     </g>
    </g>
    <g id="ytick_4">
     <g id="line2d_10">
      <g>
       <use xlink:href="#mfa84b3dfe6" x="108" y="164.865281" style="stroke: #000000; stroke-width: 0.8"/>
      </g>
     </g>
     <g id="text_11">
      <!-- 0.06 -->
      <g transform="translate(78.734375 168.6645) scale(0.1 -0.1)">
       <defs>
        <path id="DejaVuSans-36" d="M 2113 2584 
Q 1688 2584 1439 2293 
Q 1191 2003 1191 1497 
Q 1191 994 1439 701 
Q 1688 409 2113 409 
Q 2538 409 2786 701 
Q 3034 994 3034 1497 
Q 3034 2003 2786 2293 
Q 2538 2584 2113 2584 
z
M 3366 4563 
L 3366 3988 
Q 3128 4100 2886 4159 
Q 2644 4219 2406 4219 
Q 1781 4219 1451 3797 
Q 1122 3375 1075 2522 
Q 1259 2794 1537 2939 
Q 1816 3084 2150 3084 
Q 2853 3084 3261 2657 
Q 3669 2231 3669 1497 
Q 3669 778 3244 343 
Q 2819 -91 2113 -91 
Q 1303 -91 875 529 
Q 447 1150 447 2328 
Q 447 3434 972 4092 
Q 1497 4750 2381 4750 
Q 2619 4750 2861 4703 
Q 3103 4656 3366 4563 
z
" transform="scale(0.015625)"/>
       </defs>
       <use xlink:href="#DejaVuSans-30"/>
       <use xlink:href="#DejaVuSans-2e" x="63.623047"/>
       <use xlink:href="#DejaVuSans-30" x="95.410156"/>
       <use xlink:href="#DejaVuSans-36" x="159.033203"/>
      </g>
     </g>
    </g>
    <g id="ytick_5">
     <g id="line2d_11">
      <g>
       <use xlink:href="#mfa84b3dfe6" x="108" y="134.380375" style="stroke: #000000; stroke-width: 0.8"/>
      </g>
     </g>
     <g id="text_12">
      <!-- 0.08 -->
      <g transform="translate(78.734375 138.179594) scale(0.1 -0.1)">
       <defs>
        <path id="DejaVuSans-38" d="M 2034 2216 
Q 1584 2216 1326 1975 
Q 1069 1734 1069 1313 
Q 1069 891 1326 650 
Q 1584 409 2034 409 
Q 2484 409 2743 651 
Q 3003 894 3003 1313 
Q 3003 1734 2745 1975 
Q 2488 2216 2034 2216 
z
M 1403 2484 
Q 997 2584 770 2862 
Q 544 3141 544 3541 
Q 544 4100 942 4425 
Q 1341 4750 2034 4750 
Q 2731 4750 3128 4425 
Q 3525 4100 3525 3541 
Q 3525 3141 3298 2862 
Q 3072 2584 2669 2484 
Q 3125 2378 3379 2068 
Q 3634 1759 3634 1313 
Q 3634 634 3220 271 
Q 2806 -91 2034 -91 
Q 1263 -91 848 271 
Q 434 634 434 1313 
Q 434 1759 690 2068 
Q 947 2378 1403 2484 
z
M 1172 3481 
Q 1172 3119 1398 2916 
Q 1625 2713 2034 2713 
Q 2441 2713 2670 2916 
Q 2900 3119 2900 3481 
Q 2900 3844 2670 4047 
Q 2441 4250 2034 4250 
Q 1625 4250 1398 4047 
Q 1172 3844 1172 3481 
z
" transform="scale(0.015625)"/>
       </defs>
       <use xlink:href="#DejaVuSans-30"/>
       <use xlink:href="#DejaVuSans-2e" x="63.623047"/>
       <use xlink:href="#DejaVuSans-30" x="95.410156"/>
       <use xlink:href="#DejaVuSans-38" x="159.033203"/>
      </g>
     </g>
    </g>
    <g id="ytick_6">
     <g id="line2d_12">
      <g>
       <use xlink:href="#mfa84b3dfe6" x="108" y="103.895469" style="stroke: #000000; stroke-width: 0.8"/>
      </g>
     </g>
     <g id="text_13">
      <!-- 0.10 -->
      <g transform="translate(78.734375 107.694688) scale(0.1 -0.1)">
       <use xlink:href="#DejaVuSans-30"/>
       <use xlink:href="#DejaVuSans-2e" x="63.623047"/>
       <use xlink:href="#DejaVuSans-31" x="95.410156"/>
       <use xlink:href="#DejaVuSans-30" x="159.033203"/>
      </g>
     </g>
    </g>
    <g id="ytick_7">
     <g id="line2d_13">
      <g>
       <use xlink:href="#mfa84b3dfe6" x="108" y="73.410563" style="stroke: #000000; stroke-width: 0.8"/>
      </g>
     </g>
     <g id="text_14">
      <!-- 0.12 -->
      <g transform="translate(78.734375 77.209781) scale(0.1 -0.1)">
       <use xlink:href="#DejaVuSans-30"/>
       <use xlink:href="#DejaVuSans-2e" x="63.623047"/>
       <use xlink:href="#DejaVuSans-31" x="95.410156"/>
       <use xlink:href="#DejaVuSans-32" x="159.033203"/>
      </g>
     </g>
    </g>
    <g id="ytick_8">
     <g id="line2d_14">
      <g>
       <use xlink:href="#mfa84b3dfe6" x="108" y="42.925656" style="stroke: #000000; stroke-width: 0.8"/>
      </g>
     </g>
     <g id="text_15">
      <!-- 0.14 -->
      <g transform="translate(78.734375 46.724875) scale(0.1 -0.1)">
       <use xlink:href="#DejaVuSans-30"/>
       <use xlink:href="#DejaVuSans-2e" x="63.623047"/>
       <use xlink:href="#DejaVuSans-31" x="95.410156"/>
       <use xlink:href="#DejaVuSans-34" x="159.033203"/>
      </g>
     </g>
    </g>
    <g id="text_16">
     <!-- Density -->
     <g transform="translate(72.654687 164.448594) rotate(-90) scale(0.1 -0.1)">
      <defs>
       <path id="DejaVuSans-44" d="M 1259 4147 
L 1259 519 
L 2022 519 
Q 2988 519 3436 956 
Q 3884 1394 3884 2338 
Q 3884 3275 3436 3711 
Q 2988 4147 2022 4147 
L 1259 4147 
z
M 628 4666 
L 1925 4666 
Q 3281 4666 3915 4102 
Q 4550 3538 4550 2338 
Q 4550 1131 3912 565 
Q 3275 0 1925 0 
L 628 0 
L 628 4666 
z
" transform="scale(0.015625)"/>
       <path id="DejaVuSans-74" d="M 1172 4494 
L 1172 3500 
L 2356 3500 
L 2356 3053 
L 1172 3053 
L 1172 1153 
Q 1172 725 1289 603 
Q 1406 481 1766 481 
L 2356 481 
L 2356 0 
L 1766 0 
Q 1100 0 847 248 
Q 594 497 594 1153 
L 594 3053 
L 172 3053 
L 172 3500 
L 594 3500 
L 594 4494 
L 1172 4494 
z
" transform="scale(0.015625)"/>
       <path id="DejaVuSans-79" d="M 2059 -325 
Q 1816 -950 1584 -1140 
Q 1353 -1331 966 -1331 
L 506 -1331 
L 506 -850 
L 844 -850 
Q 1081 -850 1212 -737 
Q 1344 -625 1503 -206 
L 1606 56 
L 191 3500 
L 800 3500 
L 1894 763 
L 2988 3500 
L 3597 3500 
L 2059 -325 
z
" transform="scale(0.015625)"/>
      </defs>
      <use xlink:href="#DejaVuSans-44"/>
      <use xlink:href="#DejaVuSans-65" x="77.001953"/>
      <use xlink:href="#DejaVuSans-6e" x="138.525391"/>
      <use xlink:href="#DejaVuSans-73" x="201.904297"/>
      <use xlink:href="#DejaVuSans-69" x="254.003906"/>
      <use xlink:href="#DejaVuSans-74" x="281.787109"/>
      <use xlink:href="#DejaVuSans-79" x="320.996094"/>
     </g>
    </g>
   </g>
   <g id="patch_3">
    <path d="M 108 256.32 
L 108 34.56 
" style="fill: none; stroke: #000000; stroke-width: 0.8; stroke-linejoin: miter; stroke-linecap: square"/>
   </g>
   <g id="patch_4">
    <path d="M 777.6 256.32 
L 777.6 34.56 
" style="fill: none; stroke: #000000; stroke-width: 0.8; stroke-linejoin: miter; stroke-linecap: square"/>
   </g>
   <g id="patch_5">
    <path d="M 108 256.32 
L 777.6 256.32 
" style="fill: none; stroke: #000000; stroke-width: 0.8; stroke-linejoin: miter; stroke-linecap: square"/>
   </g>
   <g id="patch_6">
    <path d="M 108 34.56 
L 777.6 34.56 
" style="fill: none; stroke: #000000; stroke-width: 0.8; stroke-linejoin: miter; stroke-linecap: square"/>
   </g>
   <g id="text_17">
    <!-- KDE Plot of Mean Radius by Tumor Class -->
    <g transform="translate(321.864375 28.56) scale(0.12 -0.12)">
     <defs>
      <path id="DejaVuSans-4b" d="M 628 4666 
L 1259 4666 
L 1259 2694 
L 3353 4666 
L 4166 4666 
L 1850 2491 
L 4331 0 
L 3500 0 
L 1259 2247 
L 1259 0 
L 628 0 
L 628 4666 
z
" transform="scale(0.015625)"/>
      <path id="DejaVuSans-45" d="M 628 4666 
L 3578 4666 
L 3578 4134 
L 1259 4134 
L 1259 2753 
L 3481 2753 
L 3481 2222 
L 1259 2222 
L 1259 531 
L 3634 531 
L 3634 0 
L 628 0 
L 628 4666 
z
" transform="scale(0.015625)"/>
      <path id="DejaVuSans-50" d="M 1259 4147 
L 1259 2394 
L 2053 2394 
Q 2494 2394 2734 2622 
Q 2975 2850 2975 3272 
Q 2975 3691 2734 3919 
Q 2494 4147 2053 4147 
L 1259 4147 
z
M 628 4666 
L 2053 4666 
Q 2838 4666 3239 4311 
Q 3641 3956 3641 3272 
Q 3641 2581 3239 2228 
Q 2838 1875 2053 1875 
L 1259 1875 
L 1259 0 
L 628 0 
L 628 4666 
z
" transform="scale(0.015625)"/>
      <path id="DejaVuSans-6c" d="M 603 4863 
L 1178 4863 
L 1178 0 
L 603 0 
L 603 4863 
z
" transform="scale(0.015625)"/>
      <path id="DejaVuSans-6f" d="M 1959 3097 
Q 1497 3097 1228 2736 
Q 959 2375 959 1747 
Q 959 1119 1226 758 
Q 1494 397 1959 397 
Q 2419 397 2687 759 
Q 2956 1122 2956 1747 
Q 2956 2369 2687 2733 
Q 2419 3097 1959 3097 
z
M 1959 3584 
Q 2709 3584 3137 3096 
Q 3566 2609 3566 1747 
Q 3566 888 3137 398 
Q 2709 -91 1959 -91 
Q 1206 -91 779 398 
Q 353 888 353 1747 
Q 353 2609 779 3096 
Q 1206 3584 1959 3584 
z
" transform="scale(0.015625)"/>
      <path id="DejaVuSans-66" d="M 2375 4863 
L 2375 4384 
L 1825 4384 
Q 1516 4384 1395 4259 
Q 1275 4134 1275 3809 
L 1275 3500 
L 2222 3500 
L 2222 3053 
L 1275 3053 
L 1275 0 
L 697 0 
L 697 3053 
L 147 3053 
L 147 3500 
L 697 3500 
L 697 3744 
Q 697 4328 969 4595 
Q 1241 4863 1831 4863 
L 2375 4863 
z
" transform="scale(0.015625)"/>
      <path id="DejaVuSans-62" d="M 3116 1747 
Q 3116 2381 2855 2742 
Q 2594 3103 2138 3103 
Q 1681 3103 1420 2742 
Q 1159 2381 1159 1747 
Q 1159 1113 1420 752 
Q 1681 391 2138 391 
Q 2594 391 2855 752 
Q 3116 1113 3116 1747 
z
M 1159 2969 
Q 1341 3281 1617 3432 
Q 1894 3584 2278 3584 
Q 2916 3584 3314 3078 
Q 3713 2572 3713 1747 
Q 3713 922 3314 415 
Q 2916 -91 2278 -91 
Q 1894 -91 1617 61 
Q 1341 213 1159 525 
L 1159 0 
L 581 0 
L 581 4863 
L 1159 4863 
L 1159 2969 
z
" transform="scale(0.015625)"/>
      <path id="DejaVuSans-54" d="M -19 4666 
L 3928 4666 
L 3928 4134 
L 2272 4134 
L 2272 0 
L 1638 0 
L 1638 4134 
L -19 4134 
L -19 4666 
z
" transform="scale(0.015625)"/>
      <path id="DejaVuSans-6d" d="M 3328 2828 
Q 3544 3216 3844 3400 
Q 4144 3584 4550 3584 
Q 5097 3584 5394 3201 
Q 5691 2819 5691 2113 
L 5691 0 
L 5113 0 
L 5113 2094 
Q 5113 2597 4934 2840 
Q 4756 3084 4391 3084 
Q 3944 3084 3684 2787 
Q 3425 2491 3425 1978 
L 3425 0 
L 2847 0 
L 2847 2094 
Q 2847 2600 2669 2842 
Q 2491 3084 2119 3084 
Q 1678 3084 1418 2786 
Q 1159 2488 1159 1978 
L 1159 0 
L 581 0 
L 581 3500 
L 1159 3500 
L 1159 2956 
Q 1356 3278 1631 3431 
Q 1906 3584 2284 3584 
Q 2666 3584 2933 3390 
Q 3200 3197 3328 2828 
z
" transform="scale(0.015625)"/>
      <path id="DejaVuSans-72" d="M 2631 2963 
Q 2534 3019 2420 3045 
Q 2306 3072 2169 3072 
Q 1681 3072 1420 2755 
Q 1159 2438 1159 1844 
L 1159 0 
L 581 0 
L 581 3500 
L 1159 3500 
L 1159 2956 
Q 1341 3275 1631 3429 
Q 1922 3584 2338 3584 
Q 2397 3584 2469 3576 
Q 2541 3569 2628 3553 
L 2631 2963 
z
" transform="scale(0.015625)"/>
      <path id="DejaVuSans-43" d="M 4122 4306 
L 4122 3641 
Q 3803 3938 3442 4084 
Q 3081 4231 2675 4231 
Q 1875 4231 1450 3742 
Q 1025 3253 1025 2328 
Q 1025 1406 1450 917 
Q 1875 428 2675 428 
Q 3081 428 3442 575 
Q 3803 722 4122 1019 
L 4122 359 
Q 3791 134 3420 21 
Q 3050 -91 2638 -91 
Q 1578 -91 968 557 
Q 359 1206 359 2328 
Q 359 3453 968 4101 
Q 1578 4750 2638 4750 
Q 3056 4750 3426 4639 
Q 3797 4528 4122 4306 
z
" transform="scale(0.015625)"/>
     </defs>
     <use xlink:href="#DejaVuSans-4b"/>
     <use xlink:href="#DejaVuSans-44" x="65.576172"/>
     <use xlink:href="#DejaVuSans-45" x="142.578125"/>
     <use xlink:href="#DejaVuSans-20" x="205.761719"/>
     <use xlink:href="#DejaVuSans-50" x="237.548828"/>
     <use xlink:href="#DejaVuSans-6c" x="297.851562"/>
     <use xlink:href="#DejaVuSans-6f" x="325.634766"/>
     <use xlink:href="#DejaVuSans-74" x="386.816406"/>
     <use xlink:href="#DejaVuSans-20" x="426.025391"/>
     <use xlink:href="#DejaVuSans-6f" x="457.8125"/>
     <use xlink:href="#DejaVuSans-66" x="518.994141"/>
     <use xlink:href="#DejaVuSans-20" x="554.199219"/>
     <use xlink:href="#DejaVuSans-4d" x="585.986328"/>
     <use xlink:href="#DejaVuSans-65" x="672.265625"/>
     <use xlink:href="#DejaVuSans-61" x="733.789062"/>
     <use xlink:href="#DejaVuSans-6e" x="795.068359"/>
     <use xlink:href="#DejaVuSans-20" x="858.447266"/>
     <use xlink:href="#DejaVuSans-52" x="890.234375"/>
     <use xlink:href="#DejaVuSans-61" x="957.466797"/>
     <use xlink:href="#DejaVuSans-64" x="1018.746094"/>
     <use xlink:href="#DejaVuSans-69" x="1082.222656"/>
     <use xlink:href="#DejaVuSans-75" x="1110.005859"/>
     <use xlink:href="#DejaVuSans-73" x="1173.384766"/>
     <use xlink:href="#DejaVuSans-20" x="1225.484375"/>
     <use xlink:href="#DejaVuSans-62" x="1257.271484"/>
     <use xlink:href="#DejaVuSans-79" x="1320.748047"/>
     <use xlink:href="#DejaVuSans-20" x="1379.927734"/>
     <use xlink:href="#DejaVuSans-54" x="1411.714844"/>
     <use xlink:href="#DejaVuSans-75" x="1457.673828"/>
     <use xlink:href="#DejaVuSans-6d" x="1521.052734"/>
     <use xlink:href="#DejaVuSans-6f" x="1618.464844"/>
     <use xlink:href="#DejaVuSans-72" x="1679.646484"/>
     <use xlink:href="#DejaVuSans-20" x="1720.759766"/>
     <use xlink:href="#DejaVuSans-43" x="1752.546875"/>
     <use xlink:href="#DejaVuSans-6c" x="1822.371094"/>
     <use xlink:href="#DejaVuSans-61" x="1850.154297"/>
     <use xlink:href="#DejaVuSans-73" x="1911.433594"/>
     <use xlink:href="#DejaVuSans-73" x="1963.533203"/>
    </g>
   </g>
   <g id="legend_1">
    <g id="patch_7">
     <path d="M 732.2375 86.594375 
L 770.6 86.594375 
Q 772.6 86.594375 772.6 84.594375 
L 772.6 41.56 
Q 772.6 39.56 770.6 39.56 
L 732.2375 39.56 
Q 730.2375 39.56 730.2375 41.56 
L 730.2375 84.594375 
Q 730.2375 86.594375 732.2375 86.594375 
z
" style="fill: #ffffff; opacity: 0.8; stroke: #cccccc; stroke-linejoin: miter"/>
    </g>
    <g id="text_18">
     <!-- target -->
     <g transform="translate(736.215625 51.158438) scale(0.1 -0.1)">
      <defs>
       <path id="DejaVuSans-67" d="M 2906 1791 
Q 2906 2416 2648 2759 
Q 2391 3103 1925 3103 
Q 1463 3103 1205 2759 
Q 947 2416 947 1791 
Q 947 1169 1205 825 
Q 1463 481 1925 481 
Q 2391 481 2648 825 
Q 2906 1169 2906 1791 
z
M 3481 434 
Q 3481 -459 3084 -895 
Q 2688 -1331 1869 -1331 
Q 1566 -1331 1297 -1286 
Q 1028 -1241 775 -1147 
L 775 -588 
Q 1028 -725 1275 -790 
Q 1522 -856 1778 -856 
Q 2344 -856 2625 -561 
Q 2906 -266 2906 331 
L 2906 616 
Q 2728 306 2450 153 
Q 2172 0 1784 0 
Q 1141 0 747 490 
Q 353 981 353 1791 
Q 353 2603 747 3093 
Q 1141 3584 1784 3584 
Q 2172 3584 2450 3431 
Q 2728 3278 2906 2969 
L 2906 3500 
L 3481 3500 
L 3481 434 
z
" transform="scale(0.015625)"/>
      </defs>
      <use xlink:href="#DejaVuSans-74"/>
      <use xlink:href="#DejaVuSans-61" x="39.208984"/>
      <use xlink:href="#DejaVuSans-72" x="100.488281"/>
      <use xlink:href="#DejaVuSans-67" x="139.851562"/>
      <use xlink:href="#DejaVuSans-65" x="203.328125"/>
      <use xlink:href="#DejaVuSans-74" x="264.851562"/>
     </g>
    </g>
    <g id="patch_8">
     <path d="M 734.2375 65.836563 
L 754.2375 65.836563 
L 754.2375 58.836563 
L 734.2375 58.836563 
z
" style="fill: #e41a1c; fill-opacity: 0.4; stroke: #e41a1c; stroke-linejoin: miter"/>
    </g>
    <g id="text_19">
     <!-- 0 -->
     <g transform="translate(762.2375 65.836563) scale(0.1 -0.1)">
      <use xlink:href="#DejaVuSans-30"/>
     </g>
    </g>
    <g id="patch_9">
     <path d="M 734.2375 80.514688 
L 754.2375 80.514688 
L 754.2375 73.514688 
L 734.2375 73.514688 
z
" style="fill: #377eb8; fill-opacity: 0.4; stroke: #377eb8; stroke-linejoin: miter"/>
    </g>
    <g id="text_20">
     <!-- 1 -->
     <g transform="translate(762.2375 80.514688) scale(0.1 -0.1)">
      <use xlink:href="#DejaVuSans-31"/>
     </g>
    </g>
   </g>
  </g>
 </g>
 <defs>
  <clipPath id="pdefc11f3f8">
   <rect x="108" y="34.56" width="669.6" height="221.76"/>
  </clipPath>
 </defs>
</svg>
