<?xml version="1.0" encoding="utf-8" standalone="no"?>
<!DOCTYPE svg PUBLIC "-//W3C//DTD SVG 1.1//EN"
  "http://www.w3.org/Graphics/SVG/1.1/DTD/svg11.dtd">
<svg xmlns:xlink="http://www.w3.org/1999/xlink" width="720pt" height="360pt" viewBox="0 0 720 360" xmlns="http://www.w3.org/2000/svg" version="1.1">
 <metadata>
  <rdf:RDF xmlns:dc="http://purl.org/dc/elements/1.1/" xmlns:cc="http://creativecommons.org/ns#" xmlns:rdf="http://www.w3.org/1999/02/22-rdf-syntax-ns#">
   <cc:Work>
    <dc:type rdf:resource="http://purl.org/dc/dcmitype/StillImage"/>
    <dc:date>2025-04-27T00:34:52.321835</dc:date>
    <dc:format>image/svg+xml</dc:format>
    <dc:creator>
     <cc:Agent>
      <dc:title>Matplotlib v3.9.2, https://matplotlib.org/</dc:title>
     </cc:Agent>
    </dc:creator>
   </cc:Work>
  </rdf:RDF>
 </metadata>
 <defs>
  <style type="text/css">*{stroke-linejoin: round; stroke-linecap: butt}</style>
 </defs>
 <g id="figure_1">
  <g id="patch_1">
   <path d="M 0 360 
L 720 360 
L 720 0 
L 0 0 
z
" style="fill: #ffffff"/>
  </g>
  <g id="axes_1">
   <g id="patch_2">
    <path d="M 90 320.4 
L 648 320.4 
L 648 43.2 
L 90 43.2 
z
" style="fill: #ffffff"/>
   </g>
   <g id="PolyCollection_1">
    <defs>
     <path id="mfa96a16ec6" d="M 115.363636 -39.683038 
L 115.363636 -39.6 
L 117.912746 -39.6 
L 120.461855 -39.6 
L 123.010964 -39.6 
L 125.560073 -39.6 
L 128.109182 -39.6 
L 130.658291 -39.6 
L 133.207401 -39.6 
L 135.75651 -39.6 
L 138.305619 -39.6 
L 140.854728 -39.6 
L 143.403837 -39.6 
L 145.952947 -39.6 
L 148.502056 -39.6 
L 151.051165 -39.6 
L 153.600274 -39.6 
L 156.149383 -39.6 
L 158.698492 -39.6 
L 161.247602 -39.6 
L 163.796711 -39.6 
L 166.34582 -39.6 
L 168.894929 -39.6 
L 171.444038 -39.6 
L 173.993148 -39.6 
L 176.542257 -39.6 
L 179.091366 -39.6 
L 181.640475 -39.6 
L 184.189584 -39.6 
L 186.738693 -39.6 
L 189.287803 -39.6 
L 191.836912 -39.6 
L 194.386021 -39.6 
L 196.93513 -39.6 
L 199.484239 -39.6 
L 202.033349 -39.6 
L 204.582458 -39.6 
L 207.131567 -39.6 
L 209.680676 -39.6 
L 212.229785 -39.6 
L 214.778894 -39.6 
L 217.328004 -39.6 
L 219.877113 -39.6 
L 222.426222 -39.6 
L 224.975331 -39.6 
L 227.52444 -39.6 
L 230.07355 -39.6 
L 232.622659 -39.6 
L 235.171768 -39.6 
L 237.720877 -39.6 
L 240.269986 -39.6 
L 242.819095 -39.6 
L 245.368205 -39.6 
L 247.917314 -39.6 
L 250.466423 -39.6 
L 253.015532 -39.6 
L 255.564641 -39.6 
L 258.113751 -39.6 
L 260.66286 -39.6 
L 263.211969 -39.6 
L 265.761078 -39.6 
L 268.310187 -39.6 
L 270.859296 -39.6 
L 273.408406 -39.6 
L 275.957515 -39.6 
L 278.506624 -39.6 
L 281.055733 -39.6 
L 283.604842 -39.6 
L 286.153952 -39.6 
L 288.703061 -39.6 
L 291.25217 -39.6 
L 293.801279 -39.6 
L 296.350388 -39.6 
L 298.899497 -39.6 
L 301.448607 -39.6 
L 303.997716 -39.6 
L 306.546825 -39.6 
L 309.095934 -39.6 
L 311.645043 -39.6 
L 314.194153 -39.6 
L 316.743262 -39.6 
L 319.292371 -39.6 
L 321.84148 -39.6 
L 324.390589 -39.6 
L 326.939698 -39.6 
L 329.488808 -39.6 
L 332.037917 -39.6 
L 334.587026 -39.6 
L 337.136135 -39.6 
L 339.685244 -39.6 
L 342.234354 -39.6 
L 344.783463 -39.6 
L 347.332572 -39.6 
L 349.881681 -39.6 
L 352.43079 -39.6 
L 354.979899 -39.6 
L 357.529009 -39.6 
L 360.078118 -39.6 
L 362.627227 -39.6 
L 365.176336 -39.6 
L 367.725445 -39.6 
L 370.274555 -39.6 
L 372.823664 -39.6 
L 375.372773 -39.6 
L 377.921882 -39.6 
L 380.470991 -39.6 
L 383.020101 -39.6 
L 385.56921 -39.6 
L 388.118319 -39.6 
L 390.667428 -39.6 
L 393.216537 -39.6 
L 395.765646 -39.6 
L 398.314756 -39.6 
L 400.863865 -39.6 
L 403.412974 -39.6 
L 405.962083 -39.6 
L 408.511192 -39.6 
L 411.060302 -39.6 
L 413.609411 -39.6 
L 416.15852 -39.6 
L 418.707629 -39.6 
L 421.256738 -39.6 
L 423.805847 -39.6 
L 426.354957 -39.6 
L 428.904066 -39.6 
L 431.453175 -39.6 
L 434.002284 -39.6 
L 436.551393 -39.6 
L 439.100503 -39.6 
L 441.649612 -39.6 
L 444.198721 -39.6 
L 446.74783 -39.6 
L 449.296939 -39.6 
L 451.846048 -39.6 
L 454.395158 -39.6 
L 456.944267 -39.6 
L 459.493376 -39.6 
L 462.042485 -39.6 
L 464.591594 -39.6 
L 467.140704 -39.6 
L 469.689813 -39.6 
L 472.238922 -39.6 
L 474.788031 -39.6 
L 477.33714 -39.6 
L 479.886249 -39.6 
L 482.435359 -39.6 
L 484.984468 -39.6 
L 487.533577 -39.6 
L 490.082686 -39.6 
L 492.631795 -39.6 
L 495.180905 -39.6 
L 497.730014 -39.6 
L 500.279123 -39.6 
L 502.828232 -39.6 
L 505.377341 -39.6 
L 507.92645 -39.6 
L 510.47556 -39.6 
L 513.024669 -39.6 
L 515.573778 -39.6 
L 518.122887 -39.6 
L 520.671996 -39.6 
L 523.221106 -39.6 
L 525.770215 -39.6 
L 528.319324 -39.6 
L 530.868433 -39.6 
L 533.417542 -39.6 
L 535.966651 -39.6 
L 538.515761 -39.6 
L 541.06487 -39.6 
L 543.613979 -39.6 
L 546.163088 -39.6 
L 548.712197 -39.6 
L 551.261307 -39.6 
L 553.810416 -39.6 
L 556.359525 -39.6 
L 558.908634 -39.6 
L 561.457743 -39.6 
L 564.006852 -39.6 
L 566.555962 -39.6 
L 569.105071 -39.6 
L 571.65418 -39.6 
L 574.203289 -39.6 
L 576.752398 -39.6 
L 579.301508 -39.6 
L 581.850617 -39.6 
L 584.399726 -39.6 
L 586.948835 -39.6 
L 589.497944 -39.6 
L 592.047053 -39.6 
L 594.596163 -39.6 
L 597.145272 -39.6 
L 599.694381 -39.6 
L 602.24349 -39.6 
L 604.792599 -39.6 
L 607.341709 -39.6 
L 609.890818 -39.6 
L 612.439927 -39.6 
L 614.989036 -39.6 
L 617.538145 -39.6 
L 620.087254 -39.6 
L 622.636364 -39.6 
L 622.636364 -39.72487 
L 622.636364 -39.72487 
L 620.087254 -39.766479 
L 617.538145 -39.820212 
L 614.989036 -39.889015 
L 612.439927 -39.976372 
L 609.890818 -40.086361 
L 607.341709 -40.223693 
L 604.792599 -40.393747 
L 602.24349 -40.602598 
L 599.694381 -40.857017 
L 597.145272 -41.164465 
L 594.596163 -41.533061 
L 592.047053 -41.971541 
L 589.497944 -42.489194 
L 586.948835 -43.095785 
L 584.399726 -43.801483 
L 581.850617 -44.616777 
L 579.301508 -45.552409 
L 576.752398 -46.619329 
L 574.203289 -47.828673 
L 571.65418 -49.191786 
L 569.105071 -50.720288 
L 566.555962 -52.426186 
L 564.006852 -54.322037 
L 561.457743 -56.421151 
L 558.908634 -58.737822 
L 556.359525 -61.287558 
L 553.810416 -64.087309 
L 551.261307 -67.155624 
L 548.712197 -70.512735 
L 546.163088 -74.180516 
L 543.613979 -78.182273 
L 541.06487 -82.54235 
L 538.515761 -87.285524 
L 535.966651 -92.436166 
L 533.417542 -98.017184 
L 530.868433 -104.048769 
L 528.319324 -110.546974 
L 525.770215 -117.522185 
L 523.221106 -124.977564 
L 520.671996 -132.907547 
L 518.122887 -141.296482 
L 515.573778 -150.117523 
L 513.024669 -159.331856 
L 510.47556 -168.888348 
L 507.92645 -178.723683 
L 505.377341 -188.763018 
L 502.828232 -198.921175 
L 500.279123 -209.104343 
L 497.730014 -219.212238 
L 495.180905 -229.140629 
L 492.631795 -238.784127 
L 490.082686 -248.039104 
L 487.533577 -256.806583 
L 484.984468 -264.994984 
L 482.435359 -272.522565 
L 479.886249 -279.319444 
L 477.33714 -285.329127 
L 474.788031 -290.50946 
L 472.238922 -294.832996 
L 469.689813 -298.286786 
L 467.140704 -300.871646 
L 464.591594 -302.600965 
L 462.042485 -303.499178 
L 459.493376 -303.6 
L 456.944267 -302.94454 
L 454.395158 -301.57943 
L 451.846048 -299.555045 
L 449.296939 -296.923916 
L 446.74783 -293.739382 
L 444.198721 -290.054522 
L 441.649612 -285.92136 
L 439.100503 -281.390343 
L 436.551393 -276.510047 
L 434.002284 -271.327053 
L 431.453175 -265.885966 
L 428.904066 -260.229494 
L 426.354957 -254.398547 
L 423.805847 -248.432325 
L 421.256738 -242.36835 
L 418.707629 -236.24243 
L 416.15852 -230.088562 
L 413.609411 -223.938762 
L 411.060302 -217.822849 
L 408.511192 -211.76821 
L 405.962083 -205.799547 
L 403.412974 -199.938652 
L 400.863865 -194.204218 
L 398.314756 -188.611708 
L 395.765646 -183.173292 
L 393.216537 -177.897852 
L 390.667428 -172.791082 
L 388.118319 -167.855647 
L 385.56921 -163.091425 
L 383.020101 -158.495812 
L 380.470991 -154.064085 
L 377.921882 -149.789809 
L 375.372773 -145.665276 
L 372.823664 -141.681969 
L 370.274555 -137.831031 
L 367.725445 -134.103722 
L 365.176336 -130.491846 
L 362.627227 -126.988147 
L 360.078118 -123.586627 
L 357.529009 -120.282802 
L 354.979899 -117.073866 
L 352.43079 -113.958751 
L 349.881681 -110.938093 
L 347.332572 -108.014094 
L 344.783463 -105.190286 
L 342.234354 -102.471214 
L 339.685244 -99.862052 
L 337.136135 -97.36818 
L 334.587026 -94.994732 
L 332.037917 -92.746158 
L 329.488808 -90.62581 
L 326.939698 -88.635592 
L 324.390589 -86.775674 
L 321.84148 -85.044298 
L 319.292371 -83.437689 
L 316.743262 -81.950055 
L 314.194153 -80.573696 
L 311.645043 -79.299197 
L 309.095934 -78.115707 
L 306.546825 -77.011266 
L 303.997716 -75.973188 
L 301.448607 -74.988458 
L 298.899497 -74.04414 
L 296.350388 -73.127761 
L 293.801279 -72.227673 
L 291.25217 -71.333366 
L 288.703061 -70.435729 
L 286.153952 -69.527253 
L 283.604842 -68.602171 
L 281.055733 -67.656534 
L 278.506624 -66.688232 
L 275.957515 -65.696958 
L 273.408406 -64.684127 
L 270.859296 -63.65275 
L 268.310187 -62.607279 
L 265.761078 -61.553421 
L 263.211969 -60.49793 
L 260.66286 -59.44838 
L 258.113751 -58.41293 
L 255.564641 -57.40007 
L 253.015532 -56.418365 
L 250.466423 -55.47619 
L 247.917314 -54.581468 
L 245.368205 -53.741409 
L 242.819095 -52.962261 
L 240.269986 -52.249076 
L 237.720877 -51.605506 
L 235.171768 -51.033631 
L 232.622659 -50.533838 
L 230.07355 -50.104747 
L 227.52444 -49.743209 
L 224.975331 -49.444362 
L 222.426222 -49.201765 
L 219.877113 -49.007592 
L 217.328004 -48.852901 
L 214.778894 -48.727941 
L 212.229785 -48.62251 
L 209.680676 -48.526335 
L 207.131567 -48.429452 
L 204.582458 -48.322582 
L 202.033349 -48.197463 
L 199.484239 -48.047144 
L 196.93513 -47.866208 
L 194.386021 -47.650923 
L 191.836912 -47.39931 
L 189.287803 -47.111137 
L 186.738693 -46.787826 
L 184.189584 -46.432294 
L 181.640475 -46.048738 
L 179.091366 -45.642373 
L 176.542257 -45.219141 
L 173.993148 -44.785417 
L 171.444038 -44.34771 
L 168.894929 -43.912395 
L 166.34582 -43.485465 
L 163.796711 -43.072338 
L 161.247602 -42.677699 
L 158.698492 -42.3054 
L 156.149383 -41.958405 
L 153.600274 -41.638781 
L 151.051165 -41.347732 
L 148.502056 -41.085664 
L 145.952947 -40.852273 
L 143.403837 -40.646652 
L 140.854728 -40.467412 
L 138.305619 -40.312792 
L 135.75651 -40.180778 
L 133.207401 -40.069208 
L 130.658291 -39.975859 
L 128.109182 -39.898529 
L 125.560073 -39.835098 
L 123.010964 -39.783573 
L 120.461855 -39.742124 
L 117.912746 -39.7091 
L 115.363636 -39.683038 
z
" style="stroke: #377eb8"/>
    </defs>
    <g clip-path="url(#pb1504cc888)">
     <use xlink:href="#mfa96a16ec6" x="0" y="360" style="fill: #377eb8; fill-opacity: 0.3; stroke: #377eb8"/>
    </g>
   </g>
   <g id="PolyCollection_2">
    <defs>
     <path id="mcfc3faea03" d="M 239.001245 -39.711912 
L 239.001245 -39.6 
L 240.504301 -39.6 
L 242.007356 -39.6 
L 243.510411 -39.6 
L 245.013467 -39.6 
L 246.516522 -39.6 
L 248.019577 -39.6 
L 249.522633 -39.6 
L 251.025688 -39.6 
L 252.528743 -39.6 
L 254.031799 -39.6 
L 255.534854 -39.6 
L 257.03791 -39.6 
L 258.540965 -39.6 
L 260.04402 -39.6 
L 261.547076 -39.6 
L 263.050131 -39.6 
L 264.553186 -39.6 
L 266.056242 -39.6 
L 267.559297 -39.6 
L 269.062352 -39.6 
L 270.565408 -39.6 
L 272.068463 -39.6 
L 273.571518 -39.6 
L 275.074574 -39.6 
L 276.577629 -39.6 
L 278.080685 -39.6 
L 279.58374 -39.6 
L 281.086795 -39.6 
L 282.589851 -39.6 
L 284.092906 -39.6 
L 285.595961 -39.6 
L 287.099017 -39.6 
L 288.602072 -39.6 
L 290.105127 -39.6 
L 291.608183 -39.6 
L 293.111238 -39.6 
L 294.614293 -39.6 
L 296.117349 -39.6 
L 297.620404 -39.6 
L 299.12346 -39.6 
L 300.626515 -39.6 
L 302.12957 -39.6 
L 303.632626 -39.6 
L 305.135681 -39.6 
L 306.638736 -39.6 
L 308.141792 -39.6 
L 309.644847 -39.6 
L 311.147902 -39.6 
L 312.650958 -39.6 
L 314.154013 -39.6 
L 315.657068 -39.6 
L 317.160124 -39.6 
L 318.663179 -39.6 
L 320.166235 -39.6 
L 321.66929 -39.6 
L 323.172345 -39.6 
L 324.675401 -39.6 
L 326.178456 -39.6 
L 327.681511 -39.6 
L 329.184567 -39.6 
L 330.687622 -39.6 
L 332.190677 -39.6 
L 333.693733 -39.6 
L 335.196788 -39.6 
L 336.699843 -39.6 
L 338.202899 -39.6 
L 339.705954 -39.6 
L 341.20901 -39.6 
L 342.712065 -39.6 
L 344.21512 -39.6 
L 345.718176 -39.6 
L 347.221231 -39.6 
L 348.724286 -39.6 
L 350.227342 -39.6 
L 351.730397 -39.6 
L 353.233452 -39.6 
L 354.736508 -39.6 
L 356.239563 -39.6 
L 357.742618 -39.6 
L 359.245674 -39.6 
L 360.748729 -39.6 
L 362.251785 -39.6 
L 363.75484 -39.6 
L 365.257895 -39.6 
L 366.760951 -39.6 
L 368.264006 -39.6 
L 369.767061 -39.6 
L 371.270117 -39.6 
L 372.773172 -39.6 
L 374.276227 -39.6 
L 375.779283 -39.6 
L 377.282338 -39.6 
L 378.785393 -39.6 
L 380.288449 -39.6 
L 381.791504 -39.6 
L 383.29456 -39.6 
L 384.797615 -39.6 
L 386.30067 -39.6 
L 387.803726 -39.6 
L 389.306781 -39.6 
L 390.809836 -39.6 
L 392.312892 -39.6 
L 393.815947 -39.6 
L 395.319002 -39.6 
L 396.822058 -39.6 
L 398.325113 -39.6 
L 399.828168 -39.6 
L 401.331224 -39.6 
L 402.834279 -39.6 
L 404.337334 -39.6 
L 405.84039 -39.6 
L 407.343445 -39.6 
L 408.846501 -39.6 
L 410.349556 -39.6 
L 411.852611 -39.6 
L 413.355667 -39.6 
L 414.858722 -39.6 
L 416.361777 -39.6 
L 417.864833 -39.6 
L 419.367888 -39.6 
L 420.870943 -39.6 
L 422.373999 -39.6 
L 423.877054 -39.6 
L 425.380109 -39.6 
L 426.883165 -39.6 
L 428.38622 -39.6 
L 429.889276 -39.6 
L 431.392331 -39.6 
L 432.895386 -39.6 
L 434.398442 -39.6 
L 435.901497 -39.6 
L 437.404552 -39.6 
L 438.907608 -39.6 
L 440.410663 -39.6 
L 441.913718 -39.6 
L 443.416774 -39.6 
L 444.919829 -39.6 
L 446.422884 -39.6 
L 447.92594 -39.6 
L 449.428995 -39.6 
L 450.932051 -39.6 
L 452.435106 -39.6 
L 453.938161 -39.6 
L 455.441217 -39.6 
L 456.944272 -39.6 
L 458.447327 -39.6 
L 459.950383 -39.6 
L 461.453438 -39.6 
L 462.956493 -39.6 
L 464.459549 -39.6 
L 465.962604 -39.6 
L 467.465659 -39.6 
L 468.968715 -39.6 
L 470.47177 -39.6 
L 471.974826 -39.6 
L 473.477881 -39.6 
L 474.980936 -39.6 
L 476.483992 -39.6 
L 477.987047 -39.6 
L 479.490102 -39.6 
L 480.993158 -39.6 
L 482.496213 -39.6 
L 483.999268 -39.6 
L 485.502324 -39.6 
L 487.005379 -39.6 
L 488.508434 -39.6 
L 490.01149 -39.6 
L 491.514545 -39.6 
L 493.017601 -39.6 
L 494.520656 -39.6 
L 496.023711 -39.6 
L 497.526767 -39.6 
L 499.029822 -39.6 
L 500.532877 -39.6 
L 502.035933 -39.6 
L 503.538988 -39.6 
L 505.042043 -39.6 
L 506.545099 -39.6 
L 508.048154 -39.6 
L 509.551209 -39.6 
L 511.054265 -39.6 
L 512.55732 -39.6 
L 514.060376 -39.6 
L 515.563431 -39.6 
L 517.066486 -39.6 
L 518.569542 -39.6 
L 520.072597 -39.6 
L 521.575652 -39.6 
L 523.078708 -39.6 
L 524.581763 -39.6 
L 526.084818 -39.6 
L 527.587874 -39.6 
L 529.090929 -39.6 
L 530.593984 -39.6 
L 532.09704 -39.6 
L 533.600095 -39.6 
L 535.103151 -39.6 
L 536.606206 -39.6 
L 538.109261 -39.6 
L 538.109261 -39.837456 
L 538.109261 -39.837456 
L 536.606206 -39.899458 
L 535.103151 -39.975905 
L 533.600095 -40.069694 
L 532.09704 -40.184192 
L 530.593984 -40.323285 
L 529.090929 -40.491422 
L 527.587874 -40.693671 
L 526.084818 -40.935759 
L 524.581763 -41.224115 
L 523.078708 -41.5659 
L 521.575652 -41.969034 
L 520.072597 -42.442206 
L 518.569542 -42.994873 
L 517.066486 -43.637241 
L 515.563431 -44.380226 
L 514.060376 -45.235397 
L 512.55732 -46.214887 
L 511.054265 -47.331288 
L 509.551209 -48.597514 
L 508.048154 -50.026637 
L 506.545099 -51.631697 
L 505.042043 -53.425481 
L 503.538988 -55.420288 
L 502.035933 -57.627657 
L 500.532877 -60.058092 
L 499.029822 -62.720763 
L 497.526767 -65.623204 
L 496.023711 -68.771016 
L 494.520656 -72.167567 
L 493.017601 -75.813716 
L 491.514545 -79.707565 
L 490.01149 -83.844231 
L 488.508434 -88.215683 
L 487.005379 -92.810609 
L 485.502324 -97.614362 
L 483.999268 -102.60896 
L 482.496213 -107.77317 
L 480.993158 -113.082657 
L 479.490102 -118.510219 
L 477.987047 -124.026103 
L 476.483992 -129.598382 
L 474.980936 -135.193418 
L 473.477881 -140.776371 
L 471.974826 -146.311768 
L 470.47177 -151.764101 
L 468.968715 -157.098458 
L 467.465659 -162.281144 
L 465.962604 -167.280307 
L 464.459549 -172.06652 
L 462.956493 -176.613325 
L 461.453438 -180.89771 
L 459.950383 -184.900505 
L 458.447327 -188.60669 
L 456.944272 -192.005595 
L 455.441217 -195.091 
L 453.938161 -197.861109 
L 452.435106 -200.31843 
L 450.932051 -202.469529 
L 449.428995 -204.324697 
L 447.92594 -205.897525 
L 446.422884 -207.204405 
L 444.919829 -208.263977 
L 443.416774 -209.096536 
L 441.913718 -209.723426 
L 440.410663 -210.166434 
L 438.907608 -210.447202 
L 437.404552 -210.586693 
L 435.901497 -210.604698 
L 434.398442 -210.51942 
L 432.895386 -210.347143 
L 431.392331 -210.101974 
L 429.889276 -209.795683 
L 428.38622 -209.437633 
L 426.883165 -209.034779 
L 425.380109 -208.591762 
L 423.877054 -208.111049 
L 422.373999 -207.593139 
L 420.870943 -207.036806 
L 419.367888 -206.439361 
L 417.864833 -205.796938 
L 416.361777 -205.104772 
L 414.858722 -204.357465 
L 413.355667 -203.549241 
L 411.852611 -202.674165 
L 410.349556 -201.726339 
L 408.846501 -200.700064 
L 407.343445 -199.589973 
L 405.84039 -198.391137 
L 404.337334 -197.099148 
L 402.834279 -195.710188 
L 401.331224 -194.221085 
L 399.828168 -192.629369 
L 398.325113 -190.933322 
L 396.822058 -189.132041 
L 395.319002 -187.225501 
L 393.815947 -185.214625 
L 392.312892 -183.101363 
L 390.809836 -180.888767 
L 389.306781 -178.581061 
L 387.803726 -176.183701 
L 386.30067 -173.703412 
L 384.797615 -171.148198 
L 383.29456 -168.527321 
L 381.791504 -165.851229 
L 380.288449 -163.131445 
L 378.785393 -160.38041 
L 377.282338 -157.611274 
L 375.779283 -154.837641 
L 374.276227 -152.073285 
L 372.773172 -149.33183 
L 371.270117 -146.626414 
L 369.767061 -143.969351 
L 368.264006 -141.371794 
L 366.760951 -138.843436 
L 365.257895 -136.392228 
L 363.75484 -134.024168 
L 362.251785 -131.743133 
L 360.748729 -129.550789 
L 359.245674 -127.446572 
L 357.742618 -125.427746 
L 356.239563 -123.489531 
L 354.736508 -121.625306 
L 353.233452 -119.826871 
L 351.730397 -118.084754 
L 350.227342 -116.388571 
L 348.724286 -114.727394 
L 347.221231 -113.090134 
L 345.718176 -111.465926 
L 344.21512 -109.844478 
L 342.712065 -108.216401 
L 341.20901 -106.573488 
L 339.705954 -104.908936 
L 338.202899 -103.217514 
L 336.699843 -101.495667 
L 335.196788 -99.741552 
L 333.693733 -97.955013 
L 332.190677 -96.137497 
L 330.687622 -94.291924 
L 329.184567 -92.422507 
L 327.681511 -90.534538 
L 326.178456 -88.634158 
L 324.675401 -86.72811 
L 323.172345 -84.823486 
L 321.66929 -82.927487 
L 320.166235 -81.047199 
L 318.663179 -79.18939 
L 317.160124 -77.360341 
L 315.657068 -75.565705 
L 314.154013 -73.810407 
L 312.650958 -72.098582 
L 311.147902 -70.433543 
L 309.644847 -68.817792 
L 308.141792 -67.253053 
L 306.638736 -65.740333 
L 305.135681 -64.280006 
L 303.632626 -62.871907 
L 302.12957 -61.515439 
L 300.626515 -60.209679 
L 299.12346 -58.953487 
L 297.620404 -57.745597 
L 296.117349 -56.584713 
L 294.614293 -55.469579 
L 293.111238 -54.399038 
L 291.608183 -53.372075 
L 290.105127 -52.387838 
L 288.602072 -51.445653 
L 287.099017 -50.545013 
L 285.595961 -49.68556 
L 284.092906 -48.867061 
L 282.589851 -48.089366 
L 281.086795 -47.352371 
L 279.58374 -46.655972 
L 278.080685 -46.000029 
L 276.577629 -45.38432 
L 275.074574 -44.808509 
L 273.571518 -44.272121 
L 272.068463 -43.774516 
L 270.565408 -43.314878 
L 269.062352 -42.89221 
L 267.559297 -42.505334 
L 266.056242 -42.152904 
L 264.553186 -41.833414 
L 263.050131 -41.545226 
L 261.547076 -41.286587 
L 260.04402 -41.055659 
L 258.540965 -40.850544 
L 257.03791 -40.669314 
L 255.534854 -40.510036 
L 254.031799 -40.370798 
L 252.528743 -40.249735 
L 251.025688 -40.14504 
L 249.522633 -40.054994 
L 248.019577 -39.977967 
L 246.516522 -39.912437 
L 245.013467 -39.856993 
L 243.510411 -39.810339 
L 242.007356 -39.771297 
L 240.504301 -39.738805 
L 239.001245 -39.711912 
z
" style="stroke: #e41a1c"/>
    </defs>
    <g clip-path="url(#pb1504cc888)">
     <use xlink:href="#mcfc3faea03" x="0" y="360" style="fill: #e41a1c; fill-opacity: 0.3; stroke: #e41a1c"/>
    </g>
   </g>
   <g id="matplotlib.axis_1">
    <g id="xtick_1">
     <g id="line2d_1">
      <defs>
       <path id="mdab10a646d" d="M 0 0 
L 0 3.5 
" style="stroke: #000000; stroke-width: 0.8"/>
      </defs>
      <g>
       <use xlink:href="#mdab10a646d" x="190.909308" y="320.4" style="stroke: #000000; stroke-width: 0.8"/>
      </g>
     </g>
     <g id="text_1">
      <!-- −400 -->
      <g transform="translate(177.175714 334.998438) scale(0.1 -0.1)">
       <defs>
        <path id="DejaVuSans-2212" d="M 678 2272 
L 4684 2272 
L 4684 1741 
L 678 1741 
L 678 2272 
z
" transform="scale(0.015625)"/>
        <path id="DejaVuSans-34" d="M 2419 4116 
L 825 1625 
L 2419 1625 
L 2419 4116 
z
M 2253 4666 
L 3047 4666 
L 3047 1625 
L 3713 1625 
L 3713 1100 
L 3047 1100 
L 3047 0 
L 2419 0 
L 2419 1100 
L 313 1100 
L 313 1709 
L 2253 4666 
z
" transform="scale(0.015625)"/>
        <path id="DejaVuSans-30" d="M 2034 4250 
Q 1547 4250 1301 3770 
Q 1056 3291 1056 2328 
Q 1056 1369 1301 889 
Q 1547 409 2034 409 
Q 2525 409 2770 889 
Q 3016 1369 3016 2328 
Q 3016 3291 2770 3770 
Q 2525 4250 2034 4250 
z
M 2034 4750 
Q 2819 4750 3233 4129 
Q 3647 3509 3647 2328 
Q 3647 1150 3233 529 
Q 2819 -91 2034 -91 
Q 1250 -91 836 529 
Q 422 1150 422 2328 
Q 422 3509 836 4129 
Q 1250 4750 2034 4750 
z
" transform="scale(0.015625)"/>
       </defs>
       <use xlink:href="#DejaVuSans-2212"/>
       <use xlink:href="#DejaVuSans-34" x="83.789062"/>
       <use xlink:href="#DejaVuSans-30" x="147.412109"/>
       <use xlink:href="#DejaVuSans-30" x="211.035156"/>
      </g>
     </g>
    </g>
    <g id="xtick_2">
     <g id="line2d_2">
      <g>
       <use xlink:href="#mdab10a646d" x="303.845075" y="320.4" style="stroke: #000000; stroke-width: 0.8"/>
      </g>
     </g>
     <g id="text_2">
      <!-- −200 -->
      <g transform="translate(290.111481 334.998438) scale(0.1 -0.1)">
       <defs>
        <path id="DejaVuSans-32" d="M 1228 531 
L 3431 531 
L 3431 0 
L 469 0 
L 469 531 
Q 828 903 1448 1529 
Q 2069 2156 2228 2338 
Q 2531 2678 2651 2914 
Q 2772 3150 2772 3378 
Q 2772 3750 2511 3984 
Q 2250 4219 1831 4219 
Q 1534 4219 1204 4116 
Q 875 4013 500 3803 
L 500 4441 
Q 881 4594 1212 4672 
Q 1544 4750 1819 4750 
Q 2544 4750 2975 4387 
Q 3406 4025 3406 3419 
Q 3406 3131 3298 2873 
Q 3191 2616 2906 2266 
Q 2828 2175 2409 1742 
Q 1991 1309 1228 531 
z
" transform="scale(0.015625)"/>
       </defs>
       <use xlink:href="#DejaVuSans-2212"/>
       <use xlink:href="#DejaVuSans-32" x="83.789062"/>
       <use xlink:href="#DejaVuSans-30" x="147.412109"/>
       <use xlink:href="#DejaVuSans-30" x="211.035156"/>
      </g>
     </g>
    </g>
    <g id="xtick_3">
     <g id="line2d_3">
      <g>
       <use xlink:href="#mdab10a646d" x="416.780841" y="320.4" style="stroke: #000000; stroke-width: 0.8"/>
      </g>
     </g>
     <g id="text_3">
      <!-- 0 -->
      <g transform="translate(413.599591 334.998438) scale(0.1 -0.1)">
       <use xlink:href="#DejaVuSans-30"/>
      </g>
     </g>
    </g>
    <g id="xtick_4">
     <g id="line2d_4">
      <g>
       <use xlink:href="#mdab10a646d" x="529.716608" y="320.4" style="stroke: #000000; stroke-width: 0.8"/>
      </g>
     </g>
     <g id="text_4">
      <!-- 200 -->
      <g transform="translate(520.172858 334.998438) scale(0.1 -0.1)">
       <use xlink:href="#DejaVuSans-32"/>
       <use xlink:href="#DejaVuSans-30" x="63.623047"/>
       <use xlink:href="#DejaVuSans-30" x="127.246094"/>
      </g>
     </g>
    </g>
    <g id="xtick_5">
     <g id="line2d_5">
      <g>
       <use xlink:href="#mdab10a646d" x="642.652374" y="320.4" style="stroke: #000000; stroke-width: 0.8"/>
      </g>
     </g>
     <g id="text_5">
      <!-- 400 -->
      <g transform="translate(633.108624 334.998438) scale(0.1 -0.1)">
       <use xlink:href="#DejaVuSans-34"/>
       <use xlink:href="#DejaVuSans-30" x="63.623047"/>
       <use xlink:href="#DejaVuSans-30" x="127.246094"/>
      </g>
     </g>
    </g>
    <g id="text_6">
     <!-- LDA Component 1 -->
     <g transform="translate(323.642969 348.676562) scale(0.1 -0.1)">
      <defs>
       <path id="DejaVuSans-4c" d="M 628 4666 
L 1259 4666 
L 1259 531 
L 3531 531 
L 3531 0 
L 628 0 
L 628 4666 
z
" transform="scale(0.015625)"/>
       <path id="DejaVuSans-44" d="M 1259 4147 
L 1259 519 
L 2022 519 
Q 2988 519 3436 956 
Q 3884 1394 3884 2338 
Q 3884 3275 3436 3711 
Q 2988 4147 2022 4147 
L 1259 4147 
z
M 628 4666 
L 1925 4666 
Q 3281 4666 3915 4102 
Q 4550 3538 4550 2338 
Q 4550 1131 3912 565 
Q 3275 0 1925 0 
L 628 0 
L 628 4666 
z
" transform="scale(0.015625)"/>
       <path id="DejaVuSans-41" d="M 2188 4044 
L 1331 1722 
L 3047 1722 
L 2188 4044 
z
M 1831 4666 
L 2547 4666 
L 4325 0 
L 3669 0 
L 3244 1197 
L 1141 1197 
L 716 0 
L 50 0 
L 1831 4666 
z
" transform="scale(0.015625)"/>
       <path id="DejaVuSans-20" transform="scale(0.015625)"/>
       <path id="DejaVuSans-43" d="M 4122 4306 
L 4122 3641 
Q 3803 3938 3442 4084 
Q 3081 4231 2675 4231 
Q 1875 4231 1450 3742 
Q 1025 3253 1025 2328 
Q 1025 1406 1450 917 
Q 1875 428 2675 428 
Q 3081 428 3442 575 
Q 3803 722 4122 1019 
L 4122 359 
Q 3791 134 3420 21 
Q 3050 -91 2638 -91 
Q 1578 -91 968 557 
Q 359 1206 359 2328 
Q 359 3453 968 4101 
Q 1578 4750 2638 4750 
Q 3056 4750 3426 4639 
Q 3797 4528 4122 4306 
z
" transform="scale(0.015625)"/>
       <path id="DejaVuSans-6f" d="M 1959 3097 
Q 1497 3097 1228 2736 
Q 959 2375 959 1747 
Q 959 1119 1226 758 
Q 1494 397 1959 397 
Q 2419 397 2687 759 
Q 2956 1122 2956 1747 
Q 2956 2369 2687 2733 
Q 2419 3097 1959 3097 
z
M 1959 3584 
Q 2709 3584 3137 3096 
Q 3566 2609 3566 1747 
Q 3566 888 3137 398 
Q 2709 -91 1959 -91 
Q 1206 -91 779 398 
Q 353 888 353 1747 
Q 353 2609 779 3096 
Q 1206 3584 1959 3584 
z
" transform="scale(0.015625)"/>
       <path id="DejaVuSans-6d" d="M 3328 2828 
Q 3544 3216 3844 3400 
Q 4144 3584 4550 3584 
Q 5097 3584 5394 3201 
Q 5691 2819 5691 2113 
L 5691 0 
L 5113 0 
L 5113 2094 
Q 5113 2597 4934 2840 
Q 4756 3084 4391 3084 
Q 3944 3084 3684 2787 
Q 3425 2491 3425 1978 
L 3425 0 
L 2847 0 
L 2847 2094 
Q 2847 2600 2669 2842 
Q 2491 3084 2119 3084 
Q 1678 3084 1418 2786 
Q 1159 2488 1159 1978 
L 1159 0 
L 581 0 
L 581 3500 
L 1159 3500 
L 1159 2956 
Q 1356 3278 1631 3431 
Q 1906 3584 2284 3584 
Q 2666 3584 2933 3390 
Q 3200 3197 3328 2828 
z
" transform="scale(0.015625)"/>
       <path id="DejaVuSans-70" d="M 1159 525 
L 1159 -1331 
L 581 -1331 
L 581 3500 
L 1159 3500 
L 1159 2969 
Q 1341 3281 1617 3432 
Q 1894 3584 2278 3584 
Q 2916 3584 3314 3078 
Q 3713 2572 3713 1747 
Q 3713 922 3314 415 
Q 2916 -91 2278 -91 
Q 1894 -91 1617 61 
Q 1341 213 1159 525 
z
M 3116 1747 
Q 3116 2381 2855 2742 
Q 2594 3103 2138 3103 
Q 1681 3103 1420 2742 
Q 1159 2381 1159 1747 
Q 1159 1113 1420 752 
Q 1681 391 2138 391 
Q 2594 391 2855 752 
Q 3116 1113 3116 1747 
z
" transform="scale(0.015625)"/>
       <path id="DejaVuSans-6e" d="M 3513 2113 
L 3513 0 
L 2938 0 
L 2938 2094 
Q 2938 2591 2744 2837 
Q 2550 3084 2163 3084 
Q 1697 3084 1428 2787 
Q 1159 2491 1159 1978 
L 1159 0 
L 581 0 
L 581 3500 
L 1159 3500 
L 1159 2956 
Q 1366 3272 1645 3428 
Q 1925 3584 2291 3584 
Q 2894 3584 3203 3211 
Q 3513 2838 3513 2113 
z
" transform="scale(0.015625)"/>
       <path id="DejaVuSans-65" d="M 3597 1894 
L 3597 1613 
L 953 1613 
Q 991 1019 1311 708 
Q 1631 397 2203 397 
Q 2534 397 2845 478 
Q 3156 559 3463 722 
L 3463 178 
Q 3153 47 2828 -22 
Q 2503 -91 2169 -91 
Q 1331 -91 842 396 
Q 353 884 353 1716 
Q 353 2575 817 3079 
Q 1281 3584 2069 3584 
Q 2775 3584 3186 3129 
Q 3597 2675 3597 1894 
z
M 3022 2063 
Q 3016 2534 2758 2815 
Q 2500 3097 2075 3097 
Q 1594 3097 1305 2825 
Q 1016 2553 972 2059 
L 3022 2063 
z
" transform="scale(0.015625)"/>
       <path id="DejaVuSans-74" d="M 1172 4494 
L 1172 3500 
L 2356 3500 
L 2356 3053 
L 1172 3053 
L 1172 1153 
Q 1172 725 1289 603 
Q 1406 481 1766 481 
L 2356 481 
L 2356 0 
L 1766 0 
Q 1100 0 847 248 
Q 594 497 594 1153 
L 594 3053 
L 172 3053 
L 172 3500 
L 594 3500 
L 594 4494 
L 1172 4494 
z
" transform="scale(0.015625)"/>
       <path id="DejaVuSans-31" d="M 794 531 
L 1825 531 
L 1825 4091 
L 703 3866 
L 703 4441 
L 1819 4666 
L 2450 4666 
L 2450 531 
L 3481 531 
L 3481 0 
L 794 0 
L 794 531 
z
" transform="scale(0.015625)"/>
      </defs>
      <use xlink:href="#DejaVuSans-4c"/>
      <use xlink:href="#DejaVuSans-44" x="55.712891"/>
      <use xlink:href="#DejaVuSans-41" x="130.964844"/>
      <use xlink:href="#DejaVuSans-20" x="199.373047"/>
      <use xlink:href="#DejaVuSans-43" x="231.160156"/>
      <use xlink:href="#DejaVuSans-6f" x="300.984375"/>
      <use xlink:href="#DejaVuSans-6d" x="362.166016"/>
      <use xlink:href="#DejaVuSans-70" x="459.578125"/>
      <use xlink:href="#DejaVuSans-6f" x="523.054688"/>
      <use xlink:href="#DejaVuSans-6e" x="584.236328"/>
      <use xlink:href="#DejaVuSans-65" x="647.615234"/>
      <use xlink:href="#DejaVuSans-6e" x="709.138672"/>
      <use xlink:href="#DejaVuSans-74" x="772.517578"/>
      <use xlink:href="#DejaVuSans-20" x="811.726562"/>
      <use xlink:href="#DejaVuSans-31" x="843.513672"/>
     </g>
    </g>
   </g>
   <g id="matplotlib.axis_2">
    <g id="ytick_1">
     <g id="line2d_6">
      <defs>
       <path id="m75231118cc" d="M 0 0 
L -3.5 0 
" style="stroke: #000000; stroke-width: 0.8"/>
      </defs>
      <g>
       <use xlink:href="#m75231118cc" x="90" y="320.4" style="stroke: #000000; stroke-width: 0.8"/>
      </g>
     </g>
     <g id="text_7">
      <!-- 0.0000 -->
      <g transform="translate(48.009375 324.199219) scale(0.1 -0.1)">
       <defs>
        <path id="DejaVuSans-2e" d="M 684 794 
L 1344 794 
L 1344 0 
L 684 0 
L 684 794 
z
" transform="scale(0.015625)"/>
       </defs>
       <use xlink:href="#DejaVuSans-30"/>
       <use xlink:href="#DejaVuSans-2e" x="63.623047"/>
       <use xlink:href="#DejaVuSans-30" x="95.410156"/>
       <use xlink:href="#DejaVuSans-30" x="159.033203"/>
       <use xlink:href="#DejaVuSans-30" x="222.65625"/>
       <use xlink:href="#DejaVuSans-30" x="286.279297"/>
      </g>
     </g>
    </g>
    <g id="ytick_2">
     <g id="line2d_7">
      <g>
       <use xlink:href="#m75231118cc" x="90" y="268.231708" style="stroke: #000000; stroke-width: 0.8"/>
      </g>
     </g>
     <g id="text_8">
      <!-- 0.0005 -->
      <g transform="translate(48.009375 272.030927) scale(0.1 -0.1)">
       <defs>
        <path id="DejaVuSans-35" d="M 691 4666 
L 3169 4666 
L 3169 4134 
L 1269 4134 
L 1269 2991 
Q 1406 3038 1543 3061 
Q 1681 3084 1819 3084 
Q 2600 3084 3056 2656 
Q 3513 2228 3513 1497 
Q 3513 744 3044 326 
Q 2575 -91 1722 -91 
Q 1428 -91 1123 -41 
Q 819 9 494 109 
L 494 744 
Q 775 591 1075 516 
Q 1375 441 1709 441 
Q 2250 441 2565 725 
Q 2881 1009 2881 1497 
Q 2881 1984 2565 2268 
Q 2250 2553 1709 2553 
Q 1456 2553 1204 2497 
Q 953 2441 691 2322 
L 691 4666 
z
" transform="scale(0.015625)"/>
       </defs>
       <use xlink:href="#DejaVuSans-30"/>
       <use xlink:href="#DejaVuSans-2e" x="63.623047"/>
       <use xlink:href="#DejaVuSans-30" x="95.410156"/>
       <use xlink:href="#DejaVuSans-30" x="159.033203"/>
       <use xlink:href="#DejaVuSans-30" x="222.65625"/>
       <use xlink:href="#DejaVuSans-35" x="286.279297"/>
      </g>
     </g>
    </g>
    <g id="ytick_3">
     <g id="line2d_8">
      <g>
       <use xlink:href="#m75231118cc" x="90" y="216.063416" style="stroke: #000000; stroke-width: 0.8"/>
      </g>
     </g>
     <g id="text_9">
      <!-- 0.0010 -->
      <g transform="translate(48.009375 219.862635) scale(0.1 -0.1)">
       <use xlink:href="#DejaVuSans-30"/>
       <use xlink:href="#DejaVuSans-2e" x="63.623047"/>
       <use xlink:href="#DejaVuSans-30" x="95.410156"/>
       <use xlink:href="#DejaVuSans-30" x="159.033203"/>
       <use xlink:href="#DejaVuSans-31" x="222.65625"/>
       <use xlink:href="#DejaVuSans-30" x="286.279297"/>
      </g>
     </g>
    </g>
    <g id="ytick_4">
     <g id="line2d_9">
      <g>
       <use xlink:href="#m75231118cc" x="90" y="163.895124" style="stroke: #000000; stroke-width: 0.8"/>
      </g>
     </g>
     <g id="text_10">
      <!-- 0.0015 -->
      <g transform="translate(48.009375 167.694343) scale(0.1 -0.1)">
       <use xlink:href="#DejaVuSans-30"/>
       <use xlink:href="#DejaVuSans-2e" x="63.623047"/>
       <use xlink:href="#DejaVuSans-30" x="95.410156"/>
       <use xlink:href="#DejaVuSans-30" x="159.033203"/>
       <use xlink:href="#DejaVuSans-31" x="222.65625"/>
       <use xlink:href="#DejaVuSans-35" x="286.279297"/>
      </g>
     </g>
    </g>
    <g id="ytick_5">
     <g id="line2d_10">
      <g>
       <use xlink:href="#m75231118cc" x="90" y="111.726833" style="stroke: #000000; stroke-width: 0.8"/>
      </g>
     </g>
     <g id="text_11">
      <!-- 0.0020 -->
      <g transform="translate(48.009375 115.526051) scale(0.1 -0.1)">
       <use xlink:href="#DejaVuSans-30"/>
       <use xlink:href="#DejaVuSans-2e" x="63.623047"/>
       <use xlink:href="#DejaVuSans-30" x="95.410156"/>
       <use xlink:href="#DejaVuSans-30" x="159.033203"/>
       <use xlink:href="#DejaVuSans-32" x="222.65625"/>
       <use xlink:href="#DejaVuSans-30" x="286.279297"/>
      </g>
     </g>
    </g>
    <g id="ytick_6">
     <g id="line2d_11">
      <g>
       <use xlink:href="#m75231118cc" x="90" y="59.558541" style="stroke: #000000; stroke-width: 0.8"/>
      </g>
     </g>
     <g id="text_12">
      <!-- 0.0025 -->
      <g transform="translate(48.009375 63.35776) scale(0.1 -0.1)">
       <use xlink:href="#DejaVuSans-30"/>
       <use xlink:href="#DejaVuSans-2e" x="63.623047"/>
       <use xlink:href="#DejaVuSans-30" x="95.410156"/>
       <use xlink:href="#DejaVuSans-30" x="159.033203"/>
       <use xlink:href="#DejaVuSans-32" x="222.65625"/>
       <use xlink:href="#DejaVuSans-35" x="286.279297"/>
      </g>
     </g>
    </g>
    <g id="text_13">
     <!-- Density -->
     <g transform="translate(41.929688 200.808594) rotate(-90) scale(0.1 -0.1)">
      <defs>
       <path id="DejaVuSans-73" d="M 2834 3397 
L 2834 2853 
Q 2591 2978 2328 3040 
Q 2066 3103 1784 3103 
Q 1356 3103 1142 2972 
Q 928 2841 928 2578 
Q 928 2378 1081 2264 
Q 1234 2150 1697 2047 
L 1894 2003 
Q 2506 1872 2764 1633 
Q 3022 1394 3022 966 
Q 3022 478 2636 193 
Q 2250 -91 1575 -91 
Q 1294 -91 989 -36 
Q 684 19 347 128 
L 347 722 
Q 666 556 975 473 
Q 1284 391 1588 391 
Q 1994 391 2212 530 
Q 2431 669 2431 922 
Q 2431 1156 2273 1281 
Q 2116 1406 1581 1522 
L 1381 1569 
Q 847 1681 609 1914 
Q 372 2147 372 2553 
Q 372 3047 722 3315 
Q 1072 3584 1716 3584 
Q 2034 3584 2315 3537 
Q 2597 3491 2834 3397 
z
" transform="scale(0.015625)"/>
       <path id="DejaVuSans-69" d="M 603 3500 
L 1178 3500 
L 1178 0 
L 603 0 
L 603 3500 
z
M 603 4863 
L 1178 4863 
L 1178 4134 
L 603 4134 
L 603 4863 
z
" transform="scale(0.015625)"/>
       <path id="DejaVuSans-79" d="M 2059 -325 
Q 1816 -950 1584 -1140 
Q 1353 -1331 966 -1331 
L 506 -1331 
L 506 -850 
L 844 -850 
Q 1081 -850 1212 -737 
Q 1344 -625 1503 -206 
L 1606 56 
L 191 3500 
L 800 3500 
L 1894 763 
L 2988 3500 
L 3597 3500 
L 2059 -325 
z
" transform="scale(0.015625)"/>
      </defs>
      <use xlink:href="#DejaVuSans-44"/>
      <use xlink:href="#DejaVuSans-65" x="77.001953"/>
      <use xlink:href="#DejaVuSans-6e" x="138.525391"/>
      <use xlink:href="#DejaVuSans-73" x="201.904297"/>
      <use xlink:href="#DejaVuSans-69" x="254.003906"/>
      <use xlink:href="#DejaVuSans-74" x="281.787109"/>
      <use xlink:href="#DejaVuSans-79" x="320.996094"/>
     </g>
    </g>
   </g>
   <g id="patch_3">
    <path d="M 90 320.4 
L 90 43.2 
" style="fill: none; stroke: #000000; stroke-width: 0.8; stroke-linejoin: miter; stroke-linecap: square"/>
   </g>
   <g id="patch_4">
    <path d="M 648 320.4 
L 648 43.2 
" style="fill: none; stroke: #000000; stroke-width: 0.8; stroke-linejoin: miter; stroke-linecap: square"/>
   </g>
   <g id="patch_5">
    <path d="M 90 320.4 
L 648 320.4 
" style="fill: none; stroke: #000000; stroke-width: 0.8; stroke-linejoin: miter; stroke-linecap: square"/>
   </g>
   <g id="patch_6">
    <path d="M 90 43.2 
L 648 43.2 
" style="fill: none; stroke: #000000; stroke-width: 0.8; stroke-linejoin: miter; stroke-linecap: square"/>
   </g>
   <g id="text_14">
    <!-- Distribution of First LDA Component by Tumor Class -->
    <g transform="translate(213.754688 37.2) scale(0.12 -0.12)">
     <defs>
      <path id="DejaVuSans-72" d="M 2631 2963 
Q 2534 3019 2420 3045 
Q 2306 3072 2169 3072 
Q 1681 3072 1420 2755 
Q 1159 2438 1159 1844 
L 1159 0 
L 581 0 
L 581 3500 
L 1159 3500 
L 1159 2956 
Q 1341 3275 1631 3429 
Q 1922 3584 2338 3584 
Q 2397 3584 2469 3576 
Q 2541 3569 2628 3553 
L 2631 2963 
z
" transform="scale(0.015625)"/>
      <path id="DejaVuSans-62" d="M 3116 1747 
Q 3116 2381 2855 2742 
Q 2594 3103 2138 3103 
Q 1681 3103 1420 2742 
Q 1159 2381 1159 1747 
Q 1159 1113 1420 752 
Q 1681 391 2138 391 
Q 2594 391 2855 752 
Q 3116 1113 3116 1747 
z
M 1159 2969 
Q 1341 3281 1617 3432 
Q 1894 3584 2278 3584 
Q 2916 3584 3314 3078 
Q 3713 2572 3713 1747 
Q 3713 922 3314 415 
Q 2916 -91 2278 -91 
Q 1894 -91 1617 61 
Q 1341 213 1159 525 
L 1159 0 
L 581 0 
L 581 4863 
L 1159 4863 
L 1159 2969 
z
" transform="scale(0.015625)"/>
      <path id="DejaVuSans-75" d="M 544 1381 
L 544 3500 
L 1119 3500 
L 1119 1403 
Q 1119 906 1312 657 
Q 1506 409 1894 409 
Q 2359 409 2629 706 
Q 2900 1003 2900 1516 
L 2900 3500 
L 3475 3500 
L 3475 0 
L 2900 0 
L 2900 538 
Q 2691 219 2414 64 
Q 2138 -91 1772 -91 
Q 1169 -91 856 284 
Q 544 659 544 1381 
z
M 1991 3584 
L 1991 3584 
z
" transform="scale(0.015625)"/>
      <path id="DejaVuSans-66" d="M 2375 4863 
L 2375 4384 
L 1825 4384 
Q 1516 4384 1395 4259 
Q 1275 4134 1275 3809 
L 1275 3500 
L 2222 3500 
L 2222 3053 
L 1275 3053 
L 1275 0 
L 697 0 
L 697 3053 
L 147 3053 
L 147 3500 
L 697 3500 
L 697 3744 
Q 697 4328 969 4595 
Q 1241 4863 1831 4863 
L 2375 4863 
z
" transform="scale(0.015625)"/>
      <path id="DejaVuSans-46" d="M 628 4666 
L 3309 4666 
L 3309 4134 
L 1259 4134 
L 1259 2759 
L 3109 2759 
L 3109 2228 
L 1259 2228 
L 1259 0 
L 628 0 
L 628 4666 
z
" transform="scale(0.015625)"/>
      <path id="DejaVuSans-54" d="M -19 4666 
L 3928 4666 
L 3928 4134 
L 2272 4134 
L 2272 0 
L 1638 0 
L 1638 4134 
L -19 4134 
L -19 4666 
z
" transform="scale(0.015625)"/>
      <path id="DejaVuSans-6c" d="M 603 4863 
L 1178 4863 
L 1178 0 
L 603 0 
L 603 4863 
z
" transform="scale(0.015625)"/>
      <path id="DejaVuSans-61" d="M 2194 1759 
Q 1497 1759 1228 1600 
Q 959 1441 959 1056 
Q 959 750 1161 570 
Q 1363 391 1709 391 
Q 2188 391 2477 730 
Q 2766 1069 2766 1631 
L 2766 1759 
L 2194 1759 
z
M 3341 1997 
L 3341 0 
L 2766 0 
L 2766 531 
Q 2569 213 2275 61 
Q 1981 -91 1556 -91 
Q 1019 -91 701 211 
Q 384 513 384 1019 
Q 384 1609 779 1909 
Q 1175 2209 1959 2209 
L 2766 2209 
L 2766 2266 
Q 2766 2663 2505 2880 
Q 2244 3097 1772 3097 
Q 1472 3097 1187 3025 
Q 903 2953 641 2809 
L 641 3341 
Q 956 3463 1253 3523 
Q 1550 3584 1831 3584 
Q 2591 3584 2966 3190 
Q 3341 2797 3341 1997 
z
" transform="scale(0.015625)"/>
     </defs>
     <use xlink:href="#DejaVuSans-44"/>
     <use xlink:href="#DejaVuSans-69" x="77.001953"/>
     <use xlink:href="#DejaVuSans-73" x="104.785156"/>
     <use xlink:href="#DejaVuSans-74" x="156.884766"/>
     <use xlink:href="#DejaVuSans-72" x="196.09375"/>
     <use xlink:href="#DejaVuSans-69" x="237.207031"/>
     <use xlink:href="#DejaVuSans-62" x="264.990234"/>
     <use xlink:href="#DejaVuSans-75" x="328.466797"/>
     <use xlink:href="#DejaVuSans-74" x="391.845703"/>
     <use xlink:href="#DejaVuSans-69" x="431.054688"/>
     <use xlink:href="#DejaVuSans-6f" x="458.837891"/>
     <use xlink:href="#DejaVuSans-6e" x="520.019531"/>
     <use xlink:href="#DejaVuSans-20" x="583.398438"/>
     <use xlink:href="#DejaVuSans-6f" x="615.185547"/>
     <use xlink:href="#DejaVuSans-66" x="676.367188"/>
     <use xlink:href="#DejaVuSans-20" x="711.572266"/>
     <use xlink:href="#DejaVuSans-46" x="743.359375"/>
     <use xlink:href="#DejaVuSans-69" x="793.628906"/>
     <use xlink:href="#DejaVuSans-72" x="821.412109"/>
     <use xlink:href="#DejaVuSans-73" x="862.525391"/>
     <use xlink:href="#DejaVuSans-74" x="914.625"/>
     <use xlink:href="#DejaVuSans-20" x="953.833984"/>
     <use xlink:href="#DejaVuSans-4c" x="985.621094"/>
     <use xlink:href="#DejaVuSans-44" x="1041.333984"/>
     <use xlink:href="#DejaVuSans-41" x="1116.585938"/>
     <use xlink:href="#DejaVuSans-20" x="1184.994141"/>
     <use xlink:href="#DejaVuSans-43" x="1216.78125"/>
     <use xlink:href="#DejaVuSans-6f" x="1286.605469"/>
     <use xlink:href="#DejaVuSans-6d" x="1347.787109"/>
     <use xlink:href="#DejaVuSans-70" x="1445.199219"/>
     <use xlink:href="#DejaVuSans-6f" x="1508.675781"/>
     <use xlink:href="#DejaVuSans-6e" x="1569.857422"/>
     <use xlink:href="#DejaVuSans-65" x="1633.236328"/>
     <use xlink:href="#DejaVuSans-6e" x="1694.759766"/>
     <use xlink:href="#DejaVuSans-74" x="1758.138672"/>
     <use xlink:href="#DejaVuSans-20" x="1797.347656"/>
     <use xlink:href="#DejaVuSans-62" x="1829.134766"/>
     <use xlink:href="#DejaVuSans-79" x="1892.611328"/>
     <use xlink:href="#DejaVuSans-20" x="1951.791016"/>
     <use xlink:href="#DejaVuSans-54" x="1983.578125"/>
     <use xlink:href="#DejaVuSans-75" x="2029.537109"/>
     <use xlink:href="#DejaVuSans-6d" x="2092.916016"/>
     <use xlink:href="#DejaVuSans-6f" x="2190.328125"/>
     <use xlink:href="#DejaVuSans-72" x="2251.509766"/>
     <use xlink:href="#DejaVuSans-20" x="2292.623047"/>
     <use xlink:href="#DejaVuSans-43" x="2324.410156"/>
     <use xlink:href="#DejaVuSans-6c" x="2394.234375"/>
     <use xlink:href="#DejaVuSans-61" x="2422.017578"/>
     <use xlink:href="#DejaVuSans-73" x="2483.296875"/>
     <use xlink:href="#DejaVuSans-73" x="2535.396484"/>
    </g>
   </g>
   <g id="legend_1">
    <g id="patch_7">
     <path d="M 602.6375 95.234375 
L 641 95.234375 
Q 643 95.234375 643 93.234375 
L 643 50.2 
Q 643 48.2 641 48.2 
L 602.6375 48.2 
Q 600.6375 48.2 600.6375 50.2 
L 600.6375 93.234375 
Q 600.6375 95.234375 602.6375 95.234375 
z
" style="fill: #ffffff; opacity: 0.8; stroke: #cccccc; stroke-linejoin: miter"/>
    </g>
    <g id="text_15">
     <!-- target -->
     <g transform="translate(606.615625 59.798437) scale(0.1 -0.1)">
      <defs>
       <path id="DejaVuSans-67" d="M 2906 1791 
Q 2906 2416 2648 2759 
Q 2391 3103 1925 3103 
Q 1463 3103 1205 2759 
Q 947 2416 947 1791 
Q 947 1169 1205 825 
Q 1463 481 1925 481 
Q 2391 481 2648 825 
Q 2906 1169 2906 1791 
z
M 3481 434 
Q 3481 -459 3084 -895 
Q 2688 -1331 1869 -1331 
Q 1566 -1331 1297 -1286 
Q 1028 -1241 775 -1147 
L 775 -588 
Q 1028 -725 1275 -790 
Q 1522 -856 1778 -856 
Q 2344 -856 2625 -561 
Q 2906 -266 2906 331 
L 2906 616 
Q 2728 306 2450 153 
Q 2172 0 1784 0 
Q 1141 0 747 490 
Q 353 981 353 1791 
Q 353 2603 747 3093 
Q 1141 3584 1784 3584 
Q 2172 3584 2450 3431 
Q 2728 3278 2906 2969 
L 2906 3500 
L 3481 3500 
L 3481 434 
z
" transform="scale(0.015625)"/>
      </defs>
      <use xlink:href="#DejaVuSans-74"/>
      <use xlink:href="#DejaVuSans-61" x="39.208984"/>
      <use xlink:href="#DejaVuSans-72" x="100.488281"/>
      <use xlink:href="#DejaVuSans-67" x="139.851562"/>
      <use xlink:href="#DejaVuSans-65" x="203.328125"/>
      <use xlink:href="#DejaVuSans-74" x="264.851562"/>
     </g>
    </g>
    <g id="patch_8">
     <path d="M 604.6375 74.476562 
L 624.6375 74.476562 
L 624.6375 67.476562 
L 604.6375 67.476562 
z
" style="fill: #e41a1c; fill-opacity: 0.3; stroke: #e41a1c; stroke-linejoin: miter"/>
    </g>
    <g id="text_16">
     <!-- 0 -->
     <g transform="translate(632.6375 74.476562) scale(0.1 -0.1)">
      <use xlink:href="#DejaVuSans-30"/>
     </g>
    </g>
    <g id="patch_9">
     <path d="M 604.6375 89.154688 
L 624.6375 89.154688 
L 624.6375 82.154688 
L 604.6375 82.154688 
z
" style="fill: #377eb8; fill-opacity: 0.3; stroke: #377eb8; stroke-linejoin: miter"/>
    </g>
    <g id="text_17">
     <!-- 1 -->
     <g transform="translate(632.6375 89.154688) scale(0.1 -0.1)">
      <use xlink:href="#DejaVuSans-31"/>
     </g>
    </g>
   </g>
  </g>
 </g>
 <defs>
  <clipPath id="pb1504cc888">
   <rect x="90" y="43.2" width="558" height="277.2"/>
  </clipPath>
 </defs>
</svg>
