<?xml version="1.0" encoding="utf-8" standalone="no"?>
<!DOCTYPE svg PUBLIC "-//W3C//DTD SVG 1.1//EN"
  "http://www.w3.org/Graphics/SVG/1.1/DTD/svg11.dtd">
<svg xmlns:xlink="http://www.w3.org/1999/xlink" width="864pt" height="432pt" viewBox="0 0 864 432" xmlns="http://www.w3.org/2000/svg" version="1.1">
 <metadata>
  <rdf:RDF xmlns:dc="http://purl.org/dc/elements/1.1/" xmlns:cc="http://creativecommons.org/ns#" xmlns:rdf="http://www.w3.org/1999/02/22-rdf-syntax-ns#">
   <cc:Work>
    <dc:type rdf:resource="http://purl.org/dc/dcmitype/StillImage"/>
    <dc:date>2025-04-27T01:53:20.351636</dc:date>
    <dc:format>image/svg+xml</dc:format>
    <dc:creator>
     <cc:Agent>
      <dc:title>Matplotlib v3.9.2, https://matplotlib.org/</dc:title>
     </cc:Agent>
    </dc:creator>
   </cc:Work>
  </rdf:RDF>
 </metadata>
 <defs>
  <style type="text/css">*{stroke-linejoin: round; stroke-linecap: butt}</style>
 </defs>
 <g id="figure_1">
  <g id="patch_1">
   <path d="M 0 432 
L 864 432 
L 864 0 
L 0 0 
z
" style="fill: #ffffff"/>
  </g>
  <g id="axes_1">
   <g id="patch_2">
    <path d="M 108 384.48 
L 777.6 384.48 
L 777.6 51.84 
L 108 51.84 
z
" style="fill: #ffffff"/>
   </g>
   <g id="PolyCollection_1">
    <defs>
     <path id="mb7f020e308" d="M 276.454076 -62.64 
L 274.345924 -62.64 
L 273.76238 -65.694545 
L 272.941382 -68.749091 
L 271.830137 -71.803636 
L 270.382258 -74.858182 
L 268.564669 -77.912727 
L 266.363392 -80.967273 
L 263.786327 -84.021818 
L 260.861469 -87.076364 
L 257.629867 -90.130909 
L 254.133966 -93.185455 
L 250.403448 -96.24 
L 246.441844 -99.294545 
L 242.217678 -102.349091 
L 237.663429 -105.403636 
L 232.684186 -108.458182 
L 227.175825 -111.512727 
L 221.050197 -114.567273 
L 214.262819 -117.621818 
L 206.837339 -120.676364 
L 198.880979 -123.730909 
L 190.586397 -126.785455 
L 182.217858 -129.84 
L 174.082823 -132.894545 
L 166.493481 -135.949091 
L 159.725492 -139.003636 
L 153.98248 -142.058182 
L 149.374055 -145.112727 
L 145.912265 -148.167273 
L 143.526961 -151.221818 
L 142.095699 -154.276364 
L 141.48 -157.330909 
L 141.558234 -160.385455 
L 142.246734 -163.44 
L 143.504591 -166.494545 
L 145.322715 -169.549091 
L 147.702563 -172.603636 
L 150.632711 -175.658182 
L 154.071537 -178.712727 
L 157.941627 -181.767273 
L 162.137253 -184.821818 
L 166.541894 -187.876364 
L 171.049732 -190.930909 
L 175.584243 -193.985455 
L 180.108518 -197.04 
L 184.624943 -200.094545 
L 189.165308 -203.149091 
L 193.774979 -206.203636 
L 198.495848 -209.258182 
L 203.352214 -212.312727 
L 208.342112 -215.367273 
L 213.434645 -218.421818 
L 218.572377 -221.476364 
L 223.677136 -224.530909 
L 228.657624 -227.585455 
L 233.417698 -230.64 
L 237.864635 -233.694545 
L 241.916902 -236.749091 
L 245.510923 -239.803636 
L 248.606236 -242.858182 
L 251.188496 -245.912727 
L 253.269993 -248.967273 
L 254.887727 -252.021818 
L 256.099416 -255.076364 
L 256.97801 -258.130909 
L 257.605298 -261.185455 
L 258.06523 -264.24 
L 258.437539 -267.294545 
L 258.792271 -270.349091 
L 259.185824 -273.403636 
L 259.658875 -276.458182 
L 260.236268 -279.512727 
L 260.92847 -282.567273 
L 261.733882 -285.621818 
L 262.641181 -288.676364 
L 263.631109 -291.730909 
L 264.677552 -294.785455 
L 265.748269 -297.84 
L 266.805961 -300.894545 
L 267.810371 -303.949091 
L 268.721802 -307.003636 
L 269.505905 -310.058182 
L 270.138957 -313.112727 
L 270.612452 -316.167273 
L 270.935711 -319.221818 
L 271.13551 -322.276364 
L 271.25239 -325.330909 
L 271.334133 -328.385455 
L 271.427694 -331.44 
L 271.571336 -334.494545 
L 271.788725 -337.549091 
L 272.086219 -340.603636 
L 272.453787 -343.658182 
L 272.868999 -346.712727 
L 273.30287 -349.767273 
L 273.726012 -352.821818 
L 274.1137 -355.876364 
L 274.449 -358.930909 
L 274.723718 -361.985455 
L 274.937519 -365.04 
L 275.862481 -365.04 
L 275.862481 -365.04 
L 276.076282 -361.985455 
L 276.351 -358.930909 
L 276.6863 -355.876364 
L 277.073988 -352.821818 
L 277.49713 -349.767273 
L 277.931001 -346.712727 
L 278.346213 -343.658182 
L 278.713781 -340.603636 
L 279.011275 -337.549091 
L 279.228664 -334.494545 
L 279.372306 -331.44 
L 279.465867 -328.385455 
L 279.54761 -325.330909 
L 279.66449 -322.276364 
L 279.864289 -319.221818 
L 280.187548 -316.167273 
L 280.661043 -313.112727 
L 281.294095 -310.058182 
L 282.078198 -307.003636 
L 282.989629 -303.949091 
L 283.994039 -300.894545 
L 285.051731 -297.84 
L 286.122448 -294.785455 
L 287.168891 -291.730909 
L 288.158819 -288.676364 
L 289.066118 -285.621818 
L 289.87153 -282.567273 
L 290.563732 -279.512727 
L 291.141125 -276.458182 
L 291.614176 -273.403636 
L 292.007729 -270.349091 
L 292.362461 -267.294545 
L 292.73477 -264.24 
L 293.194702 -261.185455 
L 293.82199 -258.130909 
L 294.700584 -255.076364 
L 295.912273 -252.021818 
L 297.530007 -248.967273 
L 299.611504 -245.912727 
L 302.193764 -242.858182 
L 305.289077 -239.803636 
L 308.883098 -236.749091 
L 312.935365 -233.694545 
L 317.382302 -230.64 
L 322.142376 -227.585455 
L 327.122864 -224.530909 
L 332.227623 -221.476364 
L 337.365355 -218.421818 
L 342.457888 -215.367273 
L 347.447786 -212.312727 
L 352.304152 -209.258182 
L 357.025021 -206.203636 
L 361.634692 -203.149091 
L 366.175057 -200.094545 
L 370.691482 -197.04 
L 375.215757 -193.985455 
L 379.750268 -190.930909 
L 384.258106 -187.876364 
L 388.662747 -184.821818 
L 392.858373 -181.767273 
L 396.728463 -178.712727 
L 400.167289 -175.658182 
L 403.097437 -172.603636 
L 405.477285 -169.549091 
L 407.295409 -166.494545 
L 408.553266 -163.44 
L 409.241766 -160.385455 
L 409.32 -157.330909 
L 408.704301 -154.276364 
L 407.273039 -151.221818 
L 404.887735 -148.167273 
L 401.425945 -145.112727 
L 396.81752 -142.058182 
L 391.074508 -139.003636 
L 384.306519 -135.949091 
L 376.717177 -132.894545 
L 368.582142 -129.84 
L 360.213603 -126.785455 
L 351.919021 -123.730909 
L 343.962661 -120.676364 
L 336.537181 -117.621818 
L 329.749803 -114.567273 
L 323.624175 -111.512727 
L 318.115814 -108.458182 
L 313.136571 -105.403636 
L 308.582322 -102.349091 
L 304.358156 -99.294545 
L 300.396552 -96.24 
L 296.666034 -93.185455 
L 293.170133 -90.130909 
L 289.938531 -87.076364 
L 287.013673 -84.021818 
L 284.436608 -80.967273 
L 282.235331 -77.912727 
L 280.417742 -74.858182 
L 278.969863 -71.803636 
L 277.858618 -68.749091 
L 277.03762 -65.694545 
L 276.454076 -62.64 
z
" style="stroke: #595959; stroke-width: 1.25"/>
    </defs>
    <g clip-path="url(#pd4fb8ac42e)">
     <use xlink:href="#mb7f020e308" x="0" y="432" style="fill: #72b6a1; stroke: #595959; stroke-width: 1.25"/>
    </g>
   </g>
   <g id="PolyCollection_2">
    <defs>
     <path id="m0fc3412e6c" d="M 613.754197 -62.998818 
L 606.645803 -62.998818 
L 602.839369 -65.804585 
L 596.449842 -68.610352 
L 586.89859 -71.416119 
L 574.12132 -74.221886 
L 558.715201 -77.027652 
L 541.817764 -79.833419 
L 524.793747 -82.639186 
L 508.939394 -85.444953 
L 495.35445 -88.25072 
L 484.94901 -91.056487 
L 478.443855 -93.862253 
L 476.28 -96.66802 
L 478.478728 -99.473787 
L 484.55603 -102.279554 
L 493.571649 -105.085321 
L 504.328592 -107.891088 
L 515.661791 -110.696855 
L 526.689126 -113.502621 
L 536.902502 -116.308388 
L 546.080964 -119.114155 
L 554.135714 -121.919922 
L 561.024492 -124.725689 
L 566.775285 -127.531456 
L 571.544969 -130.337222 
L 575.619208 -133.142989 
L 579.331184 -135.948756 
L 582.948999 -138.754523 
L 586.594741 -141.56029 
L 590.226712 -144.366057 
L 593.681868 -147.171823 
L 596.756448 -149.97759 
L 599.293871 -152.783357 
L 601.245958 -155.589124 
L 602.682772 -158.394891 
L 603.751964 -161.200658 
L 604.616203 -164.006424 
L 605.403606 -166.812191 
L 606.186509 -169.617958 
L 606.9812 -172.423725 
L 607.757086 -175.229492 
L 608.453022 -178.035259 
L 609.002091 -180.841026 
L 609.359094 -183.646792 
L 609.519564 -186.452559 
L 609.522732 -189.258326 
L 609.438284 -192.064093 
L 609.341582 -194.86986 
L 609.285752 -197.675627 
L 609.283281 -200.481393 
L 609.309024 -203.28716 
L 609.325226 -206.092927 
L 609.312984 -208.898694 
L 609.288046 -211.704461 
L 609.289836 -214.510228 
L 609.353082 -217.315994 
L 609.48405 -220.121761 
L 609.657688 -222.927528 
L 609.834288 -225.733295 
L 609.98068 -228.539062 
L 610.081603 -231.344829 
L 610.137548 -234.150595 
L 610.15484 -236.956362 
L 610.135897 -239.762129 
L 610.074614 -242.567896 
L 609.958529 -245.373663 
L 609.777217 -248.17943 
L 609.53391 -250.985196 
L 609.254375 -253.790963 
L 608.98652 -256.59673 
L 608.788231 -259.402497 
L 608.707782 -262.208264 
L 608.765814 -265.014031 
L 608.947382 -267.819798 
L 609.207728 -270.625564 
L 609.489141 -273.431331 
L 609.741005 -276.237098 
L 609.933795 -279.042865 
L 610.061759 -281.848632 
L 610.135893 -284.654399 
L 610.173498 -287.460165 
L 610.190187 -290.265932 
L 610.196479 -293.071699 
L 610.19779 -295.877466 
L 610.195491 -298.683233 
L 610.187424 -301.489 
L 610.16752 -304.294766 
L 610.125507 -307.100533 
L 610.048791 -309.9063 
L 609.928426 -312.712067 
L 609.768444 -315.517834 
L 609.593232 -318.323601 
L 609.445175 -321.129367 
L 609.36918 -323.935134 
L 609.390895 -326.740901 
L 609.502827 -329.546668 
L 609.668488 -332.352435 
L 609.841472 -335.158202 
L 609.986021 -337.963968 
L 610.087006 -340.769735 
L 610.312994 -340.769735 
L 610.312994 -340.769735 
L 610.413979 -337.963968 
L 610.558528 -335.158202 
L 610.731512 -332.352435 
L 610.897173 -329.546668 
L 611.009105 -326.740901 
L 611.03082 -323.935134 
L 610.954825 -321.129367 
L 610.806768 -318.323601 
L 610.631556 -315.517834 
L 610.471574 -312.712067 
L 610.351209 -309.9063 
L 610.274493 -307.100533 
L 610.23248 -304.294766 
L 610.212576 -301.489 
L 610.204509 -298.683233 
L 610.20221 -295.877466 
L 610.203521 -293.071699 
L 610.209813 -290.265932 
L 610.226502 -287.460165 
L 610.264107 -284.654399 
L 610.338241 -281.848632 
L 610.466205 -279.042865 
L 610.658995 -276.237098 
L 610.910859 -273.431331 
L 611.192272 -270.625564 
L 611.452618 -267.819798 
L 611.634186 -265.014031 
L 611.692218 -262.208264 
L 611.611769 -259.402497 
L 611.41348 -256.59673 
L 611.145625 -253.790963 
L 610.86609 -250.985196 
L 610.622783 -248.17943 
L 610.441471 -245.373663 
L 610.325386 -242.567896 
L 610.264103 -239.762129 
L 610.24516 -236.956362 
L 610.262452 -234.150595 
L 610.318397 -231.344829 
L 610.41932 -228.539062 
L 610.565712 -225.733295 
L 610.742312 -222.927528 
L 610.91595 -220.121761 
L 611.046918 -217.315994 
L 611.110164 -214.510228 
L 611.111954 -211.704461 
L 611.087016 -208.898694 
L 611.074774 -206.092927 
L 611.090976 -203.28716 
L 611.116719 -200.481393 
L 611.114248 -197.675627 
L 611.058418 -194.86986 
L 610.961716 -192.064093 
L 610.877268 -189.258326 
L 610.880436 -186.452559 
L 611.040906 -183.646792 
L 611.397909 -180.841026 
L 611.946978 -178.035259 
L 612.642914 -175.229492 
L 613.4188 -172.423725 
L 614.213491 -169.617958 
L 614.996394 -166.812191 
L 615.783797 -164.006424 
L 616.648036 -161.200658 
L 617.717228 -158.394891 
L 619.154042 -155.589124 
L 621.106129 -152.783357 
L 623.643552 -149.97759 
L 626.718132 -147.171823 
L 630.173288 -144.366057 
L 633.805259 -141.56029 
L 637.451001 -138.754523 
L 641.068816 -135.948756 
L 644.780792 -133.142989 
L 648.855031 -130.337222 
L 653.624715 -127.531456 
L 659.375508 -124.725689 
L 666.264286 -121.919922 
L 674.319036 -119.114155 
L 683.497498 -116.308388 
L 693.710874 -113.502621 
L 704.738209 -110.696855 
L 716.071408 -107.891088 
L 726.828351 -105.085321 
L 735.84397 -102.279554 
L 741.921272 -99.473787 
L 744.12 -96.66802 
L 741.956145 -93.862253 
L 735.45099 -91.056487 
L 725.04555 -88.25072 
L 711.460606 -85.444953 
L 695.606253 -82.639186 
L 678.582236 -79.833419 
L 661.684799 -77.027652 
L 646.27868 -74.221886 
L 633.50141 -71.416119 
L 623.950158 -68.610352 
L 617.560631 -65.804585 
L 613.754197 -62.998818 
z
" style="stroke: #595959; stroke-width: 1.25"/>
    </defs>
    <g clip-path="url(#pd4fb8ac42e)">
     <use xlink:href="#m0fc3412e6c" x="0" y="432" style="fill: #e99675; stroke: #595959; stroke-width: 1.25"/>
    </g>
   </g>
   <g id="patch_3">
    <path d="M 275.4 352.962424 
L 275.4 352.962424 
L 275.4 352.962424 
L 275.4 352.962424 
z
" clip-path="url(#pd4fb8ac42e)" style="fill: #72b6a1; stroke: #595959; stroke-width: 1.25; stroke-linejoin: miter"/>
   </g>
   <g id="patch_4">
    <path d="M 275.4 352.962424 
L 275.4 352.962424 
L 275.4 352.962424 
L 275.4 352.962424 
z
" clip-path="url(#pd4fb8ac42e)" style="fill: #e99675; stroke: #595959; stroke-width: 1.25; stroke-linejoin: miter"/>
   </g>
   <g id="matplotlib.axis_1">
    <g id="xtick_1">
     <g id="line2d_1">
      <defs>
       <path id="m06433dfebd" d="M 0 0 
L 0 3.5 
" style="stroke: #000000; stroke-width: 0.8"/>
      </defs>
      <g>
       <use xlink:href="#m06433dfebd" x="275.4" y="384.48" style="stroke: #000000; stroke-width: 0.8"/>
      </g>
     </g>
     <g id="text_1">
      <!-- 0 -->
      <g transform="translate(272.21875 399.078438) scale(0.1 -0.1)">
       <defs>
        <path id="DejaVuSans-30" d="M 2034 4250 
Q 1547 4250 1301 3770 
Q 1056 3291 1056 2328 
Q 1056 1369 1301 889 
Q 1547 409 2034 409 
Q 2525 409 2770 889 
Q 3016 1369 3016 2328 
Q 3016 3291 2770 3770 
Q 2525 4250 2034 4250 
z
M 2034 4750 
Q 2819 4750 3233 4129 
Q 3647 3509 3647 2328 
Q 3647 1150 3233 529 
Q 2819 -91 2034 -91 
Q 1250 -91 836 529 
Q 422 1150 422 2328 
Q 422 3509 836 4129 
Q 1250 4750 2034 4750 
z
" transform="scale(0.015625)"/>
       </defs>
       <use xlink:href="#DejaVuSans-30"/>
      </g>
     </g>
    </g>
    <g id="xtick_2">
     <g id="line2d_2">
      <g>
       <use xlink:href="#m06433dfebd" x="610.2" y="384.48" style="stroke: #000000; stroke-width: 0.8"/>
      </g>
     </g>
     <g id="text_2">
      <!-- 1 -->
      <g transform="translate(607.01875 399.078438) scale(0.1 -0.1)">
       <defs>
        <path id="DejaVuSans-31" d="M 794 531 
L 1825 531 
L 1825 4091 
L 703 3866 
L 703 4441 
L 1819 4666 
L 2450 4666 
L 2450 531 
L 3481 531 
L 3481 0 
L 794 0 
L 794 531 
z
" transform="scale(0.015625)"/>
       </defs>
       <use xlink:href="#DejaVuSans-31"/>
      </g>
     </g>
    </g>
    <g id="text_3">
     <!-- Tumor Class (0 = Benign, 1 = Malignant) -->
     <g transform="translate(340.738281 412.756563) scale(0.1 -0.1)">
      <defs>
       <path id="DejaVuSans-54" d="M -19 4666 
L 3928 4666 
L 3928 4134 
L 2272 4134 
L 2272 0 
L 1638 0 
L 1638 4134 
L -19 4134 
L -19 4666 
z
" transform="scale(0.015625)"/>
       <path id="DejaVuSans-75" d="M 544 1381 
L 544 3500 
L 1119 3500 
L 1119 1403 
Q 1119 906 1312 657 
Q 1506 409 1894 409 
Q 2359 409 2629 706 
Q 2900 1003 2900 1516 
L 2900 3500 
L 3475 3500 
L 3475 0 
L 2900 0 
L 2900 538 
Q 2691 219 2414 64 
Q 2138 -91 1772 -91 
Q 1169 -91 856 284 
Q 544 659 544 1381 
z
M 1991 3584 
L 1991 3584 
z
" transform="scale(0.015625)"/>
       <path id="DejaVuSans-6d" d="M 3328 2828 
Q 3544 3216 3844 3400 
Q 4144 3584 4550 3584 
Q 5097 3584 5394 3201 
Q 5691 2819 5691 2113 
L 5691 0 
L 5113 0 
L 5113 2094 
Q 5113 2597 4934 2840 
Q 4756 3084 4391 3084 
Q 3944 3084 3684 2787 
Q 3425 2491 3425 1978 
L 3425 0 
L 2847 0 
L 2847 2094 
Q 2847 2600 2669 2842 
Q 2491 3084 2119 3084 
Q 1678 3084 1418 2786 
Q 1159 2488 1159 1978 
L 1159 0 
L 581 0 
L 581 3500 
L 1159 3500 
L 1159 2956 
Q 1356 3278 1631 3431 
Q 1906 3584 2284 3584 
Q 2666 3584 2933 3390 
Q 3200 3197 3328 2828 
z
" transform="scale(0.015625)"/>
       <path id="DejaVuSans-6f" d="M 1959 3097 
Q 1497 3097 1228 2736 
Q 959 2375 959 1747 
Q 959 1119 1226 758 
Q 1494 397 1959 397 
Q 2419 397 2687 759 
Q 2956 1122 2956 1747 
Q 2956 2369 2687 2733 
Q 2419 3097 1959 3097 
z
M 1959 3584 
Q 2709 3584 3137 3096 
Q 3566 2609 3566 1747 
Q 3566 888 3137 398 
Q 2709 -91 1959 -91 
Q 1206 -91 779 398 
Q 353 888 353 1747 
Q 353 2609 779 3096 
Q 1206 3584 1959 3584 
z
" transform="scale(0.015625)"/>
       <path id="DejaVuSans-72" d="M 2631 2963 
Q 2534 3019 2420 3045 
Q 2306 3072 2169 3072 
Q 1681 3072 1420 2755 
Q 1159 2438 1159 1844 
L 1159 0 
L 581 0 
L 581 3500 
L 1159 3500 
L 1159 2956 
Q 1341 3275 1631 3429 
Q 1922 3584 2338 3584 
Q 2397 3584 2469 3576 
Q 2541 3569 2628 3553 
L 2631 2963 
z
" transform="scale(0.015625)"/>
       <path id="DejaVuSans-20" transform="scale(0.015625)"/>
       <path id="DejaVuSans-43" d="M 4122 4306 
L 4122 3641 
Q 3803 3938 3442 4084 
Q 3081 4231 2675 4231 
Q 1875 4231 1450 3742 
Q 1025 3253 1025 2328 
Q 1025 1406 1450 917 
Q 1875 428 2675 428 
Q 3081 428 3442 575 
Q 3803 722 4122 1019 
L 4122 359 
Q 3791 134 3420 21 
Q 3050 -91 2638 -91 
Q 1578 -91 968 557 
Q 359 1206 359 2328 
Q 359 3453 968 4101 
Q 1578 4750 2638 4750 
Q 3056 4750 3426 4639 
Q 3797 4528 4122 4306 
z
" transform="scale(0.015625)"/>
       <path id="DejaVuSans-6c" d="M 603 4863 
L 1178 4863 
L 1178 0 
L 603 0 
L 603 4863 
z
" transform="scale(0.015625)"/>
       <path id="DejaVuSans-61" d="M 2194 1759 
Q 1497 1759 1228 1600 
Q 959 1441 959 1056 
Q 959 750 1161 570 
Q 1363 391 1709 391 
Q 2188 391 2477 730 
Q 2766 1069 2766 1631 
L 2766 1759 
L 2194 1759 
z
M 3341 1997 
L 3341 0 
L 2766 0 
L 2766 531 
Q 2569 213 2275 61 
Q 1981 -91 1556 -91 
Q 1019 -91 701 211 
Q 384 513 384 1019 
Q 384 1609 779 1909 
Q 1175 2209 1959 2209 
L 2766 2209 
L 2766 2266 
Q 2766 2663 2505 2880 
Q 2244 3097 1772 3097 
Q 1472 3097 1187 3025 
Q 903 2953 641 2809 
L 641 3341 
Q 956 3463 1253 3523 
Q 1550 3584 1831 3584 
Q 2591 3584 2966 3190 
Q 3341 2797 3341 1997 
z
" transform="scale(0.015625)"/>
       <path id="DejaVuSans-73" d="M 2834 3397 
L 2834 2853 
Q 2591 2978 2328 3040 
Q 2066 3103 1784 3103 
Q 1356 3103 1142 2972 
Q 928 2841 928 2578 
Q 928 2378 1081 2264 
Q 1234 2150 1697 2047 
L 1894 2003 
Q 2506 1872 2764 1633 
Q 3022 1394 3022 966 
Q 3022 478 2636 193 
Q 2250 -91 1575 -91 
Q 1294 -91 989 -36 
Q 684 19 347 128 
L 347 722 
Q 666 556 975 473 
Q 1284 391 1588 391 
Q 1994 391 2212 530 
Q 2431 669 2431 922 
Q 2431 1156 2273 1281 
Q 2116 1406 1581 1522 
L 1381 1569 
Q 847 1681 609 1914 
Q 372 2147 372 2553 
Q 372 3047 722 3315 
Q 1072 3584 1716 3584 
Q 2034 3584 2315 3537 
Q 2597 3491 2834 3397 
z
" transform="scale(0.015625)"/>
       <path id="DejaVuSans-28" d="M 1984 4856 
Q 1566 4138 1362 3434 
Q 1159 2731 1159 2009 
Q 1159 1288 1364 580 
Q 1569 -128 1984 -844 
L 1484 -844 
Q 1016 -109 783 600 
Q 550 1309 550 2009 
Q 550 2706 781 3412 
Q 1013 4119 1484 4856 
L 1984 4856 
z
" transform="scale(0.015625)"/>
       <path id="DejaVuSans-3d" d="M 678 2906 
L 4684 2906 
L 4684 2381 
L 678 2381 
L 678 2906 
z
M 678 1631 
L 4684 1631 
L 4684 1100 
L 678 1100 
L 678 1631 
z
" transform="scale(0.015625)"/>
       <path id="DejaVuSans-42" d="M 1259 2228 
L 1259 519 
L 2272 519 
Q 2781 519 3026 730 
Q 3272 941 3272 1375 
Q 3272 1813 3026 2020 
Q 2781 2228 2272 2228 
L 1259 2228 
z
M 1259 4147 
L 1259 2741 
L 2194 2741 
Q 2656 2741 2882 2914 
Q 3109 3088 3109 3444 
Q 3109 3797 2882 3972 
Q 2656 4147 2194 4147 
L 1259 4147 
z
M 628 4666 
L 2241 4666 
Q 2963 4666 3353 4366 
Q 3744 4066 3744 3513 
Q 3744 3084 3544 2831 
Q 3344 2578 2956 2516 
Q 3422 2416 3680 2098 
Q 3938 1781 3938 1306 
Q 3938 681 3513 340 
Q 3088 0 2303 0 
L 628 0 
L 628 4666 
z
" transform="scale(0.015625)"/>
       <path id="DejaVuSans-65" d="M 3597 1894 
L 3597 1613 
L 953 1613 
Q 991 1019 1311 708 
Q 1631 397 2203 397 
Q 2534 397 2845 478 
Q 3156 559 3463 722 
L 3463 178 
Q 3153 47 2828 -22 
Q 2503 -91 2169 -91 
Q 1331 -91 842 396 
Q 353 884 353 1716 
Q 353 2575 817 3079 
Q 1281 3584 2069 3584 
Q 2775 3584 3186 3129 
Q 3597 2675 3597 1894 
z
M 3022 2063 
Q 3016 2534 2758 2815 
Q 2500 3097 2075 3097 
Q 1594 3097 1305 2825 
Q 1016 2553 972 2059 
L 3022 2063 
z
" transform="scale(0.015625)"/>
       <path id="DejaVuSans-6e" d="M 3513 2113 
L 3513 0 
L 2938 0 
L 2938 2094 
Q 2938 2591 2744 2837 
Q 2550 3084 2163 3084 
Q 1697 3084 1428 2787 
Q 1159 2491 1159 1978 
L 1159 0 
L 581 0 
L 581 3500 
L 1159 3500 
L 1159 2956 
Q 1366 3272 1645 3428 
Q 1925 3584 2291 3584 
Q 2894 3584 3203 3211 
Q 3513 2838 3513 2113 
z
" transform="scale(0.015625)"/>
       <path id="DejaVuSans-69" d="M 603 3500 
L 1178 3500 
L 1178 0 
L 603 0 
L 603 3500 
z
M 603 4863 
L 1178 4863 
L 1178 4134 
L 603 4134 
L 603 4863 
z
" transform="scale(0.015625)"/>
       <path id="DejaVuSans-67" d="M 2906 1791 
Q 2906 2416 2648 2759 
Q 2391 3103 1925 3103 
Q 1463 3103 1205 2759 
Q 947 2416 947 1791 
Q 947 1169 1205 825 
Q 1463 481 1925 481 
Q 2391 481 2648 825 
Q 2906 1169 2906 1791 
z
M 3481 434 
Q 3481 -459 3084 -895 
Q 2688 -1331 1869 -1331 
Q 1566 -1331 1297 -1286 
Q 1028 -1241 775 -1147 
L 775 -588 
Q 1028 -725 1275 -790 
Q 1522 -856 1778 -856 
Q 2344 -856 2625 -561 
Q 2906 -266 2906 331 
L 2906 616 
Q 2728 306 2450 153 
Q 2172 0 1784 0 
Q 1141 0 747 490 
Q 353 981 353 1791 
Q 353 2603 747 3093 
Q 1141 3584 1784 3584 
Q 2172 3584 2450 3431 
Q 2728 3278 2906 2969 
L 2906 3500 
L 3481 3500 
L 3481 434 
z
" transform="scale(0.015625)"/>
       <path id="DejaVuSans-2c" d="M 750 794 
L 1409 794 
L 1409 256 
L 897 -744 
L 494 -744 
L 750 256 
L 750 794 
z
" transform="scale(0.015625)"/>
       <path id="DejaVuSans-4d" d="M 628 4666 
L 1569 4666 
L 2759 1491 
L 3956 4666 
L 4897 4666 
L 4897 0 
L 4281 0 
L 4281 4097 
L 3078 897 
L 2444 897 
L 1241 4097 
L 1241 0 
L 628 0 
L 628 4666 
z
" transform="scale(0.015625)"/>
       <path id="DejaVuSans-74" d="M 1172 4494 
L 1172 3500 
L 2356 3500 
L 2356 3053 
L 1172 3053 
L 1172 1153 
Q 1172 725 1289 603 
Q 1406 481 1766 481 
L 2356 481 
L 2356 0 
L 1766 0 
Q 1100 0 847 248 
Q 594 497 594 1153 
L 594 3053 
L 172 3053 
L 172 3500 
L 594 3500 
L 594 4494 
L 1172 4494 
z
" transform="scale(0.015625)"/>
       <path id="DejaVuSans-29" d="M 513 4856 
L 1013 4856 
Q 1481 4119 1714 3412 
Q 1947 2706 1947 2009 
Q 1947 1309 1714 600 
Q 1481 -109 1013 -844 
L 513 -844 
Q 928 -128 1133 580 
Q 1338 1288 1338 2009 
Q 1338 2731 1133 3434 
Q 928 4138 513 4856 
z
" transform="scale(0.015625)"/>
      </defs>
      <use xlink:href="#DejaVuSans-54"/>
      <use xlink:href="#DejaVuSans-75" x="45.958984"/>
      <use xlink:href="#DejaVuSans-6d" x="109.337891"/>
      <use xlink:href="#DejaVuSans-6f" x="206.75"/>
      <use xlink:href="#DejaVuSans-72" x="267.931641"/>
      <use xlink:href="#DejaVuSans-20" x="309.044922"/>
      <use xlink:href="#DejaVuSans-43" x="340.832031"/>
      <use xlink:href="#DejaVuSans-6c" x="410.65625"/>
      <use xlink:href="#DejaVuSans-61" x="438.439453"/>
      <use xlink:href="#DejaVuSans-73" x="499.71875"/>
      <use xlink:href="#DejaVuSans-73" x="551.818359"/>
      <use xlink:href="#DejaVuSans-20" x="603.917969"/>
      <use xlink:href="#DejaVuSans-28" x="635.705078"/>
      <use xlink:href="#DejaVuSans-30" x="674.71875"/>
      <use xlink:href="#DejaVuSans-20" x="738.341797"/>
      <use xlink:href="#DejaVuSans-3d" x="770.128906"/>
      <use xlink:href="#DejaVuSans-20" x="853.917969"/>
      <use xlink:href="#DejaVuSans-42" x="885.705078"/>
      <use xlink:href="#DejaVuSans-65" x="954.308594"/>
      <use xlink:href="#DejaVuSans-6e" x="1015.832031"/>
      <use xlink:href="#DejaVuSans-69" x="1079.210938"/>
      <use xlink:href="#DejaVuSans-67" x="1106.994141"/>
      <use xlink:href="#DejaVuSans-6e" x="1170.470703"/>
      <use xlink:href="#DejaVuSans-2c" x="1233.849609"/>
      <use xlink:href="#DejaVuSans-20" x="1265.636719"/>
      <use xlink:href="#DejaVuSans-31" x="1297.423828"/>
      <use xlink:href="#DejaVuSans-20" x="1361.046875"/>
      <use xlink:href="#DejaVuSans-3d" x="1392.833984"/>
      <use xlink:href="#DejaVuSans-20" x="1476.623047"/>
      <use xlink:href="#DejaVuSans-4d" x="1508.410156"/>
      <use xlink:href="#DejaVuSans-61" x="1594.689453"/>
      <use xlink:href="#DejaVuSans-6c" x="1655.96875"/>
      <use xlink:href="#DejaVuSans-69" x="1683.751953"/>
      <use xlink:href="#DejaVuSans-67" x="1711.535156"/>
      <use xlink:href="#DejaVuSans-6e" x="1775.011719"/>
      <use xlink:href="#DejaVuSans-61" x="1838.390625"/>
      <use xlink:href="#DejaVuSans-6e" x="1899.669922"/>
      <use xlink:href="#DejaVuSans-74" x="1963.048828"/>
      <use xlink:href="#DejaVuSans-29" x="2002.257812"/>
     </g>
    </g>
   </g>
   <g id="matplotlib.axis_2">
    <g id="ytick_1">
     <g id="line2d_3">
      <defs>
       <path id="m3f7b6b2b4d" d="M 0 0 
L -3.5 0 
" style="stroke: #000000; stroke-width: 0.8"/>
      </defs>
      <g>
       <use xlink:href="#m3f7b6b2b4d" x="108" y="352.962424" style="stroke: #000000; stroke-width: 0.8"/>
      </g>
     </g>
     <g id="text_4">
      <!-- 0.0 -->
      <g transform="translate(85.096875 356.761643) scale(0.1 -0.1)">
       <defs>
        <path id="DejaVuSans-2e" d="M 684 794 
L 1344 794 
L 1344 0 
L 684 0 
L 684 794 
z
" transform="scale(0.015625)"/>
       </defs>
       <use xlink:href="#DejaVuSans-30"/>
       <use xlink:href="#DejaVuSans-2e" x="63.623047"/>
       <use xlink:href="#DejaVuSans-30" x="95.410156"/>
      </g>
     </g>
    </g>
    <g id="ytick_2">
     <g id="line2d_4">
      <g>
       <use xlink:href="#m3f7b6b2b4d" x="108" y="293.153904" style="stroke: #000000; stroke-width: 0.8"/>
      </g>
     </g>
     <g id="text_5">
      <!-- 0.1 -->
      <g transform="translate(85.096875 296.953122) scale(0.1 -0.1)">
       <use xlink:href="#DejaVuSans-30"/>
       <use xlink:href="#DejaVuSans-2e" x="63.623047"/>
       <use xlink:href="#DejaVuSans-31" x="95.410156"/>
      </g>
     </g>
    </g>
    <g id="ytick_3">
     <g id="line2d_5">
      <g>
       <use xlink:href="#m3f7b6b2b4d" x="108" y="233.345383" style="stroke: #000000; stroke-width: 0.8"/>
      </g>
     </g>
     <g id="text_6">
      <!-- 0.2 -->
      <g transform="translate(85.096875 237.144602) scale(0.1 -0.1)">
       <defs>
        <path id="DejaVuSans-32" d="M 1228 531 
L 3431 531 
L 3431 0 
L 469 0 
L 469 531 
Q 828 903 1448 1529 
Q 2069 2156 2228 2338 
Q 2531 2678 2651 2914 
Q 2772 3150 2772 3378 
Q 2772 3750 2511 3984 
Q 2250 4219 1831 4219 
Q 1534 4219 1204 4116 
Q 875 4013 500 3803 
L 500 4441 
Q 881 4594 1212 4672 
Q 1544 4750 1819 4750 
Q 2544 4750 2975 4387 
Q 3406 4025 3406 3419 
Q 3406 3131 3298 2873 
Q 3191 2616 2906 2266 
Q 2828 2175 2409 1742 
Q 1991 1309 1228 531 
z
" transform="scale(0.015625)"/>
       </defs>
       <use xlink:href="#DejaVuSans-30"/>
       <use xlink:href="#DejaVuSans-2e" x="63.623047"/>
       <use xlink:href="#DejaVuSans-32" x="95.410156"/>
      </g>
     </g>
    </g>
    <g id="ytick_4">
     <g id="line2d_6">
      <g>
       <use xlink:href="#m3f7b6b2b4d" x="108" y="173.536863" style="stroke: #000000; stroke-width: 0.8"/>
      </g>
     </g>
     <g id="text_7">
      <!-- 0.3 -->
      <g transform="translate(85.096875 177.336082) scale(0.1 -0.1)">
       <defs>
        <path id="DejaVuSans-33" d="M 2597 2516 
Q 3050 2419 3304 2112 
Q 3559 1806 3559 1356 
Q 3559 666 3084 287 
Q 2609 -91 1734 -91 
Q 1441 -91 1130 -33 
Q 819 25 488 141 
L 488 750 
Q 750 597 1062 519 
Q 1375 441 1716 441 
Q 2309 441 2620 675 
Q 2931 909 2931 1356 
Q 2931 1769 2642 2001 
Q 2353 2234 1838 2234 
L 1294 2234 
L 1294 2753 
L 1863 2753 
Q 2328 2753 2575 2939 
Q 2822 3125 2822 3475 
Q 2822 3834 2567 4026 
Q 2313 4219 1838 4219 
Q 1578 4219 1281 4162 
Q 984 4106 628 3988 
L 628 4550 
Q 988 4650 1302 4700 
Q 1616 4750 1894 4750 
Q 2613 4750 3031 4423 
Q 3450 4097 3450 3541 
Q 3450 3153 3228 2886 
Q 3006 2619 2597 2516 
z
" transform="scale(0.015625)"/>
       </defs>
       <use xlink:href="#DejaVuSans-30"/>
       <use xlink:href="#DejaVuSans-2e" x="63.623047"/>
       <use xlink:href="#DejaVuSans-33" x="95.410156"/>
      </g>
     </g>
    </g>
    <g id="ytick_5">
     <g id="line2d_7">
      <g>
       <use xlink:href="#m3f7b6b2b4d" x="108" y="113.728343" style="stroke: #000000; stroke-width: 0.8"/>
      </g>
     </g>
     <g id="text_8">
      <!-- 0.4 -->
      <g transform="translate(85.096875 117.527561) scale(0.1 -0.1)">
       <defs>
        <path id="DejaVuSans-34" d="M 2419 4116 
L 825 1625 
L 2419 1625 
L 2419 4116 
z
M 2253 4666 
L 3047 4666 
L 3047 1625 
L 3713 1625 
L 3713 1100 
L 3047 1100 
L 3047 0 
L 2419 0 
L 2419 1100 
L 313 1100 
L 313 1709 
L 2253 4666 
z
" transform="scale(0.015625)"/>
       </defs>
       <use xlink:href="#DejaVuSans-30"/>
       <use xlink:href="#DejaVuSans-2e" x="63.623047"/>
       <use xlink:href="#DejaVuSans-34" x="95.410156"/>
      </g>
     </g>
    </g>
    <g id="ytick_6">
     <g id="line2d_8">
      <g>
       <use xlink:href="#m3f7b6b2b4d" x="108" y="53.919822" style="stroke: #000000; stroke-width: 0.8"/>
      </g>
     </g>
     <g id="text_9">
      <!-- 0.5 -->
      <g transform="translate(85.096875 57.719041) scale(0.1 -0.1)">
       <defs>
        <path id="DejaVuSans-35" d="M 691 4666 
L 3169 4666 
L 3169 4134 
L 1269 4134 
L 1269 2991 
Q 1406 3038 1543 3061 
Q 1681 3084 1819 3084 
Q 2600 3084 3056 2656 
Q 3513 2228 3513 1497 
Q 3513 744 3044 326 
Q 2575 -91 1722 -91 
Q 1428 -91 1123 -41 
Q 819 9 494 109 
L 494 744 
Q 775 591 1075 516 
Q 1375 441 1709 441 
Q 2250 441 2565 725 
Q 2881 1009 2881 1497 
Q 2881 1984 2565 2268 
Q 2250 2553 1709 2553 
Q 1456 2553 1204 2497 
Q 953 2441 691 2322 
L 691 4666 
z
" transform="scale(0.015625)"/>
       </defs>
       <use xlink:href="#DejaVuSans-30"/>
       <use xlink:href="#DejaVuSans-2e" x="63.623047"/>
       <use xlink:href="#DejaVuSans-35" x="95.410156"/>
      </g>
     </g>
    </g>
    <g id="text_10">
     <!-- Mean Concavity -->
     <g transform="translate(79.017187 258.173281) rotate(-90) scale(0.1 -0.1)">
      <defs>
       <path id="DejaVuSans-63" d="M 3122 3366 
L 3122 2828 
Q 2878 2963 2633 3030 
Q 2388 3097 2138 3097 
Q 1578 3097 1268 2742 
Q 959 2388 959 1747 
Q 959 1106 1268 751 
Q 1578 397 2138 397 
Q 2388 397 2633 464 
Q 2878 531 3122 666 
L 3122 134 
Q 2881 22 2623 -34 
Q 2366 -91 2075 -91 
Q 1284 -91 818 406 
Q 353 903 353 1747 
Q 353 2603 823 3093 
Q 1294 3584 2113 3584 
Q 2378 3584 2631 3529 
Q 2884 3475 3122 3366 
z
" transform="scale(0.015625)"/>
       <path id="DejaVuSans-76" d="M 191 3500 
L 800 3500 
L 1894 563 
L 2988 3500 
L 3597 3500 
L 2284 0 
L 1503 0 
L 191 3500 
z
" transform="scale(0.015625)"/>
       <path id="DejaVuSans-79" d="M 2059 -325 
Q 1816 -950 1584 -1140 
Q 1353 -1331 966 -1331 
L 506 -1331 
L 506 -850 
L 844 -850 
Q 1081 -850 1212 -737 
Q 1344 -625 1503 -206 
L 1606 56 
L 191 3500 
L 800 3500 
L 1894 763 
L 2988 3500 
L 3597 3500 
L 2059 -325 
z
" transform="scale(0.015625)"/>
      </defs>
      <use xlink:href="#DejaVuSans-4d"/>
      <use xlink:href="#DejaVuSans-65" x="86.279297"/>
      <use xlink:href="#DejaVuSans-61" x="147.802734"/>
      <use xlink:href="#DejaVuSans-6e" x="209.082031"/>
      <use xlink:href="#DejaVuSans-20" x="272.460938"/>
      <use xlink:href="#DejaVuSans-43" x="304.248047"/>
      <use xlink:href="#DejaVuSans-6f" x="374.072266"/>
      <use xlink:href="#DejaVuSans-6e" x="435.253906"/>
      <use xlink:href="#DejaVuSans-63" x="498.632812"/>
      <use xlink:href="#DejaVuSans-61" x="553.613281"/>
      <use xlink:href="#DejaVuSans-76" x="614.892578"/>
      <use xlink:href="#DejaVuSans-69" x="674.072266"/>
      <use xlink:href="#DejaVuSans-74" x="701.855469"/>
      <use xlink:href="#DejaVuSans-79" x="741.064453"/>
     </g>
    </g>
   </g>
   <g id="line2d_9">
    <path d="M 275.4 338.620341 
L 275.4 151.527328 
" clip-path="url(#pd4fb8ac42e)" style="fill: none; stroke: #595959; stroke-width: 1.875; stroke-linecap: square"/>
   </g>
   <g id="line2d_10">
    <path d="M 275.4 287.457142 
L 275.4 231.521223 
" clip-path="url(#pd4fb8ac42e)" style="fill: none; stroke: #595959; stroke-width: 5.625; stroke-linecap: square"/>
   </g>
   <g id="line2d_11">
    <path d="M 275.4 262.442228 
" clip-path="url(#pd4fb8ac42e)" style="fill: none; stroke: #595959; stroke-width: 1.5; stroke-linecap: square"/>
    <defs>
     <path id="m3f666bb11e" d="M 2.34375 0 
L -2.34375 -0 
" style="stroke: #ffffff; stroke-width: 1.125"/>
    </defs>
    <g clip-path="url(#pd4fb8ac42e)">
     <use xlink:href="#m3f666bb11e" x="275.4" y="262.442228" style="fill: #ffffff; stroke: #ffffff; stroke-width: 1.125"/>
    </g>
   </g>
   <g id="line2d_12">
    <path d="M 610.2 352.962424 
L 610.2 281.730476 
" clip-path="url(#pd4fb8ac42e)" style="fill: none; stroke: #595959; stroke-width: 1.875; stroke-linecap: square"/>
   </g>
   <g id="line2d_13">
    <path d="M 610.2 340.815313 
L 610.2 317.083293 
" clip-path="url(#pd4fb8ac42e)" style="fill: none; stroke: #595959; stroke-width: 5.625; stroke-linecap: square"/>
   </g>
   <g id="line2d_14">
    <path d="M 610.2 330.779444 
" clip-path="url(#pd4fb8ac42e)" style="fill: none; stroke: #595959; stroke-width: 1.5; stroke-linecap: square"/>
    <g clip-path="url(#pd4fb8ac42e)">
     <use xlink:href="#m3f666bb11e" x="610.2" y="330.779444" style="fill: #ffffff; stroke: #ffffff; stroke-width: 1.125"/>
    </g>
   </g>
   <g id="patch_5">
    <path d="M 108 384.48 
L 108 51.84 
" style="fill: none; stroke: #000000; stroke-width: 0.8; stroke-linejoin: miter; stroke-linecap: square"/>
   </g>
   <g id="patch_6">
    <path d="M 777.6 384.48 
L 777.6 51.84 
" style="fill: none; stroke: #000000; stroke-width: 0.8; stroke-linejoin: miter; stroke-linecap: square"/>
   </g>
   <g id="patch_7">
    <path d="M 108 384.48 
L 777.6 384.48 
" style="fill: none; stroke: #000000; stroke-width: 0.8; stroke-linejoin: miter; stroke-linecap: square"/>
   </g>
   <g id="patch_8">
    <path d="M 108 51.84 
L 777.6 51.84 
" style="fill: none; stroke: #000000; stroke-width: 0.8; stroke-linejoin: miter; stroke-linecap: square"/>
   </g>
   <g id="text_11">
    <!-- Violin Plot of Mean Concavity by Tumor Class -->
    <g transform="translate(308.120625 45.84) scale(0.12 -0.12)">
     <defs>
      <path id="DejaVuSans-56" d="M 1831 0 
L 50 4666 
L 709 4666 
L 2188 738 
L 3669 4666 
L 4325 4666 
L 2547 0 
L 1831 0 
z
" transform="scale(0.015625)"/>
      <path id="DejaVuSans-50" d="M 1259 4147 
L 1259 2394 
L 2053 2394 
Q 2494 2394 2734 2622 
Q 2975 2850 2975 3272 
Q 2975 3691 2734 3919 
Q 2494 4147 2053 4147 
L 1259 4147 
z
M 628 4666 
L 2053 4666 
Q 2838 4666 3239 4311 
Q 3641 3956 3641 3272 
Q 3641 2581 3239 2228 
Q 2838 1875 2053 1875 
L 1259 1875 
L 1259 0 
L 628 0 
L 628 4666 
z
" transform="scale(0.015625)"/>
      <path id="DejaVuSans-66" d="M 2375 4863 
L 2375 4384 
L 1825 4384 
Q 1516 4384 1395 4259 
Q 1275 4134 1275 3809 
L 1275 3500 
L 2222 3500 
L 2222 3053 
L 1275 3053 
L 1275 0 
L 697 0 
L 697 3053 
L 147 3053 
L 147 3500 
L 697 3500 
L 697 3744 
Q 697 4328 969 4595 
Q 1241 4863 1831 4863 
L 2375 4863 
z
" transform="scale(0.015625)"/>
      <path id="DejaVuSans-62" d="M 3116 1747 
Q 3116 2381 2855 2742 
Q 2594 3103 2138 3103 
Q 1681 3103 1420 2742 
Q 1159 2381 1159 1747 
Q 1159 1113 1420 752 
Q 1681 391 2138 391 
Q 2594 391 2855 752 
Q 3116 1113 3116 1747 
z
M 1159 2969 
Q 1341 3281 1617 3432 
Q 1894 3584 2278 3584 
Q 2916 3584 3314 3078 
Q 3713 2572 3713 1747 
Q 3713 922 3314 415 
Q 2916 -91 2278 -91 
Q 1894 -91 1617 61 
Q 1341 213 1159 525 
L 1159 0 
L 581 0 
L 581 4863 
L 1159 4863 
L 1159 2969 
z
" transform="scale(0.015625)"/>
     </defs>
     <use xlink:href="#DejaVuSans-56"/>
     <use xlink:href="#DejaVuSans-69" x="66.158203"/>
     <use xlink:href="#DejaVuSans-6f" x="93.941406"/>
     <use xlink:href="#DejaVuSans-6c" x="155.123047"/>
     <use xlink:href="#DejaVuSans-69" x="182.90625"/>
     <use xlink:href="#DejaVuSans-6e" x="210.689453"/>
     <use xlink:href="#DejaVuSans-20" x="274.068359"/>
     <use xlink:href="#DejaVuSans-50" x="305.855469"/>
     <use xlink:href="#DejaVuSans-6c" x="366.158203"/>
     <use xlink:href="#DejaVuSans-6f" x="393.941406"/>
     <use xlink:href="#DejaVuSans-74" x="455.123047"/>
     <use xlink:href="#DejaVuSans-20" x="494.332031"/>
     <use xlink:href="#DejaVuSans-6f" x="526.119141"/>
     <use xlink:href="#DejaVuSans-66" x="587.300781"/>
     <use xlink:href="#DejaVuSans-20" x="622.505859"/>
     <use xlink:href="#DejaVuSans-4d" x="654.292969"/>
     <use xlink:href="#DejaVuSans-65" x="740.572266"/>
     <use xlink:href="#DejaVuSans-61" x="802.095703"/>
     <use xlink:href="#DejaVuSans-6e" x="863.375"/>
     <use xlink:href="#DejaVuSans-20" x="926.753906"/>
     <use xlink:href="#DejaVuSans-43" x="958.541016"/>
     <use xlink:href="#DejaVuSans-6f" x="1028.365234"/>
     <use xlink:href="#DejaVuSans-6e" x="1089.546875"/>
     <use xlink:href="#DejaVuSans-63" x="1152.925781"/>
     <use xlink:href="#DejaVuSans-61" x="1207.90625"/>
     <use xlink:href="#DejaVuSans-76" x="1269.185547"/>
     <use xlink:href="#DejaVuSans-69" x="1328.365234"/>
     <use xlink:href="#DejaVuSans-74" x="1356.148438"/>
     <use xlink:href="#DejaVuSans-79" x="1395.357422"/>
     <use xlink:href="#DejaVuSans-20" x="1454.537109"/>
     <use xlink:href="#DejaVuSans-62" x="1486.324219"/>
     <use xlink:href="#DejaVuSans-79" x="1549.800781"/>
     <use xlink:href="#DejaVuSans-20" x="1608.980469"/>
     <use xlink:href="#DejaVuSans-54" x="1640.767578"/>
     <use xlink:href="#DejaVuSans-75" x="1686.726562"/>
     <use xlink:href="#DejaVuSans-6d" x="1750.105469"/>
     <use xlink:href="#DejaVuSans-6f" x="1847.517578"/>
     <use xlink:href="#DejaVuSans-72" x="1908.699219"/>
     <use xlink:href="#DejaVuSans-20" x="1949.8125"/>
     <use xlink:href="#DejaVuSans-43" x="1981.599609"/>
     <use xlink:href="#DejaVuSans-6c" x="2051.423828"/>
     <use xlink:href="#DejaVuSans-61" x="2079.207031"/>
     <use xlink:href="#DejaVuSans-73" x="2140.486328"/>
     <use xlink:href="#DejaVuSans-73" x="2192.585938"/>
    </g>
   </g>
   <g id="legend_1">
    <g id="patch_9">
     <path d="M 732.2375 103.874375 
L 770.6 103.874375 
Q 772.6 103.874375 772.6 101.874375 
L 772.6 58.84 
Q 772.6 56.84 770.6 56.84 
L 732.2375 56.84 
Q 730.2375 56.84 730.2375 58.84 
L 730.2375 101.874375 
Q 730.2375 103.874375 732.2375 103.874375 
z
" style="fill: #ffffff; opacity: 0.8; stroke: #cccccc; stroke-linejoin: miter"/>
    </g>
    <g id="text_12">
     <!-- target -->
     <g transform="translate(736.215625 68.438437) scale(0.1 -0.1)">
      <use xlink:href="#DejaVuSans-74"/>
      <use xlink:href="#DejaVuSans-61" x="39.208984"/>
      <use xlink:href="#DejaVuSans-72" x="100.488281"/>
      <use xlink:href="#DejaVuSans-67" x="139.851562"/>
      <use xlink:href="#DejaVuSans-65" x="203.328125"/>
      <use xlink:href="#DejaVuSans-74" x="264.851562"/>
     </g>
    </g>
    <g id="patch_10">
     <path d="M 734.2375 83.116562 
L 754.2375 83.116562 
L 754.2375 76.116562 
L 734.2375 76.116562 
z
" style="fill: #72b6a1; stroke: #595959; stroke-width: 1.25; stroke-linejoin: miter"/>
    </g>
    <g id="text_13">
     <!-- 0 -->
     <g transform="translate(762.2375 83.116562) scale(0.1 -0.1)">
      <use xlink:href="#DejaVuSans-30"/>
     </g>
    </g>
    <g id="patch_11">
     <path d="M 734.2375 97.794688 
L 754.2375 97.794688 
L 754.2375 90.794688 
L 734.2375 90.794688 
z
" style="fill: #e99675; stroke: #595959; stroke-width: 1.25; stroke-linejoin: miter"/>
    </g>
    <g id="text_14">
     <!-- 1 -->
     <g transform="translate(762.2375 97.794688) scale(0.1 -0.1)">
      <use xlink:href="#DejaVuSans-31"/>
     </g>
    </g>
   </g>
  </g>
 </g>
 <defs>
  <clipPath id="pd4fb8ac42e">
   <rect x="108" y="51.84" width="669.6" height="332.64"/>
  </clipPath>
 </defs>
</svg>
